<?xml version="1.0" encoding="UTF-8"?>
<!-- Created with Inkscape (http://www.inkscape.org/) -->
<svg width="171.58mm" height="71.983mm" version="1.1" viewBox="0 0 171.58 71.983" xmlns="http://www.w3.org/2000/svg" xmlns:cc="http://creativecommons.org/ns#" xmlns:dc="http://purl.org/dc/elements/1.1/" xmlns:rdf="http://www.w3.org/1999/02/22-rdf-syntax-ns#">
 <defs>
  <marker id="marker1431" overflow="visible" orient="auto">
   <path transform="matrix(.4 0 0 .4 2.96 .4)" d="m-2.5-1c0 2.76-2.24 5-5 5s-5-2.24-5-5 2.24-5 5-5 5 2.24 5 5z" fill-rule="evenodd" stroke="#000" stroke-width="1pt"/>
  </marker>
  <marker id="TriangleOutL" overflow="visible" orient="auto">
   <path transform="scale(.8)" d="m5.77 0-8.65 5v-10z" fill-rule="evenodd" stroke="#000" stroke-width="1pt"/>
  </marker>
  <marker id="marker1431-58" overflow="visible" orient="auto">
   <path transform="matrix(.4 0 0 .4 2.96 .4)" d="m-2.5-1c0 2.76-2.24 5-5 5s-5-2.24-5-5 2.24-5 5-5 5 2.24 5 5z" fill-rule="evenodd" stroke="#000" stroke-width="1pt"/>
  </marker>
  <marker id="TriangleOutL-81" overflow="visible" orient="auto">
   <path transform="scale(.8)" d="m5.77 0-8.65 5v-10z" fill-rule="evenodd" stroke="#000" stroke-width="1pt"/>
  </marker>
  <marker id="marker1431-56" overflow="visible" orient="auto">
   <path transform="matrix(.4 0 0 .4 2.96 .4)" d="m-2.5-1c0 2.76-2.24 5-5 5s-5-2.24-5-5 2.24-5 5-5 5 2.24 5 5z" fill-rule="evenodd" stroke="#000" stroke-width="1pt"/>
  </marker>
  <marker id="TriangleOutL-09" overflow="visible" orient="auto">
   <path transform="scale(.8)" d="m5.77 0-8.65 5v-10z" fill-rule="evenodd" stroke="#000" stroke-width="1pt"/>
  </marker>
  <marker id="marker1431-56-4" overflow="visible" orient="auto">
   <path transform="matrix(.4 0 0 .4 2.96 .4)" d="m-2.5-1c0 2.76-2.24 5-5 5s-5-2.24-5-5 2.24-5 5-5 5 2.24 5 5z" fill-rule="evenodd" stroke="#000" stroke-width="1pt"/>
  </marker>
  <marker id="TriangleOutL-09-1" overflow="visible" orient="auto">
   <path transform="scale(.8)" d="m5.77 0-8.65 5v-10z" fill-rule="evenodd" stroke="#000" stroke-width="1pt"/>
  </marker>
  <marker id="marker1431-58-2" overflow="visible" orient="auto">
   <path transform="matrix(.4 0 0 .4 2.96 .4)" d="m-2.5-1c0 2.76-2.24 5-5 5s-5-2.24-5-5 2.24-5 5-5 5 2.24 5 5z" fill-rule="evenodd" stroke="#000" stroke-width="1pt"/>
  </marker>
  <marker id="TriangleOutL-81-4" overflow="visible" orient="auto">
   <path transform="scale(.8)" d="m5.77 0-8.65 5v-10z" fill-rule="evenodd" stroke="#000" stroke-width="1pt"/>
  </marker>
  <marker id="marker1431-56-4-2" overflow="visible" orient="auto">
   <path transform="matrix(.4 0 0 .4 2.96 .4)" d="m-2.5-1c0 2.76-2.24 5-5 5s-5-2.24-5-5 2.24-5 5-5 5 2.24 5 5z" fill-rule="evenodd" stroke="#000" stroke-width="1pt"/>
  </marker>
  <marker id="TriangleOutL-09-1-2" overflow="visible" orient="auto">
   <path transform="scale(.8)" d="m5.77 0-8.65 5v-10z" fill-rule="evenodd" stroke="#000" stroke-width="1pt"/>
  </marker>
 </defs>
 <metadata>
  <rdf:RDF>
   <cc:Work rdf:about="">
    <dc:format>image/svg+xml</dc:format>
    <dc:type rdf:resource="http://purl.org/dc/dcmitype/StillImage"/>
    <dc:title/>
   </cc:Work>
  </rdf:RDF>
 </metadata>
 <g transform="translate(-8.3303 -60.902)">
  <path d="m18.541 78.84c-0.14046 0-0.23878 0.11549-0.23878 0.24542v0.24542l-0.67419-0.67851c0.05618-0.11549 0.08427-0.24542 0.08427-0.37535v-1.1838c0-0.44753-0.35114-0.82288-0.8006-0.82288h-0.32305v-0.77957l0.18259 0.17324c0.04214 0.04331 0.11236 0.07218 0.16855 0.07218 0.07023 0 0.12641-0.02887 0.18259-0.07218 0.09832-0.10106 0.08427-0.25986-0.01404-0.36091l-0.60396-0.59189c-0.09832-0.08662-0.23878-0.08662-0.3371 0l-0.60396 0.59189c-0.09832 0.10106-0.09832 0.25986-0.01405 0.36091 0.09832 0.10106 0.25282 0.10106 0.35114 0.01444l0.18259-0.17324v0.77957h-0.32305c-0.43541 0-0.8006 0.36091-0.8006 0.82288v0.33204h-2.0928l0.16855-0.18767c0.09832-0.10106 0.08427-0.25986-0.01405-0.36091s-0.25282-0.08662-0.35114 0.01444l-0.56182 0.60633s-0.01405 0.01444-0.01405 0.01444-0.01405 0.01444-0.01405 0.01444c0 0.01444-0.01405 0.01444-0.01405 0.02887 0 0-0.01404 0.01444-0.01404 0.01444 0 0.01444 0 0.01444-0.01405 0.02887v0.01444 0.10106 0.01444c0 0.01444 0 0.01444 0.01405 0.02887 0 0 0 0.01444 0.01404 0.01444 0 0.01444 0.01405 0.01444 0.01405 0.02887 0 0 0.01405 0.01444 0.01405 0.01444s0.01405 0.01444 0.01405 0.01444l0.57587 0.62077c0.04214 0.05775 0.11237 0.07218 0.18259 0.07218 0.05618 0 0.12641-0.02887 0.16855-0.07218 0.09832-0.10106 0.09832-0.25986 0.01405-0.36091l-0.18259-0.1588h2.1209v0.33204c0 0.44753 0.35114 0.82288 0.8006 0.82288h1.1377c0.12641 0 0.25282-0.02887 0.35114-0.08662l0.66014 0.67851h-0.23878c-0.14046 0-0.23878 0.11549-0.23878 0.24542 0 0.12993 0.11236 0.24542 0.23878 0.24542h0.82869c0.14046 0 0.23878-0.11549 0.23878-0.24542v-0.83731c0.01404-0.14436-0.09832-0.25986-0.22473-0.25986zm-2.7529-0.24542c-0.16855 0-0.309-0.14436-0.309-0.3176v-1.1838c0-0.17324 0.14046-0.3176 0.309-0.3176h1.1377c0.16855 0 0.309 0.14436 0.309 0.3176v1.1838c0 0.17324-0.14046 0.3176-0.309 0.3176z" stroke-width=".1424"/>
  <g transform="matrix(.0544 0 0 .052092 19.179 76.004)">
   <path d="m83.047 166.41c7.702-8.338 11.961-19.071 11.953-30.48 0-12.327-4.984-23.509-13.04-31.645-0.051-0.055-0.079-0.123-0.132-0.176-0.084-0.084-0.206-0.171-0.307-0.257-8.125-7.986-19.255-12.926-31.529-12.926-11.407 0-22.138 4.262-30.473 11.958l-3.621-3.62c-0.707-0.707-1.855-0.707-2.562 0-0.705 0.707-0.705 1.853 0 2.56l3.623 3.622c-7.706 8.336-11.967 19.073-11.959 30.483-4e-3 12.024 4.675 23.327 13.175 31.827s19.803 13.184 31.825 13.184c11.414 0 22.15-4.268 30.486-11.97l3.632 3.631c0.354 0.354 0.817 0.531 1.28 0.531s0.928-0.178 1.281-0.531c0.704-0.707 0.704-1.854 0-2.561zm-3.656-3.659-3.494-3.493c0.465-0.892 0.828-2.041 0.83-3.591 2e-3 -4.846-3.49-11.953-9.338-19.493 4.533-5.225 8.379-10.347 11.188-14.957 1.884-3.092 3.207-5.787 4.007-8.124 4.55 6.475 7.245 14.341 7.245 22.839 7e-3 10.028-3.713 19.463-10.438 26.819zm-57.555 1.35c-1.095-1.389 2.156-10.475 14.115-24.371 1.552 1.786 3.2 3.564 4.946 5.311 1.755 1.758 3.527 3.397 5.295 4.938-10.842 9.293-19.793 14.243-23.616 14.243-0.479 0-0.699-0.089-0.74-0.121zm22.719-22.718c-1.829-1.827-3.536-3.688-5.13-5.547 1.214-1.319 2.501-2.672 3.863-4.062l10.878 10.878c-1.372 1.342-2.73 2.643-4.065 3.867-1.814-1.554-3.673-3.261-5.546-5.136zm33.55-33.645c0.031 0.029 0.06 0.059 0.088 0.088 1.084 1.626-2.777 11.022-14.142 24.297-1.542-1.769-3.188-3.544-4.948-5.302-1.752-1.755-3.521-3.396-5.285-4.932 10.844-9.293 19.793-14.244 23.608-14.244 0.394 0 0.592 0.058 0.679 0.093zm-22.66 22.74c1.875 1.872 3.584 3.728 5.138 5.543-1.214 1.325-2.501 2.684-3.858 4.066l-10.879-10.877c1.372-1.342 2.73-2.642 4.063-3.864 1.814 1.554 3.667 3.26 5.536 5.132zm-13.258-4.927-11.115-11.116c3.239 0.385 8.593 2.966 14.778 7.633-1.249 1.151-2.469 2.315-3.663 3.483zm-2.558 2.564c-1.192 1.218-2.354 2.438-3.485 3.659-2.127-2.817-3.922-5.576-5.259-8.153-1.525-2.937-2.18-5.117-2.362-6.612zm18.196 18.194 11.12 11.12c-3.234-0.38-8.592-2.962-14.783-7.633 1.249-1.152 2.469-2.317 3.663-3.487zm2.558-2.564c1.192-1.215 2.355-2.437 3.485-3.656 4.668 6.183 7.248 11.535 7.63 14.771zm-10.375-47.646c8.512 0 16.393 2.709 22.872 7.277-6.427 2.179-14.979 8.16-23.1 15.185-7.544-5.854-14.659-9.354-19.51-9.354-1.556 0-2.706 0.36501-3.596 0.83101l-3.496-3.495c7.353-6.723 16.786-10.444 26.83-10.444zm-29.392 13.004 3.475 3.475c-1.234 2.372-1.42 6.449 2.203 13.426 1.594 3.069 3.754 6.354 6.332 9.685-4.534 5.227-8.381 10.35-11.191 14.965-1.891 3.104-3.219 5.807-4.017 8.15-4.692-6.655-7.25-14.562-7.246-22.875-7e-3 -10.031 3.714-19.47 10.444-26.826zm29.384 66.664c-8.322 0-16.234-2.564-22.894-7.27 6.433-2.174 14.998-8.158 23.126-15.194 7.551 5.854 14.665 9.354 19.508 9.354 1.558 0 2.709-0.367 3.599-0.836l3.491 3.49c-7.355 6.729-16.797 10.456-26.83 10.456z"/>
  </g>
  <path d="m27.553 88.271c-0.38021 0-0.6913-0.28842-0.6913-0.64092v-1.9228c0-0.3525 0.31109-0.64092 0.6913-0.64092s0.6913 0.28842 0.6913 0.64092v1.9228c0 0.3525-0.31109 0.64092-0.6913 0.64092zm1.3826-0.64092c0 0.708-0.61894 1.2818-1.3826 1.2818s-1.3826-0.57384-1.3826-1.2818m0.6913 2.1364h1.3826m-0.6913-0.85456v0.85456" fill="none" stroke="#000" stroke-linecap="round" stroke-linejoin="round" stroke-miterlimit="10" stroke-width=".44376"/>
  <g transform="matrix(.063892 0 0 .065411 15.993 87.138)">
   <path d="m50.002 18.117c8.807 0 16.769 3.571 22.547 9.337 5.773 5.774 9.341 13.748 9.341 22.546 0 8.806-3.567 16.78-9.341 22.555-5.778 5.765-13.74 9.328-22.547 9.328-8.806 0-16.776-3.563-22.554-9.328-5.765-5.775-9.338-13.749-9.338-22.555 0-8.798 3.572-16.772 9.338-22.546 5.778-5.766 13.748-9.337 22.554-9.337zm4.007 30.63c-0.186-0.426-0.438-0.81-0.726-1.151 3.605-4.306 6.79-9.008 9.633-14.039-0.704-0.54-1.417-1.076-2.122-1.62-3.938 4.374-7.316 9.084-10.18 14.128-0.891-0.177-1.852-0.088-2.754 0.313-2.358 1.038-3.416 3.796-2.379 6.149 1.042 2.357 3.796 3.42 6.161 2.379 0.287-0.136 0.562-0.287 0.81-0.465 3.476 1.595 7.195 2.788 11.257 3.467 0.337-0.949 0.688-1.906 1.024-2.868-3.269-1.834-6.723-3.226-10.324-4.234 0.026-0.688-0.1-1.393-0.4-2.059zm12.436-15.19c-4.208-4.214-10.024-6.819-16.443-6.819-6.427 0-12.242 2.605-16.456 6.819-4.204 4.2-6.807 10.021-6.807 16.443 0 6.428 2.603 12.238 6.807 16.456 4.214 4.204 10.029 6.803 16.456 6.803 6.419 0 12.235-2.599 16.443-6.803 4.209-4.218 6.815-10.028 6.815-16.456 1e-3 -6.423-2.606-12.243-6.815-16.443z" clip-rule="evenodd" fill-rule="evenodd"/>
  </g>
  <g transform="matrix(.45595 0 0 .44699 35.604 7.5421)" stroke-width=".12849">
   <path d="m-43.448 169.46c-0.08618 0-0.15617 0.074-0.15617 0.16518v5.5831c0 0.0912 0.06993 0.16517 0.15617 0.16517 0.08619 0 0.15617-0.074 0.15617-0.16517v-5.5831c0-0.0912-0.06986-0.16518-0.15617-0.16518z"/>
   <path d="m-42.464 170.85c-0.08618 0-0.15617 0.074-0.15617 0.16519v2.8081c0 0.0912 0.06993 0.16517 0.15617 0.16517 0.08619 0 0.15617-0.074 0.15617-0.16517v-2.8081c0-0.0912-0.06986-0.16519-0.15617-0.16519z"/>
   <path d="m-51.097 169.46c-0.08619 0-0.15617 0.074-0.15617 0.16518v5.5831c0 0.0912 0.06994 0.16517 0.15617 0.16517 0.08619 0 0.15616-0.074 0.15616-0.16517v-5.5831c0-0.0912-0.06994-0.16518-0.15616-0.16518z"/>
   <path d="m-52.081 170.85c-0.08619 0-0.15617 0.074-0.15617 0.16519v2.8081c0 0.0912 0.06994 0.16517 0.15617 0.16517 0.08619 0 0.15616-0.074 0.15616-0.16517v-2.8081c0-0.0912-0.06993-0.16519-0.15616-0.16519z"/>
   <ellipse cx="-47.319" cy="176.62" rx=".31982" ry=".33829"/>
   <path d="m-45.402 167.21h-3.8424c-0.41827 0-0.75746 0.35864-0.75746 0.80118v8.814c0 0.44242 0.33907 0.80119 0.75746 0.80119h3.8424c0.41827 0 0.75746-0.35864 0.75746-0.80119v-8.814c0-0.44254-0.33919-0.80118-0.75746-0.80118zm-1.2722 0.51311c0.07484 0 0.13555 0.0642 0.13555 0.14338 0 0.0792-0.06071 0.14337-0.13555 0.14337-0.07485 0-0.13555-0.0642-0.13555-0.14337 0-0.0792 0.0607-0.14338 0.13555-0.14338zm-1.3313-0.0218h0.86003c0.08618 0 0.15616 0.074 0.15616 0.16518 0 0.0912-0.06994 0.16518-0.15616 0.16518h-0.86003c-0.08619 0-0.15617-0.074-0.15617-0.16518 0-0.0912 0.06986-0.16518 0.15617-0.16518zm0.68612 9.5864c-0.34856 0-0.63215-0.29996-0.63215-0.66864s0.28359-0.66865 0.63215-0.66865c0.34856 0 0.63228 0.29997 0.63228 0.66865s-0.28372 0.66864-0.63228 0.66864zm2.2386-1.8249h-4.4849v-6.897h4.4849z"/>
  </g>
  <g transform="matrix(.31801 0 0 .32037 78.662 19.596)">
   <g transform="matrix(.16673 0 0 .14422 -170.97 36.239)">
    <path d="m40.172 958.86a2.1002 2.1002 0 0 0-1.907 2.0938v4.5625h-8.624a2.1002 2.1002 0 0 0-2.094 2.0937v76.156a2.1002 2.1002 0 0 0 1.875 2.0937 2.1002 2.1002 0 0 0 0.219 0h40.718a2.1002 2.1002 0 0 0 2.094-2.0937v-76.156a2.1002 2.1002 0 0 0-2.094-2.0937h-9.25v-4.5625a2.1002 2.1002 0 0 0-2.094-2.0938h-18.624a2.1002 2.1002 0 0 0-0.219 0zm15.187 28.25a2.1002 2.1002 0 0 1 1.719 3.4376s-2.941 3.7252-5.719 7.4062c-1.138 1.508-2.144 2.8681-3 4.0938 3.093 0.054 6.938 0.125 6.938 0.125a2.1002 2.1002 0 0 1 1.687 3.2812l-10.687 15.875a2.1061 2.1061 0 0 1-3.5-2.3438l8.562-12.656c-2.842-0.053-5.905-0.125-6.531-0.125-0.575 0-1.639-0.5433-1.969-1.25s-0.237-1.1352-0.187-1.4062c0.102-0.5424 0.229-0.7479 0.375-1.0313 0.289-0.5668 0.697-1.1779 1.187-1.9063 0.98-1.456 2.339-3.318 3.75-5.1874 2.822-3.7392 5.781-7.4688 5.781-7.4688a2.1002 2.1002 0 0 1 1.376-0.8125 2.1002 2.1002 0 0 1 0.218-0.031z" color="#000000" overflow="visible" style="text-indent:0;text-transform:none"/>
   </g>
  </g>
  <g>
   <rect x="72.37" y="113.14" width="42.112" height="15.305" ry=".68538" fill="#b7c8be" stroke="#000" stroke-linecap="round" stroke-linejoin="round" stroke-width=".359" style="paint-order:fill markers stroke"/>
   <text x="93.450859" y="119.91463" fill="#000000" font-family="'Segoe UI'" font-size="3.5278px" font-weight="600" letter-spacing="0px" stroke-width=".3" text-anchor="middle" word-spacing="0px" style="line-height:1.25" xml:space="preserve"><tspan x="93.450859" y="119.91463" text-align="center">Multi-label Classification</tspan><tspan x="93.450859" y="124.32435" text-align="center">Network</tspan></text>
   <path d="m69.976 81.535h8.1806" fill="none" marker-end="url(#TriangleOutL)" marker-start="url(#marker1431)" stroke="#000" stroke-width=".30648"/>
  </g>
  <g fill="#000000" letter-spacing="0px" word-spacing="0px">
   <text x="138.81274" y="118.50933" font-family="'Segoe UI'" font-size="3.5278px" font-weight="600" stroke-width=".3" text-anchor="middle" style="line-height:0.89999998" xml:space="preserve"><tspan x="139.29851" y="118.50933" text-align="center" style="line-height:1.20000005">Walking, </tspan><tspan x="139.29851" y="122.74266" text-align="center" style="line-height:1.20000005">Outside, </tspan><tspan x="139.29851" y="126.976" text-align="center" style="line-height:1.20000005">With-Friends, </tspan><tspan x="138.81274" y="131.20934" text-align="center" style="line-height:1.20000005">...</tspan></text>
   <text x="21.742088" y="66.33239" font-family="'Segoe UI'" font-size="3.5278px" font-weight="600" stroke-width=".3" text-anchor="middle" style="line-height:0.89999998" xml:space="preserve"><tspan x="21.742088" y="66.33239" text-align="center" style="line-height:1.20000005">Multimodal</tspan><tspan x="21.742088" y="70.56572" text-align="center" style="line-height:1.20000005">Sensory Features</tspan></text>
   <g font-family="Ubuntu">
    <text transform="scale(.92779 1.0778)" x="9.7274437" y="187.82767" font-size="1.9229px" stroke-width=".10301" style="line-height:1.25" xml:space="preserve"><tspan x="9.7274437" y="189.58199" font-family="Ubuntu" stroke-width=".10301"/></text>
    <text transform="scale(.92779 1.0778)" x="9.5193243" y="187.20331" font-size="1.9229px" stroke-width=".10301" style="line-height:1.25" xml:space="preserve"><tspan x="9.5193243" y="188.95763" font-family="Ubuntu" stroke-width=".10301"/></text>
    <g>
     <flowRoot transform="matrix(.36123 0 0 .41964 -46.525 150.71)" font-size="14.667px" style="font-variant-caps:normal;font-variant-ligatures:normal;font-variant-numeric:normal;line-height:1.25" xml:space="preserve"><flowRegion font-family="Ubuntu"><rect x="12.122" y="340.66" width="18.183" height="27.274"/></flowRegion><flowPara/></flowRoot>
     <flowRoot transform="matrix(.095574 0 0 .11103 -46.525 150.71)" font-size="14.667px" style="font-variant-caps:normal;font-variant-ligatures:normal;font-variant-numeric:normal;line-height:1.25" xml:space="preserve"><flowRegion font-family="Ubuntu"><rect x="265" y="536.09" width="100" height="29.286"/></flowRegion><flowPara/></flowRoot>
     <flowRoot transform="matrix(.095574 0 0 .11103 -46.525 150.71)" font-size="14.667px" style="font-variant-caps:normal;font-variant-ligatures:normal;font-variant-numeric:normal;line-height:1.25" xml:space="preserve"><flowRegion font-family="Ubuntu"><rect x="195" y="509.66" width="114.29" height="59.286"/></flowRegion><flowPara/></flowRoot>
     <text transform="scale(.92779 1.0778)" x="-26.893862" y="192.77513" font-size="1.5109px" stroke-width=".10301" style="font-variant-caps:normal;font-variant-ligatures:normal;font-variant-numeric:normal;line-height:1.25" xml:space="preserve"><tspan x="-26.893862" y="194.15352" font-family="Ubuntu" stroke-width=".10301"/></text>
    </g>
   </g>
   <flowRoot transform="matrix(.36123 0 0 .41964 -46.525 150.71)" font-family="'Times New Roman'" font-size="14.667px" style="font-variant-caps:normal;font-variant-ligatures:normal;font-variant-numeric:normal;line-height:1.25" xml:space="preserve"><flowRegion><rect x="77.143" y="183.23" width="39.899" height="25.897"/></flowRegion><flowPara/></flowRoot>
   <flowRoot transform="matrix(.36123 0 0 .41964 -46.525 150.71)" font-family="Ubuntu" font-size="12px" font-weight="500" text-align="center" text-anchor="middle" style="font-variant-caps:normal;font-variant-ligatures:normal;font-variant-numeric:normal;line-height:1.25" xml:space="preserve"><flowRegion font-family="Ubuntu" font-size="12px" font-weight="500" text-align="center" text-anchor="middle"><rect x="172.86" y="202.52" width="40.714" height="30.714"/></flowRegion><flowPara/></flowRoot>
   <flowRoot transform="matrix(.095574 0 0 .11103 -67.842 162.13)" font-size="13.333px" style="line-height:1.25" xml:space="preserve"><flowRegion font-family="Ubuntu"><rect x="459.62" y="472.39" width="222.44" height="47.065"/></flowRegion><flowPara font-family="'Segoe UI'" font-size="21.333px" font-weight="600"/></flowRoot>
   <flowRoot transform="matrix(.095574 0 0 .11103 -57.322 164.87)" font-size="13.333px" style="line-height:1.25" xml:space="preserve"><flowRegion font-family="Ubuntu"><rect x="459.62" y="472.39" width="222.44" height="47.065"/></flowRegion><flowPara font-family="'Segoe UI'" font-size="21.333px" font-weight="600"/></flowRoot>
   <flowRoot transform="matrix(.36123 0 0 .41964 -47.151 148.42)" font-family="sans-serif" font-size="18.667px" style="line-height:1.25" xml:space="preserve"><flowRegion><rect x="618.57" y="712.52" width="10" height="72.857"/></flowRegion><flowPara/></flowRoot>
   <text x="138.34146" y="104.56487" font-family="'Segoe UI'" font-size="3.5278px" font-weight="600" stroke-width=".3" text-anchor="middle" style="line-height:0.89999998" xml:space="preserve"><tspan x="138.82722" y="104.56487" text-align="center" style="line-height:1.20000005">Detected </tspan><tspan x="138.34146" y="108.7982" text-align="center" style="line-height:1.20000005">User Context</tspan></text>
  </g>
  <path d="m82.016 69.401 10.816 5.7871v12.297l-10.816 5.7871z" fill="#dbdee3" stroke="#000" stroke-linecap="round" stroke-linejoin="round" stroke-width=".405" style="paint-order:fill markers stroke"/>
  <path d="m109.51 69.401-10.816 5.7869v12.297l10.816 5.7869z" fill="#dbdee3" stroke="#000" stroke-linecap="round" stroke-linejoin="round" stroke-width=".40489" style="paint-order:fill markers stroke"/>
  <path d="m19.264 116.98c-0.14045 0-0.23877 0.11548-0.23877 0.24541v0.24542l-0.67419-0.67852c0.0562-0.11549 0.0843-0.24542 0.0843-0.37534v-1.1838c0-0.44753-0.35114-0.82288-0.8006-0.82288h-0.32305v-0.77956l0.18259 0.17323c0.0421 0.0433 0.11237 0.0722 0.16855 0.0722 0.0702 0 0.12641-0.0289 0.18259-0.0722 0.0983-0.10105 0.0843-0.25985-0.014-0.36091l-0.60396-0.59189c-0.0983-0.0866-0.23878-0.0866-0.3371 0l-0.60396 0.5919c-0.0983 0.10106-0.0983 0.25986-0.014 0.36091 0.0983 0.10106 0.25282 0.10106 0.35114 0.0144l0.1826-0.17324v0.77957h-0.32305c-0.43542 0-0.8006 0.36091-0.8006 0.82288v0.33204h-2.0928l0.16855-0.18768c0.0983-0.10105 0.0843-0.25985-0.014-0.36091-0.0983-0.10105-0.25282-0.0866-0.35114 0.0144l-0.56183 0.60633s-0.014 0.0144-0.014 0.0144l-0.0141 0.0144c0 0.0144-0.014 0.0144-0.014 0.0289 0 0-0.014 0.0144-0.014 0.0144 0 0.0144 0 0.0144-0.014 0.0289v0.0144 0.10105 0.0144c0 0.0144 0 0.0144 0.014 0.0289 0 0 0 0.0144 0.014 0.0144 0 0.0144 0.014 0.0144 0.014 0.0289l0.0141 0.0144 0.014 0.0145 0.57587 0.62076c0.0421 0.0577 0.11237 0.0722 0.1826 0.0722 0.0562 0 0.12641-0.0289 0.16854-0.0722 0.0983-0.10105 0.0983-0.25985 0.014-0.36091l-0.18259-0.15881h2.1209v0.33204c0 0.44753 0.35114 0.82288 0.8006 0.82288h1.1377c0.12641 0 0.25282-0.0289 0.35114-0.0866l0.66015 0.67851h-0.23878c-0.14046 0-0.23877 0.11549-0.23877 0.24542s0.11236 0.24542 0.23877 0.24542h0.82869c0.14046 0 0.23878-0.11549 0.23878-0.24542v-0.83732c0.014-0.14436-0.0983-0.25985-0.22473-0.25985zm-2.7529-0.24542c-0.16854 0-0.309-0.14437-0.309-0.3176v-1.1838c0-0.17325 0.14046-0.3176 0.309-0.3176h1.1377c0.16854 0 0.309 0.14436 0.309 0.3176v1.1838c0 0.17323-0.14046 0.3176-0.309 0.3176z" stroke-width=".1424"/>
  <g transform="matrix(.0544 0 0 .052092 19.902 114.15)">
   <path d="m83.047 166.41c7.702-8.338 11.961-19.071 11.953-30.48 0-12.327-4.984-23.509-13.04-31.645-0.051-0.055-0.079-0.123-0.132-0.176-0.084-0.084-0.206-0.171-0.307-0.257-8.125-7.986-19.255-12.926-31.529-12.926-11.407 0-22.138 4.262-30.473 11.958l-3.621-3.62c-0.707-0.707-1.855-0.707-2.562 0-0.705 0.707-0.705 1.853 0 2.56l3.623 3.622c-7.706 8.336-11.967 19.073-11.959 30.483-4e-3 12.024 4.675 23.327 13.175 31.827s19.803 13.184 31.825 13.184c11.414 0 22.15-4.268 30.486-11.97l3.632 3.631c0.354 0.354 0.817 0.531 1.28 0.531s0.928-0.178 1.281-0.531c0.704-0.707 0.704-1.854 0-2.561zm-3.656-3.659-3.494-3.493c0.465-0.892 0.828-2.041 0.83-3.591 2e-3 -4.846-3.49-11.953-9.338-19.493 4.533-5.225 8.379-10.347 11.188-14.957 1.884-3.092 3.207-5.787 4.007-8.124 4.55 6.475 7.245 14.341 7.245 22.839 7e-3 10.028-3.713 19.463-10.438 26.819zm-57.555 1.35c-1.095-1.389 2.156-10.475 14.115-24.371 1.552 1.786 3.2 3.564 4.946 5.311 1.755 1.758 3.527 3.397 5.295 4.938-10.842 9.293-19.793 14.243-23.616 14.243-0.479 0-0.699-0.089-0.74-0.121zm22.719-22.718c-1.829-1.827-3.536-3.688-5.13-5.547 1.214-1.319 2.501-2.672 3.863-4.062l10.878 10.878c-1.372 1.342-2.73 2.643-4.065 3.867-1.814-1.554-3.673-3.261-5.546-5.136zm33.55-33.645c0.031 0.029 0.06 0.059 0.088 0.088 1.084 1.626-2.777 11.022-14.142 24.297-1.542-1.769-3.188-3.544-4.948-5.302-1.752-1.755-3.521-3.396-5.285-4.932 10.844-9.293 19.793-14.244 23.608-14.244 0.394 0 0.592 0.058 0.679 0.093zm-22.66 22.74c1.875 1.872 3.584 3.728 5.138 5.543-1.214 1.325-2.501 2.684-3.858 4.066l-10.879-10.877c1.372-1.342 2.73-2.642 4.063-3.864 1.814 1.554 3.667 3.26 5.536 5.132zm-13.258-4.927-11.115-11.116c3.239 0.385 8.593 2.966 14.778 7.633-1.249 1.151-2.469 2.315-3.663 3.483zm-2.558 2.564c-1.192 1.218-2.354 2.438-3.485 3.659-2.127-2.817-3.922-5.576-5.259-8.153-1.525-2.937-2.18-5.117-2.362-6.612zm18.196 18.194 11.12 11.12c-3.234-0.38-8.592-2.962-14.783-7.633 1.249-1.152 2.469-2.317 3.663-3.487zm2.558-2.564c1.192-1.215 2.355-2.437 3.485-3.656 4.668 6.183 7.248 11.535 7.63 14.771zm-10.375-47.646c8.512 0 16.393 2.709 22.872 7.277-6.427 2.179-14.979 8.16-23.1 15.185-7.544-5.854-14.659-9.354-19.51-9.354-1.556 0-2.706 0.36501-3.596 0.83101l-3.496-3.495c7.353-6.723 16.786-10.444 26.83-10.444zm-29.392 13.004 3.475 3.475c-1.234 2.372-1.42 6.449 2.203 13.426 1.594 3.069 3.754 6.354 6.332 9.685-4.534 5.227-8.381 10.35-11.191 14.965-1.891 3.104-3.219 5.807-4.017 8.15-4.692-6.655-7.25-14.562-7.246-22.875-7e-3 -10.031 3.714-19.47 10.444-26.826zm29.384 66.664c-8.322 0-16.234-2.564-22.894-7.27 6.433-2.174 14.998-8.158 23.126-15.194 7.551 5.854 14.665 9.354 19.508 9.354 1.558 0 2.709-0.367 3.599-0.836l3.491 3.49c-7.355 6.729-16.797 10.456-26.83 10.456z"/>
  </g>
  <path d="m28.276 126.41c-0.38021 0-0.6913-0.28842-0.6913-0.64091v-1.9228c0-0.3525 0.31109-0.64092 0.6913-0.64092 0.38022 0 0.6913 0.28842 0.6913 0.64092v1.9228c0 0.35249-0.31108 0.64091-0.6913 0.64091zm1.3826-0.64091c0 0.70799-0.61894 1.2818-1.3826 1.2818-0.76365 0-1.3826-0.57384-1.3826-1.2818m0.6913 2.1364h1.3826m-0.6913-0.85456v0.85456" fill="none" stroke="#000" stroke-linecap="round" stroke-linejoin="round" stroke-miterlimit="10" stroke-width=".44376"/>
  <g transform="matrix(.063892 0 0 .065411 16.715 125.28)">
   <path d="m50.002 18.117c8.807 0 16.769 3.571 22.547 9.337 5.773 5.774 9.341 13.748 9.341 22.546 0 8.806-3.567 16.78-9.341 22.555-5.778 5.765-13.74 9.328-22.547 9.328-8.806 0-16.776-3.563-22.554-9.328-5.765-5.775-9.338-13.749-9.338-22.555 0-8.798 3.572-16.772 9.338-22.546 5.778-5.766 13.748-9.337 22.554-9.337zm4.007 30.63c-0.186-0.426-0.438-0.81-0.726-1.151 3.605-4.306 6.79-9.008 9.633-14.039-0.704-0.54-1.417-1.076-2.122-1.62-3.938 4.374-7.316 9.084-10.18 14.128-0.891-0.177-1.852-0.088-2.754 0.313-2.358 1.038-3.416 3.796-2.379 6.149 1.042 2.357 3.796 3.42 6.161 2.379 0.287-0.136 0.562-0.287 0.81-0.465 3.476 1.595 7.195 2.788 11.257 3.467 0.337-0.949 0.688-1.906 1.024-2.868-3.269-1.834-6.723-3.226-10.324-4.234 0.026-0.688-0.1-1.393-0.4-2.059zm12.436-15.19c-4.208-4.214-10.024-6.819-16.443-6.819-6.427 0-12.242 2.605-16.456 6.819-4.204 4.2-6.807 10.021-6.807 16.443 0 6.428 2.603 12.238 6.807 16.456 4.214 4.204 10.029 6.803 16.456 6.803 6.419 0 12.235-2.599 16.443-6.803 4.209-4.218 6.815-10.028 6.815-16.456 1e-3 -6.423-2.606-12.243-6.815-16.443z" clip-rule="evenodd" fill-rule="evenodd"/>
  </g>
  <g transform="matrix(.45595 0 0 .44699 36.326 45.686)" stroke-width=".12849">
   <path d="m-43.448 169.46c-0.08618 0-0.15617 0.074-0.15617 0.16518v5.5831c0 0.0912 0.06993 0.16517 0.15617 0.16517 0.08619 0 0.15617-0.074 0.15617-0.16517v-5.5831c0-0.0912-0.06986-0.16518-0.15617-0.16518z"/>
   <path d="m-42.464 170.85c-0.08618 0-0.15617 0.074-0.15617 0.16519v2.8081c0 0.0912 0.06993 0.16517 0.15617 0.16517 0.08619 0 0.15617-0.074 0.15617-0.16517v-2.8081c0-0.0912-0.06986-0.16519-0.15617-0.16519z"/>
   <path d="m-51.097 169.46c-0.08619 0-0.15617 0.074-0.15617 0.16518v5.5831c0 0.0912 0.06994 0.16517 0.15617 0.16517 0.08619 0 0.15616-0.074 0.15616-0.16517v-5.5831c0-0.0912-0.06994-0.16518-0.15616-0.16518z"/>
   <path d="m-52.081 170.85c-0.08619 0-0.15617 0.074-0.15617 0.16519v2.8081c0 0.0912 0.06994 0.16517 0.15617 0.16517 0.08619 0 0.15616-0.074 0.15616-0.16517v-2.8081c0-0.0912-0.06993-0.16519-0.15616-0.16519z"/>
   <ellipse cx="-47.319" cy="176.62" rx=".31982" ry=".33829"/>
   <path d="m-45.402 167.21h-3.8424c-0.41827 0-0.75746 0.35864-0.75746 0.80118v8.814c0 0.44242 0.33907 0.80119 0.75746 0.80119h3.8424c0.41827 0 0.75746-0.35864 0.75746-0.80119v-8.814c0-0.44254-0.33919-0.80118-0.75746-0.80118zm-1.2722 0.51311c0.07484 0 0.13555 0.0642 0.13555 0.14338 0 0.0792-0.06071 0.14337-0.13555 0.14337-0.07485 0-0.13555-0.0642-0.13555-0.14337 0-0.0792 0.0607-0.14338 0.13555-0.14338zm-1.3313-0.0218h0.86003c0.08618 0 0.15616 0.074 0.15616 0.16518 0 0.0912-0.06994 0.16518-0.15616 0.16518h-0.86003c-0.08619 0-0.15617-0.074-0.15617-0.16518 0-0.0912 0.06986-0.16518 0.15617-0.16518zm0.68612 9.5864c-0.34856 0-0.63215-0.29996-0.63215-0.66864s0.28359-0.66865 0.63215-0.66865c0.34856 0 0.63228 0.29997 0.63228 0.66865s-0.28372 0.66864-0.63228 0.66864zm2.2386-1.8249h-4.4849v-6.897h4.4849z"/>
  </g>
  <g transform="matrix(.31801 0 0 .32037 79.384 57.739)">
   <g transform="matrix(.16673 0 0 .14422 -170.97 36.239)">
    <path d="m40.172 958.86a2.1002 2.1002 0 0 0-1.907 2.0938v4.5625h-8.624a2.1002 2.1002 0 0 0-2.094 2.0937v76.156a2.1002 2.1002 0 0 0 1.875 2.0937 2.1002 2.1002 0 0 0 0.219 0h40.718a2.1002 2.1002 0 0 0 2.094-2.0937v-76.156a2.1002 2.1002 0 0 0-2.094-2.0937h-9.25v-4.5625a2.1002 2.1002 0 0 0-2.094-2.0938h-18.624a2.1002 2.1002 0 0 0-0.219 0zm15.187 28.25a2.1002 2.1002 0 0 1 1.719 3.4376s-2.941 3.7252-5.719 7.4062c-1.138 1.508-2.144 2.8681-3 4.0938 3.093 0.054 6.938 0.125 6.938 0.125a2.1002 2.1002 0 0 1 1.687 3.2812l-10.687 15.875a2.1061 2.1061 0 0 1-3.5-2.3438l8.562-12.656c-2.842-0.053-5.905-0.125-6.531-0.125-0.575 0-1.639-0.5433-1.969-1.25s-0.237-1.1352-0.187-1.4062c0.102-0.5424 0.229-0.7479 0.375-1.0313 0.289-0.5668 0.697-1.1779 1.187-1.9063 0.98-1.456 2.339-3.318 3.75-5.1874 2.822-3.7392 5.781-7.4688 5.781-7.4688a2.1002 2.1002 0 0 1 1.376-0.8125 2.1002 2.1002 0 0 1 0.218-0.031z" color="#000000" overflow="visible" style="text-indent:0;text-transform:none"/>
   </g>
  </g>
  <g fill="#c83737" stroke="#c83737" stroke-linecap="round" stroke-width=".701">
   <g transform="translate(-8.3492 81.05)">
    <path d="m35.549 42.484c0.7232 1.0979 1.4465 2.1959 2.1698 3.294"/>
    <path d="m38.349 42.351c-1.1487 1.1402-2.212 2.1956-3.3185 3.294"/>
   </g>
   <g transform="translate(-21.822 78.55)">
    <path d="m35.549 42.484c0.7232 1.0979 1.4465 2.1959 2.1698 3.294"/>
    <path d="m38.349 42.351c-1.1487 1.1402-2.212 2.1956-3.3185 3.294"/>
   </g>
   <g transform="translate(-9.0358 71.476)">
    <path d="m35.549 42.484c0.7232 1.0979 1.4465 2.1959 2.1698 3.294"/>
    <path d="m38.349 42.351c-1.1487 1.1402-2.212 2.1956-3.3185 3.294"/>
   </g>
  </g>
  <g>
   <path d="m33.096 81.535h8.1806" fill="none" marker-end="url(#TriangleOutL-81)" marker-start="url(#marker1431-58)" stroke="#000" stroke-width=".30648"/>
   <text x="56.192947" y="78.938164" fill="#000000" font-family="'Segoe UI'" font-size="3.5278px" font-weight="600" letter-spacing="0px" stroke-width=".3" text-anchor="middle" word-spacing="0px" style="line-height:0.89999998" xml:space="preserve"><tspan x="56.678707" y="78.938164" text-align="center" style="line-height:1.20000005">Adding Noise </tspan><tspan x="56.678707" y="83.171494" text-align="center" style="line-height:1.20000005">to Emulate </tspan><tspan x="56.192947" y="87.404831" text-align="center" style="line-height:1.20000005">Missing Sensors</tspan></text>
   <path d="m113.53 81.27h8.1806" fill="none" marker-end="url(#TriangleOutL-09)" marker-start="url(#marker1431-56)" stroke="#000" stroke-width=".30648"/>
   <text x="96.21711" y="63.512962" fill="#000000" font-family="'Segoe UI'" font-size="3.5278px" font-weight="600" letter-spacing="0px" stroke-width=".3" text-anchor="middle" word-spacing="0px" style="line-height:0.89999998" xml:space="preserve"><tspan x="96.702866" y="63.512962" text-align="center" style="line-height:1.20000005">Adversarial </tspan><tspan x="96.702866" y="67.746292" text-align="center" style="line-height:1.20000005">Autoencoder </tspan></text>
   <text x="136.7765" y="78.896309" fill="#000000" font-family="'Segoe UI'" font-size="3.5278px" font-weight="600" letter-spacing="0px" stroke-width=".3" text-anchor="middle" word-spacing="0px" style="line-height:0.89999998" xml:space="preserve"><tspan x="137.26227" y="78.896309" text-align="center" style="line-height:1.20000005">Clean </tspan><tspan x="137.26227" y="83.129639" text-align="center" style="line-height:1.20000005">Reconstructed </tspan><tspan x="136.7765" y="87.362976" text-align="center" style="line-height:1.20000005">Features</tspan></text>
  </g>
  <g fill="none" stroke="#000" stroke-width=".30648">
   <path d="m116.97 120.92h8.1806" marker-end="url(#TriangleOutL-09-1)" marker-start="url(#marker1431-56-4)"/>
   <path d="m34.551 121.18h8.1806" marker-end="url(#TriangleOutL-81-4)" marker-start="url(#marker1431-58-2)"/>
   <path d="m60.348 120.92h8.1806" marker-end="url(#TriangleOutL-09-1-2)" marker-start="url(#marker1431-56-4-2)"/>
  </g>
  <path d="m46.913 108.81 10.816 5.7871v12.297l-10.816 5.787z" fill="#dbdee3" stroke="#000" stroke-linecap="round" stroke-linejoin="round" stroke-width=".40489" style="paint-order:fill markers stroke"/>
  <g fill="none" stroke="#000">
   <path d="m147.47 114.98v-3.1115h-18.658v3.0226" opacity=".88" stroke-dasharray="1.34799999, 1.34799999" stroke-width=".337"/>
   <path d="m149.77 95.407h2.3756v-28.092h-2.3078" opacity=".88" stroke-dasharray="1.748, 1.748" stroke-width=".437"/>
   <path d="m150.15 129.69h2.3756v-28.092h-2.3078" opacity=".88" stroke-dasharray="1.74800002, 1.74800002" stroke-width=".437"/>
  </g>
  <text x="166.98724" y="77.486176" fill="#000000" font-family="'Segoe UI'" font-size="3.8806px" font-weight="600" letter-spacing="0px" stroke-width=".3" text-anchor="middle" word-spacing="0px" style="line-height:0.89999998" xml:space="preserve"><tspan x="167.52158" y="77.486176" text-align="center" style="line-height:1.20000005">Synthesizing </tspan><tspan x="167.52158" y="82.142845" text-align="center" style="line-height:1.20000005">and </tspan><tspan x="166.98724" y="86.799507" text-align="center" style="line-height:1.20000005">Reconstructing</tspan></text>
  <text x="167.67151" y="116.15546" fill="#000000" font-family="sans-serif" font-size="3.175px" letter-spacing="0px" stroke-width=".3" word-spacing="0px" style="line-height:0.89999998" xml:space="preserve"><tspan x="167.67151" y="116.15546" font-family="'Segoe UI'" font-size="3.8806px" font-weight="600" stroke-width=".3" text-align="center" text-anchor="middle" style="line-height:1.20000005">Classification</tspan></text>
 </g>
</svg>
