<?xml version="1.0" encoding="UTF-8" standalone="no"?>
<!-- Created with Inkscape (http://www.inkscape.org/) -->

<svg
   xmlns:dc="http://purl.org/dc/elements/1.1/"
   xmlns:cc="http://creativecommons.org/ns#"
   xmlns:rdf="http://www.w3.org/1999/02/22-rdf-syntax-ns#"
   xmlns:svg="http://www.w3.org/2000/svg"
   xmlns="http://www.w3.org/2000/svg"
   xmlns:sodipodi="http://sodipodi.sourceforge.net/DTD/sodipodi-0.dtd"
   xmlns:inkscape="http://www.inkscape.org/namespaces/inkscape"
   version="1.1"
   id="svg815"
   xml:space="preserve"
   width="427.07999"
   height="365.76001"
   viewBox="0 0 427.07999 365.76001"
   sodipodi:docname="overview_odar.svg"
   inkscape:version="0.92.2 (5c3e80d, 2017-08-06)"><metadata
     id="metadata821"><rdf:RDF><cc:Work
         rdf:about=""><dc:format>image/svg+xml</dc:format><dc:type
           rdf:resource="http://purl.org/dc/dcmitype/StillImage" /><dc:title></dc:title></cc:Work></rdf:RDF></metadata><defs
     id="defs819"><clipPath
       clipPathUnits="userSpaceOnUse"
       id="clipPath837"><path
         d="M 0,0 H 321 V 275 H 0 Z"
         id="path835"
         inkscape:connector-curvature="0" /></clipPath><clipPath
       clipPathUnits="userSpaceOnUse"
       id="clipPath853"><path
         d="M 0,0 H 321 V 275 H 0 Z"
         id="path851"
         inkscape:connector-curvature="0" /></clipPath><clipPath
       clipPathUnits="userSpaceOnUse"
       id="clipPath869"><path
         d="M 0,0 H 321 V 275 H 0 Z"
         id="path867"
         inkscape:connector-curvature="0" /></clipPath><clipPath
       clipPathUnits="userSpaceOnUse"
       id="clipPath885"><path
         d="M 0,0 H 321 V 275 H 0 Z"
         id="path883"
         inkscape:connector-curvature="0" /></clipPath><clipPath
       clipPathUnits="userSpaceOnUse"
       id="clipPath903"><path
         d="M 0,0 H 321 V 275 H 0 Z"
         id="path901"
         inkscape:connector-curvature="0" /></clipPath><clipPath
       clipPathUnits="userSpaceOnUse"
       id="clipPath921"><path
         d="M 0,0 H 321 V 275 H 0 Z"
         id="path919"
         inkscape:connector-curvature="0" /></clipPath><clipPath
       clipPathUnits="userSpaceOnUse"
       id="clipPath939"><path
         d="M 0,0 H 321 V 275 H 0 Z"
         id="path937"
         inkscape:connector-curvature="0" /></clipPath><clipPath
       clipPathUnits="userSpaceOnUse"
       id="clipPath955"><path
         d="M 0,0 H 321 V 275 H 0 Z"
         id="path953"
         inkscape:connector-curvature="0" /></clipPath><clipPath
       clipPathUnits="userSpaceOnUse"
       id="clipPath971"><path
         d="M 0,0 H 321 V 275 H 0 Z"
         id="path969"
         inkscape:connector-curvature="0" /></clipPath><clipPath
       clipPathUnits="userSpaceOnUse"
       id="clipPath987"><path
         d="M 0,0 H 321 V 275 H 0 Z"
         id="path985"
         inkscape:connector-curvature="0" /></clipPath><clipPath
       clipPathUnits="userSpaceOnUse"
       id="clipPath1005"><path
         d="M 0,0 H 321 V 275 H 0 Z"
         id="path1003"
         inkscape:connector-curvature="0" /></clipPath><clipPath
       clipPathUnits="userSpaceOnUse"
       id="clipPath1023"><path
         d="M 0,0 H 321 V 275 H 0 Z"
         id="path1021"
         inkscape:connector-curvature="0" /></clipPath><clipPath
       clipPathUnits="userSpaceOnUse"
       id="clipPath1041"><path
         d="M 0,0 H 321 V 275 H 0 Z"
         id="path1039"
         inkscape:connector-curvature="0" /></clipPath><clipPath
       clipPathUnits="userSpaceOnUse"
       id="clipPath1057"><path
         d="M 0,0 H 321 V 275 H 0 Z"
         id="path1055"
         inkscape:connector-curvature="0" /></clipPath><clipPath
       clipPathUnits="userSpaceOnUse"
       id="clipPath1075"><path
         d="M 0,0 H 321 V 275 H 0 Z"
         id="path1073"
         inkscape:connector-curvature="0" /></clipPath><clipPath
       clipPathUnits="userSpaceOnUse"
       id="clipPath1091"><path
         d="M 0,0 H 321 V 275 H 0 Z"
         id="path1089"
         inkscape:connector-curvature="0" /></clipPath><clipPath
       clipPathUnits="userSpaceOnUse"
       id="clipPath1107"><path
         d="M 0,0 H 321 V 275 H 0 Z"
         id="path1105"
         inkscape:connector-curvature="0" /></clipPath><clipPath
       clipPathUnits="userSpaceOnUse"
       id="clipPath1121"><path
         d="M 0,0 H 321 V 275 H 0 Z"
         id="path1119"
         inkscape:connector-curvature="0" /></clipPath><clipPath
       clipPathUnits="userSpaceOnUse"
       id="clipPath1153"><path
         d="M 0,0 H 321 V 275 H 0 Z"
         id="path1151"
         inkscape:connector-curvature="0" /></clipPath><clipPath
       clipPathUnits="userSpaceOnUse"
       id="clipPath1169"><path
         d="M 0,0 H 321 V 275 H 0 Z"
         id="path1167"
         inkscape:connector-curvature="0" /></clipPath></defs><sodipodi:namedview
     pagecolor="#ffffff"
     bordercolor="#666666"
     borderopacity="1"
     objecttolerance="10"
     gridtolerance="10"
     guidetolerance="10"
     inkscape:pageopacity="0"
     inkscape:pageshadow="2"
     inkscape:window-width="1920"
     inkscape:window-height="1001"
     id="namedview817"
     showgrid="false"
     inkscape:zoom="2.2090988"
     inkscape:cx="213.53999"
     inkscape:cy="182.88"
     inkscape:window-x="-9"
     inkscape:window-y="-9"
     inkscape:window-maximized="1"
     inkscape:current-layer="g823" /><g
     id="g823"
     inkscape:groupmode="layer"
     inkscape:label="Presentation1"
     transform="matrix(1.3333333,0,0,1.3333333,0,9.8106669e-6)"><g
       id="g825"><path
         d="M 60.719,0.941 C 60.719,0.422 61.141,0 61.66,0 h 81.399 C 143.578,0 144,0.422 144,0.941 v 33.637 c 0,0.524 -0.422,0.942 -0.941,0.942 H 61.66 c -0.519,0 -0.941,-0.418 -0.941,-0.942 z"
         style="fill:#0070c0;fill-opacity:1;fill-rule:evenodd;stroke:none"
         id="path827"
         inkscape:connector-curvature="0" /><g
         id="g829"><g
           id="g831"><g
             id="g833"
             clip-path="url(#clipPath837)"><g
               id="g839"><text
                 transform="translate(77.689998,15.36)"
                 style="font-variant:normal;font-weight:normal;font-size:9.11999989px;font-family:'Open Sans';-inkscape-font-specification:OpenSans;writing-mode:lr-tb;fill:#ffffff;fill-opacity:1;fill-rule:nonzero;stroke:none"
                 id="text843"><tspan
                   x="0 5.9827199 11.02608 15.34896 20.392321 22.54464 30.69792 36.206402 41.73312 46.776482 49.156799"
                   y="0"
                   sodipodi:role="line"
                   id="tspan841">Base Model </tspan></text>
</g></g></g></g><g
         id="g845"><g
           id="g847"><g
             id="g849"
             clip-path="url(#clipPath853)"><g
               id="g855"><text
                 transform="translate(76.009998,26.159999)"
                 style="font-variant:normal;font-weight:normal;font-size:9.11999989px;font-family:'Open Sans';-inkscape-font-specification:OpenSans;writing-mode:lr-tb;fill:#ffffff;fill-opacity:1;fill-rule:nonzero;stroke:none"
                 id="text859"><tspan
                   x="0 2.62656 8.1168003 11.96544"
                   y="0"
                   sodipodi:role="line"
                   id="tspan857">(Pre</tspan></text>
</g></g></g></g><g
         id="g861"><g
           id="g863"><g
             id="g865"
             clip-path="url(#clipPath869)"><g
               id="g871"><text
                 transform="translate(93.049998,26.159999)"
                 style="font-variant:normal;font-weight:normal;font-size:9.11999989px;font-family:'Open Sans';-inkscape-font-specification:OpenSans;writing-mode:lr-tb;fill:#ffffff;fill-opacity:1;fill-rule:nonzero;stroke:none"
                 id="text875"><tspan
                   x="0"
                   y="0"
                   id="tspan873">-</tspan></text>
</g></g></g></g><g
         id="g877"><g
           id="g879"><g
             id="g881"
             clip-path="url(#clipPath885)"><g
               id="g887"><text
                 transform="translate(95.929998,26.159999)"
                 style="font-variant:normal;font-weight:normal;font-size:9.11999989px;font-family:'Open Sans';-inkscape-font-specification:OpenSans;writing-mode:lr-tb;fill:#ffffff;fill-opacity:1;fill-rule:nonzero;stroke:none"
                 id="text891"><tspan
                   x="0 3.11904 6.94944 11.9928 14.37312 19.881599 24.67872 30.187201"
                   y="0"
                   sodipodi:role="line"
                   id="tspan889">trained)</tspan></text>
</g></g></g></g><path
         d="M 171.602,0.941 C 171.602,0.422 172.02,0 172.539,0 h 75.641 c 0.519,0 0.941,0.422 0.941,0.941 v 33.637 c 0,0.524 -0.422,0.942 -0.941,0.942 h -75.641 c -0.519,0 -0.937,-0.418 -0.937,-0.942 z"
         style="fill:#0070c0;fill-opacity:1;fill-rule:evenodd;stroke:none"
         id="path893"
         inkscape:connector-curvature="0" /><g
         id="g895"><g
           id="g897"><g
             id="g899"
             clip-path="url(#clipPath903)"><g
               id="g905"><text
                 transform="translate(184.72999,20.759999)"
                 style="font-variant:normal;font-weight:normal;font-size:9.11999989px;font-family:'Open Sans';-inkscape-font-specification:OpenSans;writing-mode:lr-tb;fill:#ffffff;fill-opacity:1;fill-rule:nonzero;stroke:none"
                 id="text909"><tspan
                   x="0 6.7214398 11.74656 16.789921 22.298401 24.45072 32.613121 38.121601 43.648319 48.691681"
                   y="0"
                   sodipodi:role="line"
                   id="tspan907">Head Model</tspan></text>
</g></g></g></g><path
         d="m 115.199,74.738 c 0,-0.449 0.371,-0.816 0.821,-0.816 h 81.64 c 0.449,0 0.82,0.367 0.82,0.816 v 29.563 c 0,0.449 -0.371,0.82 -0.82,0.82 h -81.64 c -0.45,0 -0.821,-0.371 -0.821,-0.82 z"
         style="fill:#dc6154;fill-opacity:1;fill-rule:evenodd;stroke:none"
         id="path911"
         inkscape:connector-curvature="0" /><g
         id="g913"><g
           id="g915"><g
             id="g917"
             clip-path="url(#clipPath921)"><g
               id="g923"><text
                 transform="translate(127.27,92.589998)"
                 style="font-variant:normal;font-weight:normal;font-size:9.11999989px;font-family:'Open Sans';-inkscape-font-specification:OpenSans;writing-mode:lr-tb;fill:#ffffff;fill-opacity:1;fill-rule:nonzero;stroke:none"
                 id="text927"><tspan
                   x="0 5.0433602 9.8313599 14.61936 16.534559 22.280161 27.788639 33.315361 37.875359 42.909599 46.740002 49.859039 54.902401"
                   y="0"
                   sodipodi:role="line"
                   id="tspan925">TFL Converter</tspan></text>
</g></g></g></g><path
         d="m 115.199,129.551 c 0,-0.5 0.41,-0.91 0.91,-0.91 h 81.461 c 0.5,0 0.91,0.41 0.91,0.91 v 32.738 c 0,0.5 -0.41,0.91 -0.91,0.91 h -81.461 c -0.5,0 -0.91,-0.41 -0.91,-0.91 z"
         style="fill:#0070c0;fill-opacity:1;fill-rule:evenodd;stroke:none"
         id="path929"
         inkscape:connector-curvature="0" /><g
         id="g931"><g
           id="g933"><g
             id="g935"
             clip-path="url(#clipPath939)"><g
               id="g941"><text
                 transform="translate(135.46,143.64)"
                 style="font-variant:normal;font-weight:normal;font-size:9.14400005px;font-family:'Open Sans';-inkscape-font-specification:OpenSans;writing-mode:lr-tb;fill:#ffffff;fill-opacity:1;fill-rule:nonzero;stroke:none"
                 id="text945"><tspan
                   x="0 7.1963282"
                   y="0"
                   sodipodi:role="line"
                   id="tspan943">On</tspan></text>
</g></g></g></g><g
         id="g947"><g
           id="g949"><g
             id="g951"
             clip-path="url(#clipPath955)"><g
               id="g957"><text
                 transform="translate(148.18,143.64)"
                 style="font-variant:normal;font-weight:normal;font-size:9.14400005px;font-family:'Open Sans';-inkscape-font-specification:OpenSans;writing-mode:lr-tb;fill:#ffffff;fill-opacity:1;fill-rule:nonzero;stroke:none"
                 id="text961"><tspan
                   x="0"
                   y="0"
                   id="tspan959">-</tspan></text>
</g></g></g></g><g
         id="g963"><g
           id="g965"><g
             id="g967"
             clip-path="url(#clipPath971)"><g
               id="g973"><text
                 transform="translate(151.06,143.64)"
                 style="font-variant:normal;font-weight:normal;font-size:9.14400005px;font-family:'Open Sans';-inkscape-font-specification:OpenSans;writing-mode:lr-tb;fill:#ffffff;fill-opacity:1;fill-rule:nonzero;stroke:none"
                 id="text977"><tspan
                   x="0 5.5138321 10.552176 15.124176 17.483328 21.799295 26.837641"
                   y="0"
                   sodipodi:role="line"
                   id="tspan975">device </tspan></text>
</g></g></g></g><g
         id="g979"><g
           id="g981"><g
             id="g983"
             clip-path="url(#clipPath987)"><g
               id="g989"><text
                 transform="translate(143.38,154.46)"
                 style="font-variant:normal;font-weight:normal;font-size:9.11999989px;font-family:'Open Sans';-inkscape-font-specification:OpenSans;writing-mode:lr-tb;fill:#ffffff;fill-opacity:1;fill-rule:nonzero;stroke:none"
                 id="text993"><tspan
                   x="0 8.1532803 13.66176 19.18848 24.23184"
                   y="0"
                   sodipodi:role="line"
                   id="tspan991">Model</tspan></text>
</g></g></g></g><path
         d="m 115.199,190.191 c 0,-0.461 0.371,-0.832 0.832,-0.832 h 81.617 c 0.461,0 0.832,0.371 0.832,0.832 v 29.778 c 0,0.461 -0.371,0.832 -0.832,0.832 h -81.617 c -0.461,0 -0.832,-0.371 -0.832,-0.832 z"
         style="fill:#dc6154;fill-opacity:1;fill-rule:evenodd;stroke:none"
         id="path995"
         inkscape:connector-curvature="0" /><g
         id="g997"><g
           id="g999"><g
             id="g1001"
             clip-path="url(#clipPath1005)"><g
               id="g1007"><text
                 transform="translate(133.51,208.17999)"
                 style="font-variant:normal;font-weight:normal;font-size:9.11999989px;font-family:'Open Sans';-inkscape-font-specification:OpenSans;writing-mode:lr-tb;fill:#ffffff;fill-opacity:1;fill-rule:nonzero;stroke:none"
                 id="text1011"><tspan
                   x="0 5.0433602 9.8769598 14.69232 16.607519 21.42288 23.8032 29.339041 33.1968 38.267521 42.116161"
                   y="0"
                   sodipodi:role="line"
                   id="tspan1009">TFL Library</tspan></text>
</g></g></g></g><path
         d="m 115.199,240.672 c 0,-0.5 0.41,-0.91 0.91,-0.91 h 81.461 c 0.5,0 0.91,0.41 0.91,0.91 v 32.738 c 0,0.5 -0.41,0.91 -0.91,0.91 h -81.461 c -0.5,0 -0.91,-0.41 -0.91,-0.91 z"
         style="fill:#0070c0;fill-opacity:1;fill-rule:evenodd;stroke:none"
         id="path1013"
         inkscape:connector-curvature="0" /><g
         id="g1015"><g
           id="g1017"><g
             id="g1019"
             clip-path="url(#clipPath1023)"><g
               id="g1025"><text
                 transform="translate(133.03,260.20999)"
                 style="font-variant:normal;font-weight:normal;font-size:9.11999989px;font-family:'Open Sans';-inkscape-font-specification:OpenSans;writing-mode:lr-tb;fill:#ffffff;fill-opacity:1;fill-rule:nonzero;stroke:none"
                 id="text1029"><tspan
                   x="0 5.7638402 11.3088 16.85376 19.234079 21.614401 25.955521 31.026239 34.136162 36.5256 42.06144"
                   y="0"
                   sodipodi:role="line"
                   id="tspan1027">Application</tspan></text>
</g></g></g></g><path
         d="m 233.039,189.23 c 0,-0.46 0.371,-0.832 0.832,-0.832 h 72.258 c 0.461,0 0.832,0.372 0.832,0.832 v 29.782 c 0,0.457 -0.371,0.828 -0.832,0.828 h -72.258 c -0.461,0 -0.832,-0.371 -0.832,-0.828 z"
         style="fill:#7f7f7f;fill-opacity:1;fill-rule:evenodd;stroke:none"
         id="path1031"
         inkscape:connector-curvature="0" /><g
         id="g1033"><g
           id="g1035"><g
             id="g1037"
             clip-path="url(#clipPath1041)"><g
               id="g1043"><text
                 transform="translate(256.38999,201.88999)"
                 style="font-variant:normal;font-weight:normal;font-size:9.11999989px;font-family:'Open Sans';-inkscape-font-specification:OpenSans;writing-mode:lr-tb;fill:#ffffff;fill-opacity:1;fill-rule:nonzero;stroke:none"
                 id="text1047"><tspan
                   x="0 5.0433602 9.8313599 11.98368 16.771681 19.152 22.27104"
                   y="0"
                   sodipodi:role="line"
                   id="tspan1045">TF Lite</tspan></text>
</g></g></g></g><g
         id="g1049"><g
           id="g1051"><g
             id="g1053"
             clip-path="url(#clipPath1057)"><g
               id="g1059"><text
                 transform="translate(246.78999,212.68999)"
                 style="font-variant:normal;font-weight:normal;font-size:9.11999989px;font-family:'Open Sans';-inkscape-font-specification:OpenSans;writing-mode:lr-tb;fill:#ffffff;fill-opacity:1;fill-rule:nonzero;stroke:none"
                 id="text1063"><tspan
                   x="0 2.61744 8.1259203 11.24496 16.288321 20.118719 25.627199 29.4576 34.500961 37.619999 42.663361"
                   y="0"
                   sodipodi:role="line"
                   id="tspan1061">Interpreter</tspan></text>
</g></g></g></g><path
         d="m 233.039,75.211 c 0,-0.449 0.359,-0.813 0.813,-0.813 h 67.976 c 0.453,0 0.813,0.364 0.813,0.813 v 29.098 c 0,0.453 -0.36,0.812 -0.813,0.812 h -67.976 c -0.454,0 -0.813,-0.359 -0.813,-0.812 z"
         style="fill:#7f7f7f;fill-opacity:1;fill-rule:evenodd;stroke:none"
         id="path1065"
         inkscape:connector-curvature="0" /><g
         id="g1067"><g
           id="g1069"><g
             id="g1071"
             clip-path="url(#clipPath1075)"><g
               id="g1077"><text
                 transform="translate(254.25999,87.429998)"
                 style="font-variant:normal;font-weight:normal;font-size:9.11999989px;font-family:'Open Sans';-inkscape-font-specification:OpenSans;writing-mode:lr-tb;fill:#ffffff;fill-opacity:1;fill-rule:nonzero;stroke:none"
                 id="text1081"><tspan
                   x="0 5.0433602 9.8313599 11.98368 16.771681 19.152 22.27104 27.3144"
                   y="0"
                   sodipodi:role="line"
                   id="tspan1079">TF Lite </tspan></text>
</g></g></g></g><g
         id="g1083"><g
           id="g1085"><g
             id="g1087"
             clip-path="url(#clipPath1091)"><g
               id="g1093"><text
                 transform="translate(246.81999,98.229998)"
                 style="font-variant:normal;font-weight:normal;font-size:9.11999989px;font-family:'Open Sans';-inkscape-font-specification:OpenSans;writing-mode:lr-tb;fill:#ffffff;fill-opacity:1;fill-rule:nonzero;stroke:none"
                 id="text1097"><tspan
                   x="0 5.7456002 11.25408 16.7808 21.340799 26.37504 30.205441 33.324478 38.36784"
                   y="0"
                   sodipodi:role="line"
                   id="tspan1095">Converter</tspan></text>
</g></g></g></g><g
         id="g1099"><g
           id="g1101"><g
             id="g1103"
             clip-path="url(#clipPath1107)"><g
               id="g1109"><path
                 d="m 98.379,35.781 0.043,0.918 0.117,0.942 0.199,0.929 0.274,0.918 0.347,0.91 0.411,0.903 0.492,0.89 0.539,0.868 0.597,0.851 0.661,0.84 0.722,0.82 0.77,0.801 0.808,0.77 0.871,0.757 1.86,1.422 2.019,1.309 2.161,1.172 2.281,1.039 2.371,0.879 1.226,0.371 1.25,0.34 1.25,0.281 1.262,0.23 1.281,0.188 1.289,0.141 1.301,0.082 1.278,0.027 1.281,0.031 h -0.02 l 1.27,0.09 -0.031,-0.012 1.269,0.141 h -0.019 l 1.261,0.18 -0.019,-0.008 1.258,0.238 -0.02,-0.008 1.231,0.289 -0.02,-0.011 1.23,0.332 h -0.019 l 1.199,0.371 -0.019,-0.012 2.339,0.859 -0.031,-0.007 2.25,1.019 -0.027,-0.019 2.129,1.16 -0.039,-0.024 1.988,1.293 -0.031,-0.031 1.832,1.398 -0.031,-0.007 0.851,0.73 -0.012,-0.012 0.801,0.75 -0.019,-0.007 0.75,0.777 -0.012,-0.02 0.691,0.801 -0.011,-0.019 0.64,0.82 -0.008,-0.02 0.579,0.829 -0.008,-0.02 0.527,0.852 -0.051,-0.102 0.481,1.352 0.941,-0.332 -0.488,-1.411 -0.57,-0.898 -0.602,-0.859 -0.66,-0.84 -0.719,-0.821 -0.769,-0.8 -0.813,-0.77 -0.867,-0.75 -1.863,-1.422 -2.02,-1.308 -2.16,-1.18 L 138.59,56.93 136.219,56.051 135,55.68 133.762,55.34 132.5,55.059 131.23,54.82 129.949,54.641 128.66,54.5 l -1.289,-0.078 -2.562,-0.063 h 0.019 l -1.269,-0.089 0.019,0.011 -1.269,-0.14 h 0.019 l -1.258,-0.18 h 0.02 l -1.25,-0.231 h 0.019 l -1.238,-0.281 0.027,0.012 -1.226,-0.332 h 0.019 l -1.211,-0.367 0.032,0.008 -2.34,-0.872 0.027,0.024 -2.25,-1.024 0.031,0.012 -2.128,-1.148 0.039,0.019 -1.993,-1.293 0.032,0.024 -1.828,-1.403 0.027,0.032 -0.848,-0.75 0.008,0.019 -0.801,-0.762 0.024,0.024 -0.75,-0.781 0.008,0.007 -0.692,-0.796 0.012,0.019 -0.641,-0.82 0.012,0.027 -0.582,-0.84 0.012,0.024 -0.532,-0.84 0.02,0.019 -0.469,-0.851 0.02,0.031 -0.399,-0.871 0.008,0.031 -0.34,-0.883 0.02,0.043 -0.27,-0.89 0.012,0.039 -0.18,-0.891 v 0.039 l -0.121,-0.898 0.012,0.039 -0.043,-0.891 z m 50.402,33.239 4.489,4.98 1.3,-6.578 z"
                 style="fill:#000000;fill-opacity:1;fill-rule:nonzero;stroke:none"
                 id="path1111"
                 inkscape:connector-curvature="0" /></g></g></g></g><g
         id="g1113"><g
           id="g1115"><g
             id="g1117"
             clip-path="url(#clipPath1121)"><g
               id="g1123"><path
                 d="m 210.82,35.539 -0.039,0.922 -0.121,0.937 -0.199,0.93 -0.262,0.934 -0.34,0.918 -0.418,0.91 -0.472,0.89 -0.528,0.872 -0.589,0.859 -0.661,0.848 -0.703,0.82 -0.758,0.801 -0.8,0.781 -0.86,0.758 -1.832,1.422 -1.988,1.32 -2.141,1.18 -2.238,1.039 -2.34,0.89 -1.222,0.379 -1.219,0.332 -1.238,0.278 -1.25,0.242 -1.25,0.187 -1.282,0.141 -1.269,0.082 -1.262,0.027 -1.258,0.032 h 0.028 l -1.258,0.082 h 0.019 l -1.25,0.136 0.02,-0.008 -1.238,0.192 h 0.019 l -1.23,0.226 h 0.019 l -1.219,0.282 h 0.02 L 175,56.5 l 0.02,-0.012 -1.18,0.383 0.019,-0.012 -2.32,0.871 0.039,-0.011 -2.207,1.019 0.027,-0.008 -2.097,1.161 0.027,-0.02 -1.957,1.301 0.027,-0.031 -1.796,1.41 0.019,-0.02 -0.832,0.739 0.012,-0.008 -0.781,0.75 0.011,-0.012 -0.742,0.781 0.02,-0.011 -0.688,0.8 0.008,-0.019 -0.629,0.82 0.012,-0.019 -0.582,0.828 0.019,-0.02 -0.519,0.852 0.05,-0.09 -0.48,1.379 -0.949,-0.332 0.5,-1.43 0.551,-0.91 0.597,-0.859 0.653,-0.84 0.707,-0.821 0.75,-0.808 0.812,-0.77 0.848,-0.761 1.84,-1.43 1.992,-1.32 2.129,-1.18 2.242,-1.039 2.348,-0.879 1.21,-0.383 1.231,-0.328 1.23,-0.289 1.25,-0.242 1.258,-0.192 1.27,-0.129 1.281,-0.089 1.262,-0.032 1.258,-0.027 h -0.032 L 186,54.129 h -0.02 L 187.23,54 h -0.019 l 1.238,-0.191 -0.019,0.011 1.23,-0.242 -0.019,0.012 1.218,-0.289 -0.019,0.008 1.199,-0.329 -0.019,0.008 1.199,-0.367 h -0.028 l 2.309,-0.871 -0.039,0.02 2.219,-1.032 -0.032,0.024 2.102,-1.16 -0.039,0.019 1.961,-1.301 -0.031,0.02 1.808,-1.399 -0.027,0.02 0.828,-0.742 -0.012,0.011 0.782,-0.761 -0.008,0.011 0.738,-0.781 -0.012,0.02 0.692,-0.797 -0.02,0.019 0.641,-0.832 -0.02,0.02 0.578,-0.84 -0.019,0.031 0.519,-0.851 -0.007,0.031 0.449,-0.871 -0.012,0.031 0.402,-0.879 -0.019,0.039 0.328,-0.89 -0.012,0.039 0.262,-0.891 -0.012,0.031 0.192,-0.89 -0.008,0.031 0.117,-0.898 v 0.046 L 209.82,35.5 Z m -49.64,33.41 -4.461,5.012 -1.328,-6.582 z"
                 style="fill:#000000;fill-opacity:1;fill-rule:nonzero;stroke:none"
                 id="path1125"
                 inkscape:connector-curvature="0" /></g></g></g></g><path
         d="m 156.219,104.16 v 19.52 h 1 v -19.52 z m -2.5,18.52 3,6 3,-6 z"
         style="fill:#000000;fill-opacity:1;fill-rule:nonzero;stroke:none"
         id="path1127"
         inkscape:connector-curvature="0" /><path
         d="m 157.219,239.809 v -14.008 h -1 v 14.008 z m 2.5,-13.008 -3,-6 -3,6 z"
         style="fill:#000000;fill-opacity:1;fill-rule:nonzero;stroke:none"
         id="path1129"
         inkscape:connector-curvature="0" /><path
         d="m 198.48,89.02 29.59,0.199 v 1 L 198.48,90.02 Z m 28.61,-2.301 5.98,3.043 -6.019,2.957 z"
         style="fill:#000000;fill-opacity:1;fill-rule:nonzero;stroke:none"
         id="path1131"
         inkscape:connector-curvature="0" /><path
         d="m 198.48,203.738 h 29.59 v 1 h -29.59 z m 28.59,-2.5 6,3 -6,3 z"
         style="fill:#000000;fill-opacity:1;fill-rule:nonzero;stroke:none"
         id="path1133"
         inkscape:connector-curvature="0" /><path
         d="m 156.219,184.289 v -16.09 h 1 v 16.09 z m 3.5,-1 -3,6 -3,-6 z m -6,-14.09 3,-6 3,6 z"
         style="fill:#000000;fill-opacity:1;fill-rule:nonzero;stroke:none"
         id="path1135"
         inkscape:connector-curvature="0" /><g
         id="g1137"
         transform="scale(1,-1)"><path
           d="M 115.238,-145.922 H 0"
           style="fill:none;stroke:#a6a6a6;stroke-width:1.44000006;stroke-linecap:butt;stroke-linejoin:miter;stroke-miterlimit:10;stroke-dasharray:11.52, 4.32, 1.44, 4.32;stroke-dashoffset:0;stroke-opacity:1"
           id="path1139"
           inkscape:connector-curvature="0" /></g><g
         id="g1141"
         transform="scale(1,-1)"><path
           d="M 320.309,-140.879 H 197.52"
           style="fill:none;stroke:#a6a6a6;stroke-width:1.44000006;stroke-linecap:butt;stroke-linejoin:miter;stroke-miterlimit:10;stroke-dasharray:11.52, 4.32, 1.44, 4.32;stroke-dashoffset:0;stroke-opacity:1"
           id="path1143"
           inkscape:connector-curvature="0" /></g><g
         id="g1145"><g
           id="g1147"><g
             id="g1149"
             clip-path="url(#clipPath1153)"><g
               id="g1155"><text
                 transform="translate(21.139999,134.57)"
                 style="font-variant:normal;font-weight:normal;font-size:10.07999992px;font-family:'Open Sans';-inkscape-font-specification:OpenSans;writing-mode:lr-tb;fill:#000000;fill-opacity:1;fill-rule:nonzero;stroke:none"
                 id="text1159"><tspan
                   x="0 9.3240004 15.35184 19.43424 24.71616 29.524321 33.082561 38.62656 42.215038 44.835838 50.833439"
                   y="0"
                   sodipodi:role="line"
                   id="tspan1157">Workstation</tspan></text>
</g></g></g></g><g
         id="g1161"><g
           id="g1163"><g
             id="g1165"
             clip-path="url(#clipPath1169)"><g
               id="g1171"><text
                 transform="translate(13.25,162.41)"
                 style="font-variant:normal;font-weight:normal;font-size:10.07999992px;font-family:'Open Sans';-inkscape-font-specification:OpenSans;writing-mode:lr-tb;fill:#000000;fill-opacity:1;fill-rule:nonzero;stroke:none"
                 id="text1175"><tspan
                   x="0 6.4612799 12.68064 18.91008 22.982401 28.98 31.6008 37.830238 39.97728 47.406239 53.15184 58.191841 60.802559 65.600639"
                   y="0"
                   sodipodi:role="line"
                   id="tspan1173">Android Device</tspan></text>
</g></g></g></g></g></g></svg>