<?xml version="1.0" encoding="UTF-8" standalone="no"?>
<!-- Created with Inkscape (http://www.inkscape.org/) -->

<svg
   xmlns:dc="http://purl.org/dc/elements/1.1/"
   xmlns:cc="http://creativecommons.org/ns#"
   xmlns:rdf="http://www.w3.org/1999/02/22-rdf-syntax-ns#"
   xmlns:svg="http://www.w3.org/2000/svg"
   xmlns="http://www.w3.org/2000/svg"
   xmlns:sodipodi="http://sodipodi.sourceforge.net/DTD/sodipodi-0.dtd"
   xmlns:inkscape="http://www.inkscape.org/namespaces/inkscape"
   version="1.1"
   id="svg907"
   xml:space="preserve"
   width="427.07999"
   height="365.75998"
   viewBox="0 0 427.07999 365.75998"
   sodipodi:docname="par_main_banner.svg"
   inkscape:version="0.92.2 (5c3e80d, 2017-08-06)"><metadata
     id="metadata913"><rdf:RDF><cc:Work
         rdf:about=""><dc:format>image/svg+xml</dc:format><dc:type
           rdf:resource="http://purl.org/dc/dcmitype/StillImage" /><dc:title></dc:title></cc:Work></rdf:RDF></metadata><defs
     id="defs911"><clipPath
       clipPathUnits="userSpaceOnUse"
       id="clipPath923"><path
         d="M 0,1.2207e-4 H 960 V 540.00012 H 0 Z"
         id="path921"
         inkscape:connector-curvature="0"
         style="clip-rule:evenodd" /></clipPath><clipPath
       clipPathUnits="userSpaceOnUse"
       id="clipPath935"><path
         d="M 1.4305e-5,0 H 960.00001 V 540 H 1.4305e-5 Z"
         id="path933"
         inkscape:connector-curvature="0"
         style="clip-rule:evenodd" /></clipPath><clipPath
       clipPathUnits="userSpaceOnUse"
       id="clipPath947"><path
         d="M 1.4305e-5,0 H 960.00001 V 540 H 1.4305e-5 Z"
         id="path945"
         inkscape:connector-curvature="0"
         style="clip-rule:evenodd" /></clipPath><clipPath
       clipPathUnits="userSpaceOnUse"
       id="clipPath959"><path
         d="M 1.4305e-5,0 H 960.00001 V 540 H 1.4305e-5 Z"
         id="path957"
         inkscape:connector-curvature="0"
         style="clip-rule:evenodd" /></clipPath><clipPath
       clipPathUnits="userSpaceOnUse"
       id="clipPath971"><path
         d="M 1.4305e-5,0 H 960.00001 V 540 H 1.4305e-5 Z"
         id="path969"
         inkscape:connector-curvature="0"
         style="clip-rule:evenodd" /></clipPath><clipPath
       clipPathUnits="userSpaceOnUse"
       id="clipPath985"><path
         d="M 1.4305e-5,0 H 960.00001 V 540 H 1.4305e-5 Z"
         id="path983"
         inkscape:connector-curvature="0"
         style="clip-rule:evenodd" /></clipPath><clipPath
       clipPathUnits="userSpaceOnUse"
       id="clipPath999"><path
         d="M 1.4305e-5,0 H 960.00001 V 540 H 1.4305e-5 Z"
         id="path997"
         inkscape:connector-curvature="0"
         style="clip-rule:evenodd" /></clipPath><clipPath
       clipPathUnits="userSpaceOnUse"
       id="clipPath1013"><path
         d="M 1.4305e-5,0 H 960.00001 V 540 H 1.4305e-5 Z"
         id="path1011"
         inkscape:connector-curvature="0"
         style="clip-rule:evenodd" /></clipPath><clipPath
       clipPathUnits="userSpaceOnUse"
       id="clipPath1025"><path
         d="M 1.4305e-5,0 H 960.00001 V 540 H 1.4305e-5 Z"
         id="path1023"
         inkscape:connector-curvature="0"
         style="clip-rule:evenodd" /></clipPath><clipPath
       clipPathUnits="userSpaceOnUse"
       id="clipPath1037"><path
         d="M 1.4305e-5,0 H 960.00001 V 540 H 1.4305e-5 Z"
         id="path1035"
         inkscape:connector-curvature="0"
         style="clip-rule:evenodd" /></clipPath><clipPath
       clipPathUnits="userSpaceOnUse"
       id="clipPath1049"><path
         d="M 1.4305e-5,0 H 960.00001 V 540 H 1.4305e-5 Z"
         id="path1047"
         inkscape:connector-curvature="0"
         style="clip-rule:evenodd" /></clipPath><clipPath
       clipPathUnits="userSpaceOnUse"
       id="clipPath1063"><path
         d="M 1.4305e-5,0 H 960.00001 V 540 H 1.4305e-5 Z"
         id="path1061"
         inkscape:connector-curvature="0"
         style="clip-rule:evenodd" /></clipPath><clipPath
       clipPathUnits="userSpaceOnUse"
       id="clipPath1077"><path
         d="M 1.4305e-5,0 H 960.00001 V 540 H 1.4305e-5 Z"
         id="path1075"
         inkscape:connector-curvature="0"
         style="clip-rule:evenodd" /></clipPath><clipPath
       clipPathUnits="userSpaceOnUse"
       id="clipPath1091"><path
         d="M 1.4305e-5,0 H 960.00001 V 540 H 1.4305e-5 Z"
         id="path1089"
         inkscape:connector-curvature="0"
         style="clip-rule:evenodd" /></clipPath><clipPath
       clipPathUnits="userSpaceOnUse"
       id="clipPath1103"><path
         d="M 1.4305e-5,0 H 960.00001 V 540 H 1.4305e-5 Z"
         id="path1101"
         inkscape:connector-curvature="0"
         style="clip-rule:evenodd" /></clipPath><clipPath
       clipPathUnits="userSpaceOnUse"
       id="clipPath1117"><path
         d="M 1.4305e-5,0 H 960.00001 V 540 H 1.4305e-5 Z"
         id="path1115"
         inkscape:connector-curvature="0"
         style="clip-rule:evenodd" /></clipPath><clipPath
       clipPathUnits="userSpaceOnUse"
       id="clipPath1129"><path
         d="M 1.4305e-5,0 H 960.00001 V 540 H 1.4305e-5 Z"
         id="path1127"
         inkscape:connector-curvature="0"
         style="clip-rule:evenodd" /></clipPath><clipPath
       clipPathUnits="userSpaceOnUse"
       id="clipPath1141"><path
         d="M 0,540 H 960 V 1.2207e-4 L 0,6.1035e-5"
         id="path1139"
         inkscape:connector-curvature="0"
         style="clip-rule:evenodd" /></clipPath><clipPath
       clipPathUnits="userSpaceOnUse"
       id="clipPath1151"><path
         d="M -6.1035e-5,540 H 960 V 2.4414e-4 L 0,1.8311e-4"
         id="path1149"
         inkscape:connector-curvature="0"
         style="clip-rule:evenodd" /></clipPath><clipPath
       clipPathUnits="userSpaceOnUse"
       id="clipPath1179"><path
         d="M 1.4305e-5,0 H 960.00001 V 540 H 1.4305e-5 Z"
         id="path1177"
         inkscape:connector-curvature="0"
         style="clip-rule:evenodd" /></clipPath><clipPath
       clipPathUnits="userSpaceOnUse"
       id="clipPath1191"><path
         d="M 1.4305e-5,0 H 960.00001 V 540 H 1.4305e-5 Z"
         id="path1189"
         inkscape:connector-curvature="0"
         style="clip-rule:evenodd" /></clipPath></defs><sodipodi:namedview
     pagecolor="#ffffff"
     bordercolor="#666666"
     borderopacity="1"
     objecttolerance="10"
     gridtolerance="10"
     guidetolerance="10"
     inkscape:pageopacity="0"
     inkscape:pageshadow="2"
     inkscape:window-width="1920"
     inkscape:window-height="1001"
     id="namedview909"
     showgrid="false"
     fit-margin-top="0"
     fit-margin-left="0"
     fit-margin-right="0"
     fit-margin-bottom="0"
     inkscape:zoom="1.5909903"
     inkscape:cx="313.27562"
     inkscape:cy="302.77858"
     inkscape:window-x="-9"
     inkscape:window-y="-9"
     inkscape:window-maximized="1"
     inkscape:current-layer="g915" /><g
     id="g915"
     inkscape:groupmode="layer"
     inkscape:label="Presentation1"
     transform="matrix(1.3333333,0,0,-1.3333333,-409.59999,536.31999)"><path
       d="m 367.92,401.3 c 0,0.52 0.42,0.94 0.94,0.94 h 81.4 c 0.52,0 0.94,-0.42 0.94,-0.94 v -33.64 c 0,-0.52 -0.42,-0.94 -0.94,-0.94 h -81.4 c -0.52,0 -0.94,0.42 -0.94,0.94 z"
       style="fill:#0070c0;fill-opacity:1;fill-rule:evenodd;stroke:none"
       id="path927"
       inkscape:connector-curvature="0" /><g
       id="g929"><g
         id="g931"
         clip-path="url(#clipPath935)"><text
           transform="matrix(1,0,0,-1,384.89,386.88)"
           style="font-variant:normal;font-weight:normal;font-size:9.11999989px;font-family:'Open Sans';-inkscape-font-specification:OpenSans;writing-mode:lr-tb;fill:#ffffff;fill-opacity:1;fill-rule:nonzero;stroke:none"
           id="text939"><tspan
             x="0 5.9918399 11.0352 15.35808 20.40144 22.56288 30.725281 36.233761 41.7696 46.812962 49.2024"
             y="0"
             sodipodi:role="line"
             id="tspan937">Base Model </tspan></text>
</g></g><g
       id="g941"><g
         id="g943"
         clip-path="url(#clipPath947)"><text
           transform="matrix(1,0,0,-1,383.21,376.08)"
           style="font-variant:normal;font-weight:normal;font-size:9.11999989px;font-family:'Open Sans';-inkscape-font-specification:OpenSans;writing-mode:lr-tb;fill:#ffffff;fill-opacity:1;fill-rule:nonzero;stroke:none"
           id="text951"><tspan
             x="0 2.63568 8.1441603 11.97456"
             y="0"
             sodipodi:role="line"
             id="tspan949">(Pre</tspan></text>
</g></g><g
       id="g953"><g
         id="g955"
         clip-path="url(#clipPath959)"><text
           transform="matrix(1,0,0,-1,400.25,376.08)"
           style="font-variant:normal;font-weight:normal;font-size:9.11999989px;font-family:'Open Sans';-inkscape-font-specification:OpenSans;writing-mode:lr-tb;fill:#ffffff;fill-opacity:1;fill-rule:nonzero;stroke:none"
           id="text963"><tspan
             x="0"
             y="0"
             id="tspan961">-</tspan></text>
</g></g><g
       id="g965"><g
         id="g967"
         clip-path="url(#clipPath971)"><text
           transform="matrix(1,0,0,-1,403.13,376.08)"
           style="font-variant:normal;font-weight:normal;font-size:9.11999989px;font-family:'Open Sans';-inkscape-font-specification:OpenSans;writing-mode:lr-tb;fill:#ffffff;fill-opacity:1;fill-rule:nonzero;stroke:none"
           id="text975"><tspan
             x="0 3.11904 6.94944 11.9928 14.38224 19.899839 24.69696 30.21456"
             y="0"
             sodipodi:role="line"
             id="tspan973">trained)</tspan></text>
</g></g><path
       d="m 478.8,401.3 c 0,0.52 0.42,0.94 0.94,0.94 h 75.64 c 0.52,0 0.94,-0.42 0.94,-0.94 v -33.64 c 0,-0.52 -0.42,-0.94 -0.94,-0.94 h -75.64 c -0.52,0 -0.94,0.42 -0.94,0.94 z"
       style="fill:#0070c0;fill-opacity:1;fill-rule:evenodd;stroke:none"
       id="path977"
       inkscape:connector-curvature="0" /><g
       id="g979"><g
         id="g981"
         clip-path="url(#clipPath985)"><text
           transform="matrix(1,0,0,-1,491.93,381.48)"
           style="font-variant:normal;font-weight:normal;font-size:9.11999989px;font-family:'Open Sans';-inkscape-font-specification:OpenSans;writing-mode:lr-tb;fill:#ffffff;fill-opacity:1;fill-rule:nonzero;stroke:none"
           id="text989"><tspan
             x="0 6.7305598 11.75568 16.79904 22.316641 24.478081 32.64048 38.14896 43.684799 48.728161"
             y="0"
             sodipodi:role="line"
             id="tspan987">Head Model</tspan></text>
</g></g><path
       d="m 422.4,327.5 c 0,0.45 0.37,0.82 0.82,0.82 h 81.64 c 0.45,0 0.82,-0.37 0.82,-0.82 v -29.56 c 0,-0.45 -0.37,-0.82 -0.82,-0.82 h -81.64 c -0.45,0 -0.82,0.37 -0.82,0.82 z"
       style="fill:#dc6154;fill-opacity:1;fill-rule:evenodd;stroke:none"
       id="path991"
       inkscape:connector-curvature="0" /><g
       id="g993"><g
         id="g995"
         clip-path="url(#clipPath999)"><text
           transform="matrix(1,0,0,-1,434.47,309.65)"
           style="font-variant:normal;font-weight:normal;font-size:9.11999989px;font-family:'Open Sans';-inkscape-font-specification:OpenSans;writing-mode:lr-tb;fill:#ffffff;fill-opacity:1;fill-rule:nonzero;stroke:none"
           id="text1003"><tspan
             x="0 5.0433602 9.8313599 14.61936 16.54368 22.298401 27.806881 33.34272 37.911839 42.946079 46.776482 49.895519 54.938881"
             y="0"
             sodipodi:role="line"
             id="tspan1001">TFL Converter</tspan></text>
</g></g><path
       d="m 422.4,272.69 c 0,0.5 0.41,0.91 0.91,0.91 h 81.46 c 0.5,0 0.91,-0.41 0.91,-0.91 v -32.74 c 0,-0.5 -0.41,-0.91 -0.91,-0.91 h -81.46 c -0.5,0 -0.91,0.41 -0.91,0.91 z"
       style="fill:#0070c0;fill-opacity:1;fill-rule:evenodd;stroke:none"
       id="path1005"
       inkscape:connector-curvature="0" /><g
       id="g1007"><g
         id="g1009"
         clip-path="url(#clipPath1013)"><text
           transform="matrix(1,0,0,-1,442.66,258.6)"
           style="font-variant:normal;font-weight:normal;font-size:9.14400005px;font-family:'Open Sans';-inkscape-font-specification:OpenSans;writing-mode:lr-tb;fill:#ffffff;fill-opacity:1;fill-rule:nonzero;stroke:none"
           id="text1017"><tspan
             x="0 7.199976"
             y="0"
             sodipodi:role="line"
             id="tspan1015">On</tspan></text>
</g></g><g
       id="g1019"><g
         id="g1021"
         clip-path="url(#clipPath1025)"><text
           transform="matrix(1,0,0,-1,455.38,258.6)"
           style="font-variant:normal;font-weight:normal;font-size:9.14400005px;font-family:'Open Sans';-inkscape-font-specification:OpenSans;writing-mode:lr-tb;fill:#ffffff;fill-opacity:1;fill-rule:nonzero;stroke:none"
           id="text1029"><tspan
             x="0"
             y="0"
             id="tspan1027">-</tspan></text>
</g></g><g
       id="g1031"><g
         id="g1033"
         clip-path="url(#clipPath1037)"><text
           transform="matrix(1,0,0,-1,458.26,258.6)"
           style="font-variant:normal;font-weight:normal;font-size:9.14400005px;font-family:'Open Sans';-inkscape-font-specification:OpenSans;writing-mode:lr-tb;fill:#ffffff;fill-opacity:1;fill-rule:nonzero;stroke:none"
           id="text1041"><tspan
             x="0 5.5229759 10.56132 15.142464 17.510759 21.826729 26.865072"
             y="0"
             sodipodi:role="line"
             id="tspan1039">device </tspan></text>
</g></g><g
       id="g1043"><g
         id="g1045"
         clip-path="url(#clipPath1049)"><text
           transform="matrix(1,0,0,-1,450.58,247.78)"
           style="font-variant:normal;font-weight:normal;font-size:9.11999989px;font-family:'Open Sans';-inkscape-font-specification:OpenSans;writing-mode:lr-tb;fill:#ffffff;fill-opacity:1;fill-rule:nonzero;stroke:none"
           id="text1053"><tspan
             x="0 8.1624002 13.67088 19.20672 24.25008"
             y="0"
             sodipodi:role="line"
             id="tspan1051">Model</tspan></text>
</g></g><path
       d="m 422.4,212.05 c 0,0.46 0.37,0.83 0.83,0.83 h 81.62 c 0.46,0 0.83,-0.37 0.83,-0.83 v -29.78 c 0,-0.46 -0.37,-0.83 -0.83,-0.83 h -81.62 c -0.46,0 -0.83,0.37 -0.83,0.83 z"
       style="fill:#dc6154;fill-opacity:1;fill-rule:evenodd;stroke:none"
       id="path1055"
       inkscape:connector-curvature="0" /><g
       id="g1057"><g
         id="g1059"
         clip-path="url(#clipPath1063)"><text
           transform="matrix(1,0,0,-1,440.71,194.06)"
           style="font-variant:normal;font-weight:normal;font-size:9.11999989px;font-family:'Open Sans';-inkscape-font-specification:OpenSans;writing-mode:lr-tb;fill:#ffffff;fill-opacity:1;fill-rule:nonzero;stroke:none"
           id="text1067"><tspan
             x="0 5.0433602 9.8769598 14.69232 16.61664 21.431999 23.82144 29.3664 33.224159 38.29488 42.14352"
             y="0"
             sodipodi:role="line"
             id="tspan1065">TFL Library</tspan></text>
</g></g><path
       d="m 422.4,161.57 c 0,0.5 0.41,0.91 0.91,0.91 h 81.46 c 0.5,0 0.91,-0.41 0.91,-0.91 v -32.74 c 0,-0.5 -0.41,-0.91 -0.91,-0.91 h -81.46 c -0.5,0 -0.91,0.41 -0.91,0.91 z"
       style="fill:#0070c0;fill-opacity:1;fill-rule:evenodd;stroke:none"
       id="path1069"
       inkscape:connector-curvature="0" /><g
       id="g1071"><g
         id="g1073"
         clip-path="url(#clipPath1077)"><text
           transform="matrix(1,0,0,-1,440.23,142.03)"
           style="font-variant:normal;font-weight:normal;font-size:9.11999989px;font-family:'Open Sans';-inkscape-font-specification:OpenSans;writing-mode:lr-tb;fill:#ffffff;fill-opacity:1;fill-rule:nonzero;stroke:none"
           id="text1081"><tspan
             x="0 5.7729602 11.32704 16.872 19.26144 21.650881 25.992001 31.062719 34.181759 36.571201 42.10704"
             y="0"
             sodipodi:role="line"
             id="tspan1079">Application</tspan></text>
</g></g><path
       d="m 529.44,212.05 c 0,0.46 0.37,0.83 0.83,0.83 h 72.5 c 0.46,0 0.83,-0.37 0.83,-0.83 v -29.78 c 0,-0.46 -0.37,-0.83 -0.83,-0.83 h -72.5 c -0.46,0 -0.83,0.37 -0.83,0.83 z"
       style="fill:#7f7f7f;fill-opacity:1;fill-rule:evenodd;stroke:none"
       id="path1083"
       inkscape:connector-curvature="0" /><g
       id="g1085"><g
         id="g1087"
         clip-path="url(#clipPath1091)"><text
           transform="matrix(1,0,0,-1,552.96,199.46)"
           style="font-variant:normal;font-weight:normal;font-size:9.11999989px;font-family:'Open Sans';-inkscape-font-specification:OpenSans;writing-mode:lr-tb;fill:#ffffff;fill-opacity:1;fill-rule:nonzero;stroke:none"
           id="text1095"><tspan
             x="0 5.0433602 9.8313599 11.9928 16.7808 19.17024 22.28928"
             y="0"
             sodipodi:role="line"
             id="tspan1093">TF Lite</tspan></text>
</g></g><g
       id="g1097"><g
         id="g1099"
         clip-path="url(#clipPath1103)"><text
           transform="matrix(1,0,0,-1,543.36,188.66)"
           style="font-variant:normal;font-weight:normal;font-size:9.11999989px;font-family:'Open Sans';-inkscape-font-specification:OpenSans;writing-mode:lr-tb;fill:#ffffff;fill-opacity:1;fill-rule:nonzero;stroke:none"
           id="text1107"><tspan
             x="0 2.62656 8.1441603 11.2632 16.306561 20.136959 25.65456 29.484961 34.52832 37.647362 42.69072"
             y="0"
             sodipodi:role="line"
             id="tspan1105">Interpreter</tspan></text>
</g></g><path
       d="m 540.24,327.03 c 0,0.45 0.36,0.81 0.81,0.81 h 67.98 c 0.45,0 0.81,-0.36 0.81,-0.81 v -29.1 c 0,-0.45 -0.36,-0.81 -0.81,-0.81 h -67.98 c -0.45,0 -0.81,0.36 -0.81,0.81 z"
       style="fill:#7f7f7f;fill-opacity:1;fill-rule:evenodd;stroke:none"
       id="path1109"
       inkscape:connector-curvature="0" /><g
       id="g1111"><g
         id="g1113"
         clip-path="url(#clipPath1117)"><text
           transform="matrix(1,0,0,-1,561.46,314.81)"
           style="font-variant:normal;font-weight:normal;font-size:9.11999989px;font-family:'Open Sans';-inkscape-font-specification:OpenSans;writing-mode:lr-tb;fill:#ffffff;fill-opacity:1;fill-rule:nonzero;stroke:none"
           id="text1121"><tspan
             x="0 5.0433602 9.8313599 11.9928 16.7808 19.17024 22.28928 27.33264"
             y="0"
             sodipodi:role="line"
             id="tspan1119">TF Lite </tspan></text>
</g></g><g
       id="g1123"><g
         id="g1125"
         clip-path="url(#clipPath1129)"><text
           transform="matrix(1,0,0,-1,554.02,304.01)"
           style="font-variant:normal;font-weight:normal;font-size:9.11999989px;font-family:'Open Sans';-inkscape-font-specification:OpenSans;writing-mode:lr-tb;fill:#ffffff;fill-opacity:1;fill-rule:nonzero;stroke:none"
           id="text1133"><tspan
             x="0 5.7547202 11.2632 16.79904 21.36816 26.402399 30.2328 33.351841 38.395199"
             y="0"
             sodipodi:role="line"
             id="tspan1131">Converter</tspan></text>
</g></g><g
       id="g1135"><g
         id="g1137"
         clip-path="url(#clipPath1141)"><path
           d="m 405.58,366.46 0.04,-0.92 0.12,-0.94 0.2,-0.93 0.27,-0.92 0.35,-0.91 0.41,-0.9 0.49,-0.89 0.54,-0.87 0.6,-0.85 0.66,-0.84 0.72,-0.82 0.77,-0.8 0.81,-0.77 0.87,-0.76 1.86,-1.42 2.02,-1.31 2.16,-1.17 2.28,-1.04 2.37,-0.88 1.23,-0.37 1.25,-0.34 1.25,-0.28 1.26,-0.23 1.28,-0.19 1.29,-0.14 1.3,-0.08 1.28,-0.03 1.28,-0.03 h -0.02 l 1.27,-0.09 -0.03,0.01 1.27,-0.14 h -0.02 l 1.26,-0.18 -0.02,0.01 1.26,-0.24 -0.02,0.01 1.23,-0.29 -0.02,0.01 1.23,-0.33 h -0.02 l 1.2,-0.37 -0.02,0.01 2.34,-0.86 -0.03,0.01 2.25,-1.02 -0.03,0.02 2.13,-1.16 -0.04,0.02 1.99,-1.29 -0.03,0.03 1.83,-1.4 -0.03,0.01 0.85,-0.73 -0.01,0.01 0.8,-0.75 -0.02,0.01 0.75,-0.78 -0.01,0.02 0.69,-0.8 -0.01,0.02 0.64,-0.82 -0.01,0.02 0.58,-0.83 -0.01,0.02 0.53,-0.85 -0.05,0.1 0.48,-1.35 0.94,0.33 -0.49,1.41 -0.57,0.9 -0.6,0.86 -0.66,0.84 -0.72,0.82 -0.77,0.8 -0.81,0.77 -0.87,0.75 -1.86,1.42 -2.02,1.31 -2.16,1.18 -2.29,1.03 -2.37,0.88 -1.22,0.37 -1.24,0.34 -1.26,0.28 -1.27,0.24 -1.28,0.18 -1.29,0.14 -1.29,0.08 -1.28,0.03 -1.28,0.03 h 0.02 l -1.27,0.09 0.02,-0.01 -1.27,0.14 h 0.02 l -1.26,0.18 h 0.02 l -1.25,0.23 h 0.02 l -1.24,0.28 0.03,-0.01 -1.23,0.33 h 0.02 l -1.21,0.37 0.03,-0.01 -2.34,0.87 0.03,-0.02 -2.25,1.02 0.03,-0.01 -2.13,1.15 0.04,-0.02 -1.99,1.29 0.03,-0.02 -1.83,1.4 0.03,-0.03 -0.85,0.75 0.01,-0.02 -0.8,0.76 0.02,-0.02 -0.75,0.78 0.01,-0.01 -0.69,0.8 0.01,-0.02 -0.64,0.82 0.01,-0.03 -0.58,0.84 0.01,-0.02 -0.53,0.84 0.02,-0.02 -0.47,0.85 0.02,-0.03 -0.4,0.87 0.01,-0.03 -0.34,0.88 0.02,-0.04 -0.27,0.89 0.01,-0.04 -0.18,0.89 v -0.04 l -0.12,0.9 0.01,-0.04 -0.04,0.89 z m 50.4,-33.24 4.49,-4.98 1.3,6.58 z"
           style="fill:#000000;fill-opacity:1;fill-rule:nonzero;stroke:none"
           id="path1143"
           inkscape:connector-curvature="0" /></g></g><g
       id="g1145"><g
         id="g1147"
         clip-path="url(#clipPath1151)"><path
           d="m 518.02,366.7 -0.04,-0.92 -0.12,-0.94 -0.2,-0.93 -0.26,-0.93 -0.34,-0.92 -0.42,-0.91 -0.47,-0.89 -0.53,-0.87 -0.59,-0.86 -0.66,-0.85 -0.7,-0.82 -0.76,-0.8 -0.8,-0.78 -0.86,-0.76 -1.83,-1.42 -1.99,-1.32 -2.14,-1.18 -2.24,-1.04 -2.34,-0.89 -1.22,-0.38 -1.22,-0.33 -1.24,-0.28 -1.25,-0.24 -1.25,-0.19 -1.28,-0.14 -1.27,-0.08 -1.26,-0.03 -1.26,-0.03 h 0.03 l -1.26,-0.08 h 0.02 l -1.25,-0.14 0.02,0.01 -1.24,-0.19 h 0.02 l -1.23,-0.23 h 0.02 l -1.22,-0.28 h 0.02 l -1.21,-0.32 0.02,0.01 -1.18,-0.38 0.02,0.01 -2.32,-0.87 0.04,0.01 -2.21,-1.02 0.03,0.01 -2.1,-1.16 0.03,0.02 -1.96,-1.3 0.03,0.03 -1.8,-1.41 0.02,0.02 -0.83,-0.74 0.01,0.01 -0.78,-0.75 0.01,0.01 -0.74,-0.78 0.02,0.01 -0.69,-0.8 0.01,0.02 -0.63,-0.82 0.01,0.02 -0.58,-0.83 0.02,0.02 -0.52,-0.85 0.05,0.09 -0.48,-1.38 -0.95,0.33 0.5,1.43 0.55,0.91 0.6,0.86 0.65,0.84 0.71,0.82 0.75,0.81 0.81,0.77 0.85,0.76 1.84,1.43 1.99,1.32 2.13,1.18 2.24,1.04 2.35,0.88 1.21,0.38 1.23,0.33 1.23,0.29 1.25,0.24 1.26,0.19 1.27,0.13 1.28,0.09 1.26,0.03 1.26,0.03 h -0.03 l 1.26,0.08 h -0.02 l 1.25,0.13 h -0.02 l 1.24,0.19 -0.02,-0.01 1.23,0.24 -0.02,-0.01 1.22,0.29 -0.02,-0.01 1.2,0.33 -0.02,-0.01 1.2,0.37 h -0.03 l 2.31,0.87 -0.04,-0.02 2.22,1.03 -0.03,-0.02 2.1,1.16 -0.04,-0.02 1.96,1.3 -0.03,-0.02 1.81,1.4 -0.03,-0.02 0.83,0.74 -0.01,-0.01 0.78,0.76 -0.01,-0.01 0.74,0.78 -0.01,-0.02 0.69,0.8 -0.02,-0.02 0.64,0.83 -0.02,-0.02 0.58,0.84 -0.02,-0.03 0.52,0.85 -0.01,-0.03 0.45,0.87 -0.01,-0.03 0.4,0.88 -0.02,-0.04 0.33,0.89 -0.01,-0.04 0.26,0.89 -0.01,-0.03 0.19,0.89 -0.01,-0.03 0.12,0.9 v -0.05 l 0.03,0.9 z m -49.64,-33.41 -4.46,-5.01 -1.33,6.58 z"
           style="fill:#000000;fill-opacity:1;fill-rule:nonzero;stroke:none"
           id="path1153"
           inkscape:connector-curvature="0" /></g></g><path
       d="m 463.42,298.08 v -19.52 h 1 v 19.52 z m -2.5,-18.52 3,-6 3,6 z"
       style="fill:#000000;fill-opacity:1;fill-rule:nonzero;stroke:none"
       id="path1155"
       inkscape:connector-curvature="0" /><path
       d="m 464.42,162.43 v 14.01 h -1 v -14.01 z m 2.5,13.01 -3,6 -3,-6 z"
       style="fill:#000000;fill-opacity:1;fill-rule:nonzero;stroke:none"
       id="path1157"
       inkscape:connector-curvature="0" /><path
       d="m 505.68,313.22 29.59,-0.2 v -1 l -29.59,0.2 z m 28.61,2.3 5.98,-3.04 -6.02,-2.96 z"
       style="fill:#000000;fill-opacity:1;fill-rule:nonzero;stroke:none"
       id="path1159"
       inkscape:connector-curvature="0" /><path
       d="m 505.68,198.5 h 18.96 v -1 h -18.96 z m 17.96,2.5 6,-3 -6,-3 z"
       style="fill:#000000;fill-opacity:1;fill-rule:nonzero;stroke:none"
       id="path1161"
       inkscape:connector-curvature="0" /><path
       d="m 463.42,217.95 v 16.09 h 1 v -16.09 z m 3.5,1 -3,-6 -3,6 z m -6,14.09 3,6 3,-6 z"
       style="fill:#000000;fill-opacity:1;fill-rule:nonzero;stroke:none"
       id="path1163"
       inkscape:connector-curvature="0" /><g
       id="g1165"><path
         d="M 422.44,256.32 H 307.2"
         style="fill:none;stroke:#a6a6a6;stroke-width:1.44000006;stroke-linecap:butt;stroke-linejoin:miter;stroke-miterlimit:10;stroke-dasharray:11.52, 4.32, 1.44, 4.32;stroke-dashoffset:0;stroke-opacity:1"
         id="path1167"
         inkscape:connector-curvature="0" /></g><g
       id="g1169"><path
         d="M 627.51,261.36 H 504.72"
         style="fill:none;stroke:#a6a6a6;stroke-width:1.44000006;stroke-linecap:butt;stroke-linejoin:miter;stroke-miterlimit:10;stroke-dasharray:11.52, 4.32, 1.44, 4.32;stroke-dashoffset:0;stroke-opacity:1"
         id="path1171"
         inkscape:connector-curvature="0" /></g><g
       id="g1173"><g
         id="g1175"
         clip-path="url(#clipPath1179)"><text
           transform="matrix(1,0,0,-1,328.34,267.67)"
           style="font-variant:normal;font-weight:normal;font-size:10.07999992px;font-family:'Open Sans';-inkscape-font-specification:OpenSans;writing-mode:lr-tb;fill:#000000;fill-opacity:1;fill-rule:nonzero;stroke:none"
           id="text1183"><tspan
             x="0 9.3340797 15.36192 19.444321 24.73632 29.544479 33.102718 38.646721 42.235199 44.866081 50.863682"
             y="0"
             sodipodi:role="line"
             id="tspan1181">Workstation</tspan></text>
</g></g><g
       id="g1185"><g
         id="g1187"
         clip-path="url(#clipPath1191)"><text
           transform="matrix(1,0,0,-1,320.45,239.83)"
           style="font-variant:normal;font-weight:normal;font-size:10.07999992px;font-family:'Open Sans';-inkscape-font-specification:OpenSans;writing-mode:lr-tb;fill:#000000;fill-opacity:1;fill-rule:nonzero;stroke:none"
           id="text1195"><tspan
             x="0 6.4713602 12.7008 18.930241 23.01264 29.010241 31.641121 37.87056 40.027679 47.456638 53.20224 58.252319 60.873119 65.671204"
             y="0"
             sodipodi:role="line"
             id="tspan1193">Android Device</tspan></text>
</g></g></g></svg>