<?xml version="1.0" encoding="UTF-8" standalone="no"?>
<!-- Created with Inkscape (http://www.inkscape.org/) -->

<svg
   xmlns:dc="http://purl.org/dc/elements/1.1/"
   xmlns:cc="http://creativecommons.org/ns#"
   xmlns:rdf="http://www.w3.org/1999/02/22-rdf-syntax-ns#"
   xmlns:svg="http://www.w3.org/2000/svg"
   xmlns="http://www.w3.org/2000/svg"
   xmlns:sodipodi="http://sodipodi.sourceforge.net/DTD/sodipodi-0.dtd"
   xmlns:inkscape="http://www.inkscape.org/namespaces/inkscape"
   version="1.1"
   id="svg815"
   xml:space="preserve"
   width="752.47192"
   height="522.2442"
   viewBox="0 0 752.47192 522.2442"
   sodipodi:docname="overview.svg"
   inkscape:version="0.92.2 (5c3e80d, 2017-08-06)"><metadata
     id="metadata821"><rdf:RDF><cc:Work
         rdf:about=""><dc:format>image/svg+xml</dc:format><dc:type
           rdf:resource="http://purl.org/dc/dcmitype/StillImage" /><dc:title></dc:title></cc:Work></rdf:RDF></metadata><defs
     id="defs819"><clipPath
       clipPathUnits="userSpaceOnUse"
       id="clipPath839"><path
         d="m 351.266,252.031 h 57.957 v 27.898 h -57.957 z"
         id="path837"
         inkscape:connector-curvature="0" /></clipPath><clipPath
       clipPathUnits="userSpaceOnUse"
       id="clipPath849"><path
         d="m 351,252 h 59 v 28 h -59 z"
         id="path847"
         inkscape:connector-curvature="0" /></clipPath><clipPath
       clipPathUnits="userSpaceOnUse"
       id="clipPath877"><path
         d="m 420.359,249.082 h 58.082 v 27.688 h -58.082 z"
         id="path875"
         inkscape:connector-curvature="0" /></clipPath><clipPath
       clipPathUnits="userSpaceOnUse"
       id="clipPath887"><path
         d="m 420,249 h 59 v 28 h -59 z"
         id="path885"
         inkscape:connector-curvature="0" /></clipPath><clipPath
       clipPathUnits="userSpaceOnUse"
       id="clipPath901"><path
         d="m 503.199,250.34 h 58.07 v 27.555 h -58.07 z"
         id="path899"
         inkscape:connector-curvature="0" /></clipPath><clipPath
       clipPathUnits="userSpaceOnUse"
       id="clipPath911"><path
         d="m 503,250 h 59 v 28 h -59 z"
         id="path909"
         inkscape:connector-curvature="0" /></clipPath></defs><sodipodi:namedview
     pagecolor="#ffffff"
     bordercolor="#666666"
     borderopacity="1"
     objecttolerance="10"
     gridtolerance="10"
     guidetolerance="10"
     inkscape:pageopacity="0"
     inkscape:pageshadow="2"
     inkscape:window-width="1920"
     inkscape:window-height="1001"
     id="namedview817"
     showgrid="false"
     inkscape:zoom="1.5471689"
     inkscape:cx="376.23596"
     inkscape:cy="261.1221"
     inkscape:window-x="-9"
     inkscape:window-y="-9"
     inkscape:window-maximized="1"
     inkscape:current-layer="g823" /><g
     id="g823"
     inkscape:groupmode="layer"
     inkscape:label="overview"
     transform="matrix(1.3333333,0,0,1.3333333,0,1.0389439e-5)"><g
       id="g825"><path
         d="m 563.645,352.746 c 0,4.188 -48.426,7.582 -108.161,7.582 m 108.161,-7.582 c 0,4.188 -48.426,7.582 -108.161,7.582 -59.738,0 -108.164,-3.394 -108.164,-7.582 m 0,0 c 0,-4.187 48.426,-7.582 108.164,-7.582 59.735,0 108.161,3.395 108.161,7.582 v 30.332 c 0,4.188 -48.426,7.582 -108.161,7.582 -59.738,0 -108.164,-3.394 -108.164,-7.582 z"
         style="fill:#f2f2f2;fill-opacity:1;fill-rule:nonzero;stroke:none"
         id="path827"
         inkscape:connector-curvature="0" /><g
         id="g829"
         transform="scale(0.692073,1)"><path
           d="m 814.43,352.746 c 0,4.188 -69.972,7.582 -156.285,7.582 m 156.285,-7.582 c 0,4.188 -69.972,7.582 -156.285,7.582 -86.318,0 -156.29,-3.394 -156.29,-7.582 m 0,0 c 0,-4.187 69.972,-7.582 156.29,-7.582 86.313,0 156.285,3.395 156.285,7.582 v 30.332 c 0,4.188 -69.972,7.582 -156.285,7.582 -86.318,0 -156.29,-3.394 -156.29,-7.582 z"
           style="fill:none;stroke:#000000;stroke-width:2.04443908;stroke-linecap:butt;stroke-linejoin:round;stroke-miterlimit:4;stroke-dasharray:none;stroke-opacity:0.79607801"
           id="path831"
           inkscape:connector-curvature="0" /></g></g><g
       id="g833"><g
         id="g835"
         clip-path="url(#clipPath839)"><g
           id="g841"><g
             id="g843"><g
               id="g845"
               clip-path="url(#clipPath849)"><g
                 id="g851"><g
                   id="g853"
                   transform="scale(1,0.494102)"><path
                     d="m 353.898,537.077 0.106,-2.862 0.105,-0.798 0.106,8.823 0.211,-5.337 0.105,-1.28 0.106,1.897 0.105,-8.024 0.106,6.878 0.105,-0.53 0.106,-1.32 0.211,3.565 0.105,0.135 0.105,-4.981 0.106,0.878 0.109,-2.38 0.106,1.81 0.105,0.483 0.106,-4.538 0.211,9.653 0.105,-10.887 0.106,3.344 0.211,4.902 0.105,-14.294 0.105,9.748 0.106,2.997 0.105,7.455 0.106,-1.368 0.105,1.281 0.106,-3.708 0.105,-5.684 0.211,-4.941 0.106,6.127 0.105,-13.227 0.106,-0.79 0.105,6.522 0.106,-13.448 0.105,11.242 0.106,4.19 0.105,-0.134 0.105,-5.289 0.106,4.142 0.105,0.404 0.106,-2.388 0.109,2.514 0.106,-4.846 0.211,8.42 0.105,-6.657 0.106,-1.542 0.105,8.199 0.211,-9.922 0.105,7.099 0.106,-1.502 0.105,-3.036 0.106,5.337 0.211,-2.87 0.105,-2.87 0.106,6.483 0.105,-0.435 0.106,-0.221 0.105,4.008 0.106,0.925 0.105,-3.131 0.106,5.25 0.105,-0.348 0.105,-2.119 0.211,1.81 0.106,-3.976 0.211,6.356 0.105,-4.807 0.106,1.803 0.32,7.676 0.106,-2.956 0.105,0.442 0.105,-2.514 0.106,-11.463 0.105,25.931 0.106,-1.637 0.105,-6.127 0.106,0.087 h 0.105 l 0.106,1.811 0.105,-5.163 0.106,-2.735 0.105,0.095 0.106,-2.562 0.105,-4.546 0.106,0.665 0.105,-3.574 0.106,1.368 h 0.105 l 0.105,-2.467 0.106,-4.016 0.105,4.941 0.106,0.751 0.105,-3.043 0.106,-1.012 0.105,4.055 0.106,-0.703 0.105,0.308 0.11,1.32 0.105,3.748 0.211,-4.855 0.105,3.843 0.106,-1.06 0.105,-1.763 0.211,8.602 0.106,-5.21 0.105,-1.85 0.106,5.866 0.105,-5.162 0.106,1.019 0.105,4.009 0.211,-4.941 0.106,0.49 0.105,-0.886 0.105,-3.968 0.106,-0.309 0.105,1.676 0.106,0.53 0.211,-0.664 0.105,7.06 0.106,0.482 0.105,-17.464 0.106,16.586 0.105,9.614 0.106,3.439 0.105,-3.487 0.109,0.838 0.106,-2.648 0.105,-8.159 0.106,1.637 0.105,-5.076 0.106,0.799 0.105,-0.664 0.106,-2.341 0.105,0.404 0.106,-1.55 0.105,4.19 0.211,0.617 0.106,2.609 0.105,-1.06 0.106,-0.308 0.105,3.969 0.211,-4.894 0.105,5.953 0.106,-4.324 0.105,0.221 0.106,4.498 0.105,-1.857 0.106,-5.906 0.105,2.245 0.106,5.123 0.105,-2.696 0.106,2.072 0.105,3.968 0.106,-2.071 0.105,1.763 0.109,2.917 0.106,7.186 0.211,6.926 0.105,0.395 0.106,-0.221 0.105,-0.356 0.106,-1.233 0.105,-0.482 0.106,-1.503 0.105,-2.735 0.106,-1.012 0.105,-6.309 0.105,-10.846 0.106,-0.838 0.105,-2.34 0.106,-7.052 0.105,1.454 0.106,-3.66 0.211,-4.103 h 0.105 l 0.106,1.415 0.105,-4.103 0.106,3.131 0.105,-1.194 0.106,-3.479 0.105,2.554 0.106,-0.704 0.105,-2.862 0.105,-1.193 0.11,5.953 0.105,-3.305 h 0.106 l 0.211,1.542 0.105,1.28 0.106,-0.308 0.105,0.925 0.106,-4.585 0.105,1.763 0.106,4.316 0.21,-3.613 0.106,-3.439 0.105,8.333 0.106,-0.838 0.105,-1.676 0.106,1.897 0.105,-0.087 0.106,5.202 0.105,0.222 0.106,-3.795 0.211,4.19 0.105,-2.554 0.106,-1.415 0.105,2.34 0.105,-0.308 0.106,-0.885 0.105,0.047 0.106,1.716 0.105,-2.641 0.215,4.403 0.106,-0.743 0.105,4.894 0.106,0.221 0.105,0.965 0.106,-2.909 0.105,-0.396 0.105,-0.79 0.106,6.878 0.105,-1.02 0.106,-1.494 0.105,-0.799 0.106,2.427 0.105,0.309 0.106,-2.736 0.105,3.574 0.106,1.502 0.105,-4.767 0.106,1.367 0.105,2.166 0.106,0.435 0.105,-0.087 0.106,-1.146 0.105,-3.352 0.105,2.293 0.106,9.399 0.105,-7.945 0.106,0.316 0.105,-3.225 0.106,3.929 0.105,-3.66 0.11,1.802 0.105,-2.909 0.106,-0.704 0.105,0.704 0.211,-3.566 0.211,5.376 0.105,-1.367 0.106,-2.957 0.105,3.929 0.106,-2.34 0.105,-1.32 0.106,2.292 0.105,-2.379 0.106,0.261 0.105,-1.06 0.106,-1.628 0.105,0.174 0.106,-4.625 0.105,15.258 0.105,-4.767 0.106,1.984 0.105,-0.704 0.106,-2.735 0.105,-0.174 0.106,0.348 0.105,2.206 0.106,-10.452 0.105,19.227 0.106,-7.716 0.105,-4.103 0.11,3.795 0.105,-6.309 0.211,-0.656 0.211,4.411 0.211,-2.119 0.211,1.85 0.105,-0.616 0.106,-3.084 0.105,1.234 0.106,0.434 0.105,-1.407 0.106,2.997 0.105,-0.396 0.106,-2.071 0.105,9.345 0.105,-1.763 0.106,0.442 0.105,-1.502 0.211,-0.925 0.211,3.708 0.106,-0.925 0.105,-2.474 0.106,3.312 0.105,-0.838 0.215,1.763 0.211,15.345 0.105,0.261 0.106,7.945 0.211,1.234 0.105,-1.147 0.106,-4.372 0.105,-1.454 0.106,-0.127 0.105,-4.324 0.106,-2.206 0.105,-12.262 0.106,-6.522 0.105,-1.233 0.105,-2.427 0.106,2.34 0.105,-3.4 0.106,-1.32 0.105,-5.605 0.106,0.925 0.105,3.265 0.106,-4.277 0.105,4.893 0.106,0.182 0.105,1.408 0.106,-0.838 0.105,-1.716 0.106,2.111 0.105,-4.72 0.106,0.403 0.109,-0.182 0.105,0.578 0.106,-3.266 0.105,-5.288 0.106,13.36 0.105,-2.34 0.106,-0.348 0.105,-0.134 0.106,-1.107 0.105,1.146 0.106,-3.439 0.105,3.882 0.106,-0.221 0.105,-3.305 0.105,5.337 0.106,-2.736 0.105,-1.628 0.106,6.743 0.105,-3.834 0.106,-0.886 0.105,-1.936 0.106,4.498 0.105,2.601 0.106,-3.265 0.105,-0.973 0.106,3.044 0.105,-4.625 0.106,-2.031 0.105,5.779 0.105,-0.838 0.106,0.482 0.105,1.146 0.11,2.253 0.105,-0.529 0.106,-2.206 0.105,0.134 0.106,1.937 0.105,-1.415 0.106,-0.126 0.105,-7.677 0.106,17.859 0.105,-1.099 0.105,-1.763 0.106,-4.498 0.105,-2.206 0.106,2.957 0.105,-0.269 0.211,2.688 0.106,0.751 0.105,3.487 0.106,0.616 0.105,-1.233 0.211,2.641 0.106,-1.273 0.105,-0.443 0.106,3.17 0.105,-2.862 0.105,-1.012 0.106,0.127 0.105,-0.087 0.215,2.427 0.106,5.384 0.105,-5.605 0.106,0.087 0.105,-6.744 0.106,17.416 0.105,-7.099 0.106,0.664 0.105,-3.486 0.105,-0.838 0.106,-1.502 0.105,2.031 0.211,-4.538 0.106,4.096 0.105,0.181 0.106,-2.34 h 0.105 l 0.106,1.147 0.105,-2.253 0.106,0.798 0.105,-0.704 0.106,-1.415 0.105,1.455 0.105,-10.365 0.106,16.808 0.105,-2.079 0.106,-3.66 0.105,-0.396 0.106,1.637 0.105,-4.016 0.106,-1.012 0.109,2.949 0.106,-1.408 0.105,-0.221 0.106,-0.791 0.105,0.53 0.105,-2.696 0.106,3.044 0.211,0.885 0.105,1.542 0.106,-2.427 0.105,1.281 0.106,-0.53 0.105,0.704 0.211,-5.155 0.106,3.218 0.105,13.534 0.106,3.621 0.105,0.174 0.106,-8.554 0.105,-0.664 0.105,-5.423 0.106,3.439 0.105,-1.495 0.106,-0.798 0.105,1.281 0.106,-1.985 0.105,-5.47 0.106,0.442 0.105,4.412 0.106,-3.882 0.109,3.044 0.211,2.379 0.105,-6.087 0.106,3.225 0.105,-9.526 0.106,13.4"
                     style="fill:none;stroke:#4d4d4d;stroke-width:2.13394308;stroke-linecap:round;stroke-linejoin:miter;stroke-miterlimit:4;stroke-dasharray:none;stroke-opacity:1"
                     id="path855"
                     inkscape:connector-curvature="0" /></g></g></g></g></g></g></g><g
       id="g857"><g
         id="g859"><path
           d="m 349.414,247.512 h 62.258 c 0.035,0 0.066,0.031 0.066,0.066 v 34.375 c 0,0.035 -0.031,0.063 -0.066,0.063 h -62.258 c -0.039,0 -0.066,-0.028 -0.066,-0.063 v -34.375 c 0,-0.035 0.027,-0.066 0.066,-0.066 z"
           style="fill:none;stroke:#000000;stroke-width:1.41732299;stroke-linecap:round;stroke-linejoin:round;stroke-miterlimit:4;stroke-dasharray:none;stroke-opacity:0.79611703"
           id="path861"
           inkscape:connector-curvature="0" /></g><g
         id="g863"><path
           d="m 418.191,247.512 h 62.18 c 0.059,0 0.106,0.051 0.106,0.109 v 34.289 c 0,0.059 -0.047,0.106 -0.106,0.106 h -62.18 c -0.058,0 -0.105,-0.047 -0.105,-0.106 v -34.289 c 0,-0.058 0.047,-0.109 0.105,-0.109 z"
           style="fill:none;stroke:#000000;stroke-width:1.41732299;stroke-linecap:round;stroke-linejoin:round;stroke-miterlimit:4;stroke-dasharray:none;stroke-opacity:0.79607801"
           id="path865"
           inkscape:connector-curvature="0" /></g><g
         id="g867"><path
           d="m 501.055,247.512 h 62.101 c 0.082,0 0.145,0.066 0.145,0.144 v 34.215 c 0,0.082 -0.063,0.145 -0.145,0.145 h -62.101 c -0.078,0 -0.145,-0.063 -0.145,-0.145 v -34.215 c 0,-0.078 0.067,-0.144 0.145,-0.144 z"
           style="fill:none;stroke:#000000;stroke-width:1.41732299;stroke-linecap:round;stroke-linejoin:round;stroke-miterlimit:4;stroke-dasharray:none;stroke-opacity:0.79607801"
           id="path869"
           inkscape:connector-curvature="0" /></g></g><g
       id="g871"><g
         id="g873"
         clip-path="url(#clipPath877)"><g
           id="g879"><g
             id="g881"><g
               id="g883"
               clip-path="url(#clipPath887)"><g
                 id="g889"><g
                   id="g891"
                   transform="scale(1,0.489388)"><path
                     d="m 423,533.806 0.105,0.798 0.106,3.185 0.105,-0.272 0.106,-1.325 0.109,4.247 0.106,-5.037 0.105,0.264 0.106,-0.264 0.105,-4.509 0.106,1.851 0.105,-0.263 0.211,7.694 0.105,0.527 0.106,1.86 0.109,-2.921 0.106,0.534 0.105,-1.333 0.106,-3.176 h 0.105 l 0.106,1.851 0.105,0.535 0.106,3.177 0.105,5.308 0.106,-3.712 0.105,-6.896 0.105,2.123 0.11,-0.535 0.105,2.658 0.106,-6.369 0.211,9.019 0.105,0.791 0.106,-2.387 0.105,-0.263 0.211,2.921 0.106,-1.596 0.109,0.271 h 0.105 l 0.211,3.975 0.106,2.387 0.105,4.501 0.106,-5.563 h 0.105 l 0.106,-1.588 0.211,-8.222 0.32,-7.159 0.105,-0.264 0.211,6.888 0.106,0.272 0.316,8.213 0.106,2.123 0.105,-6.896 0.11,1.596 0.105,-2.921 0.105,0.271 0.211,-2.658 0.106,2.922 0.211,12.46 0.105,-2.124 0.106,-3.448 0.105,-6.098 0.11,1.062 0.105,3.711 0.106,0.535 0.105,-4.246 0.105,1.596 0.317,11.398 0.105,1.589 0.106,-4.774 0.105,-1.325 0.215,-5.563 0.106,-1.062 0.105,0.791 0.106,-2.65 0.105,3.184 h 0.105 l 0.106,-4.509 0.105,4.509 0.106,-3.184 0.105,-5.564 0.106,1.062 h 0.109 l 0.106,-2.387 0.105,3.177 0.106,0.798 0.105,-0.535 0.106,-4.238 0.105,-1.061 0.105,-1.852 0.106,-1.062 0.211,8.485 0.105,2.913 0.11,0.535 0.105,-1.062 0.106,-0.271 0.105,-2.65 0.106,-1.062 0.105,-7.686 0.106,-1.588 0.105,3.711 0.105,-2.123 0.106,4.51 0.105,2.386 0.11,3.448 0.105,-3.448 0.106,0.79 0.105,-1.588 0.211,-8.485 0.211,3.712 0.106,0.263 0.105,-0.263 0.105,4.773 0.11,-0.527 0.105,-3.448 0.106,2.123 0.211,-5.308 0.105,2.65 h 0.106 l 0.105,3.185 0.106,0.263 0.105,3.712 0.106,-1.062 0.105,1.325 h 0.109 l 0.106,-4.238 0.105,0.798 h 0.106 l 0.105,2.115 0.211,-2.386 0.106,7.694 0.105,-0.798 0.106,2.65 0.105,-1.061 0.109,3.983 0.106,-1.86 0.211,-6.362 0.211,6.362 0.105,-5.835 0.106,-1.062 0.105,5.572 0.106,0.798 0.105,-2.65 0.106,1.054 0.109,5.834 0.105,-1.851 0.106,0.526 0.105,1.325 0.106,0.799 0.105,-1.062 0.106,5.835 0.105,-2.65 0.106,-1.333 0.105,3.719 0.106,-2.123 0.109,1.062 0.105,-4.247 0.106,-2.386 0.105,0.798 0.106,-3.975 0.105,7.423 0.106,-1.86 0.105,-2.65 0.106,-6.098 0.105,-2.913 0.106,-9.02 0.215,-2.65 0.105,4.247 0.105,-0.798 0.106,-1.325 0.105,3.975 0.106,1.061 0.105,-0.798 0.106,0.263 0.105,0.535 0.106,-0.535 0.105,-0.79 h 0.11 l 0.105,-0.535 0.106,5.308 0.105,0.79 0.105,-1.325 0.106,2.65 0.105,4.51 0.106,-4.773 0.105,2.921 h 0.106 l 0.105,-0.271 0.11,3.712 0.105,-1.054 0.106,1.852 h 0.105 l 0.106,-8.748 0.105,3.975 0.105,-4.774 0.106,1.597 0.105,2.913 0.106,-4.238 0.105,-0.272 0.106,8.222 0.109,-4.51 h 0.106 l 0.105,-2.387 0.106,0.272 0.105,-2.123 0.106,-5.835 0.105,-0.527 0.105,10.871 0.106,2.116 0.105,-5.564 0.106,-0.263 0.109,3.975 0.106,-2.922 0.105,-1.325 0.106,1.325 0.105,-1.053 0.106,-2.921 h 0.105 l 0.106,3.974 0.105,-1.325 0.105,-2.913 0.106,0.798 0.105,-1.061 0.11,9.275 0.105,0.798 0.106,1.325 0.105,-2.914 0.106,-1.325 0.105,-5.571 0.106,-0.263 0.105,4.501 0.106,0.272 0.21,4.502 0.11,-0.264 0.105,-0.527 0.106,-4.773 0.105,5.037 0.106,1.325 0.105,2.123 0.211,2.913 0.106,-4.509 0.211,2.658 0.109,-2.922 0.211,4.773 0.105,-1.325 0.106,-0.798 0.105,-2.65 0.106,2.65 0.105,-2.115 0.106,1.588 0.105,-2.123 0.106,-1.325 h 0.105 l 0.109,-5.835 0.106,-1.325 0.211,2.922 0.105,2.913 0.106,-1.852 0.105,-2.658 0.106,-4.501 0.105,-2.387 0.106,-3.448 0.105,5.037 0.11,-0.527 0.105,-1.062 0.105,-0.263 0.106,2.65 0.105,-2.387 0.211,6.888 0.106,-4.501 0.105,1.061 0.106,-2.386 0.105,-3.983 0.106,1.325 0.109,-1.589 0.106,3.712 0.105,0.535 0.105,4.238 0.106,2.387 0.105,-0.799 0.106,0.535 0.105,-3.185 0.106,-0.526 0.211,1.325 0.109,2.386 0.106,3.448 0.105,-2.123 0.106,-0.263 0.105,2.386 0.211,-8.221 0.105,-0.798 0.106,-3.448 0.105,-0.79 0.106,4.238 0.109,2.123 0.106,8.221 0.211,-7.423 0.105,1.325 0.106,-6.896 0.105,-3.185 0.105,1.062 0.106,-3.44 0.105,0.79 0.106,-2.65 0.105,2.123 0.11,3.975 0.105,2.123 0.317,-7.423 0.211,-2.658 0.105,2.658 0.105,1.062 0.211,8.748 0.11,2.115 0.105,0.535 0.106,-1.589 0.105,-0.798 0.106,2.65 0.105,-3.185 0.106,1.597 0.105,-1.062 0.106,6.625 0.105,2.123 0.105,-1.061 0.106,3.448 0.109,-2.123 0.106,-0.527 0.105,0.527 0.106,-0.527 0.105,4.773 0.106,0.79 0.105,2.123 h 0.106 l 0.105,3.975 0.106,5.572 0.214,2.913 0.106,-1.852 0.316,-11.933 0.106,1.062 0.105,-5.3 0.106,2.115 0.105,-0.527 0.106,2.124 0.105,-0.535 0.106,-0.264 0.214,5.037 0.211,-1.588 0.106,-1.325 0.105,-0.799 0.317,-5.834 0.32,-11.662 0.105,-10.344 0.106,-1.325 0.105,-5.835 0.211,2.921 0.106,-4.51 0.211,7.958 0.211,6.362 0.109,2.65 0.105,0.798 0.106,-2.921 0.105,-1.062 0.211,-8.485 0.106,-1.325 0.105,1.062 0.106,-0.79 0.105,4.238 0.106,-1.852 0.105,0.791 0.11,-0.527 0.105,-1.062 0.105,3.448 h 0.106 l 0.105,1.852 0.106,5.308 0.105,-1.061 0.106,3.176 0.105,-1.325 0.211,-9.275 0.11,0.264 0.105,2.913 0.106,5.308 0.105,1.589 0.105,0.798 0.211,-4.247 0.106,-2.65 0.105,2.124 0.211,11.924 h 0.106 l 0.109,1.325 0.211,-5.299 0.422,11.669 0.105,-1.062 0.106,1.589 0.105,-0.798 0.106,-5.037 0.109,-2.387 0.106,1.062 0.105,5.835 0.211,6.098 0.106,1.325 0.105,-6.625 0.105,0.263 0.106,2.124 0.105,3.975 0.106,1.851 0.109,0.535 0.106,9.012 0.105,-0.264 0.106,-0.798 0.105,-4.238 0.106,-1.062 0.105,5.037 0.106,-4.51 0.105,0.798 0.211,-5.563 0.105,1.053 0.11,-2.65 0.105,-5.036 0.106,2.65 0.105,0.271 0.211,-8.485 0.106,-0.534 0.105,1.859 0.106,-5.571 0.105,-1.588 0.105,-0.798 0.215,6.896 0.106,-5.308 0.105,2.386 0.106,-0.79 0.105,3.177 0.106,-2.115 0.316,-9.283 0.106,-2.123 0.105,0.535 0.109,2.65 0.106,0.526 0.105,1.062 0.106,3.448"
                     style="fill:none;stroke:#4d4d4d;stroke-width:2.14352107;stroke-linecap:round;stroke-linejoin:miter;stroke-miterlimit:4;stroke-dasharray:none;stroke-opacity:1"
                     id="path893"
                     inkscape:connector-curvature="0" /></g></g></g></g></g></g></g><g
       id="g895"><g
         id="g897"
         clip-path="url(#clipPath901)"><g
           id="g903"><g
             id="g905"><g
               id="g907"
               clip-path="url(#clipPath911)"><g
                 id="g913"><g
                   id="g915"
                   transform="scale(1,0.487092)"><path
                     d="m 505.84,525.456 0.105,-1.107 0.106,1.067 0.105,2.334 0.106,4.627 0.109,2.542 0.106,3.729 0.105,1.845 0.106,3.568 0.105,-0.248 0.105,4.547 0.106,0.946 0.105,2.414 0.106,-0.778 0.105,0.289 0.106,-0.987 0.105,-0.529 0.11,0.289 0.105,2.165 0.106,-0.369 0.105,-0.569 0.106,-0.818 0.105,1.596 0.105,-2.663 0.106,0.698 0.105,2.213 0.106,-0.329 0.105,-0.128 0.215,-0.858 0.211,3.769 0.106,1.965 0.105,0.417 0.106,3.44 0.105,-2.133 0.105,-3.36 0.106,-1.395 0.105,0.617 0.106,1.596 0.105,3.769 0.11,1.724 0.105,-1.924 0.106,-0.08 0.105,1.475 0.106,-0.698 0.105,-0.208 0.106,-1.267 0.21,-5.822 0.106,0.409 0.211,3.44 0.109,3.609 0.106,-0.818 0.105,-3.521 0.106,0.409 0.105,0.65 0.106,-0.281 0.105,1.885 0.106,-0.538 0.105,1.516 0.105,-0.938 0.106,-4.098 0.105,0.569 0.215,7.418 0.106,1.805 0.211,-7.948 0.105,-4.058 0.106,-0.489 0.105,1.019 0.106,1.644 0.105,0.16 0.105,-1.556 0.106,-4.218 0.109,-2.302 0.106,2.094 0.105,6.191 0.211,5.693 0.211,-7.169 0.106,-1.973 0.105,1.275 0.211,5.694 0.105,0.369 0.11,-1.066 0.105,-2.214 0.211,-7.787 0.106,1.067 0.211,3.28 0.105,-4.098 0.211,-11.885 0.106,-2.783 0.105,0.04 0.105,9.463 0.11,2.422 0.105,-4.675 0.106,-8.317 0.105,-3.32 0.106,0.818 0.105,1.275 0.211,12.046 0.106,2.093 0.105,-3.529 0.211,-9.094 0.109,0.818 0.211,13.561 0.106,2.711 0.316,-20.907 0.211,6.359 0.211,15.077 0.106,-0.04 0.109,-3.649 0.105,-1.147 0.106,-0.617 0.105,2.831 0.211,9.463 0.106,-1.147 0.105,-6.311 0.106,-9.544 0.105,-1.973 0.106,0.987 0.105,3.937 0.109,9.624 0.106,5.205 0.105,-3.481 0.317,-16.512 0.105,3.48 0.106,5.245 0.105,8.196 0.106,3.24 0.105,-4.467 0.215,-13.938 0.105,-2.334 0.106,-0.449 0.211,11.677 0.105,-0.778 0.106,-2.951 0.105,-4.996 0.106,-1.965 0.105,2.333 0.211,8.076 0.109,1.107 0.106,-2.999 0.105,-7.499 0.106,-3.6 0.105,1.676 0.317,9.591 0.211,-8.894 0.105,-2.991 0.215,-2.374 0.211,14.419 0.105,-0.818 0.211,-11.107 0.106,-1.884 0.105,-0.449 0.106,1.924 0.105,3.938 0.106,1.475 0.105,0.738 0.11,-5.373 0.105,-1.676 0.211,6.432 0.211,11.845 0.105,0.08 0.211,-7.787 0.106,-1.516 0.32,8.036 0.106,0.858 0.21,-13.97 0.106,1.427 0.105,2.791 0.211,17.419 0.106,3.191 0.105,-3.977 0.211,-15.775 h 0.11 l 0.105,0.369 0.211,9.142 0.105,-0.657 0.317,-14.756 0.105,-0.898 0.211,8.685 0.106,-2.045 0.109,-4.507 0.106,-6.352 0.105,-2.341 0.106,0.088 0.316,15.365 0.105,-4.547 0.106,-2.582 0.105,-1.564 0.106,1.973 0.32,12.863 0.106,1.556 0.105,-6.76 0.211,-3.97 0.316,3.97 0.106,-1.436 0.105,-4.419 0.106,-0.048 0.105,1.067 0.11,6.48 0.211,8.276 0.105,-0.08 0.316,-10.859 0.106,2.414 0.105,4.218 0.106,0.866 0.105,3.072 0.106,-0.658 0.215,-9.302 0.105,-0.329 0.211,9.182 0.106,-1.227 0.105,-4.427 0.105,-6.391 0.211,-8.324 0.106,-3.97 0.105,0.649 0.11,1.276 0.211,-0.698 0.105,0.986 0.106,-4.924 0.105,1.476 0.211,-6.392 0.105,1.027 0.106,7.666 0.105,3.93 0.106,-1.476 0.109,0.578 0.422,-14.676 0.106,-2.125 0.105,-0.289 0.106,2.542 0.105,3.601 0.105,2.173 0.426,-4.466 0.106,2.253 0.211,6.969 0.105,-0.08 0.106,2.743 0.105,0.617 0.211,14.507 0.105,-2.462 0.106,-0.369 0.109,3.2 0.106,0.489 0.105,5.406 0.106,2.582 0.105,-0.898 0.106,1.965 0.105,-0.818 0.106,3.151 0.105,5.004 0.106,0.241 0.105,1.604 0.105,-0.329 0.11,-1.965 0.211,1.845 0.105,-2.262 0.106,0.209 0.105,0.489 0.106,-0.449 0.105,3.937 0.106,-7.706 0.211,-6.56 0.214,2.173 0.106,-1.596 0.316,-14.219 0.106,-0.858 0.105,1.845 0.106,-0.698 0.105,-2.253 0.211,3.151 0.106,0.289 0.109,0.738 0.105,2.582 0.106,-2.253 0.211,1.884 0.105,0.489 0.211,-4.956 0.106,-2.213 0.105,3.48 0.106,1.067 0.105,5.044 0.109,-1.724 0.211,5.205 0.106,-2.663 0.211,5.117 0.105,-2.294 0.106,0.618 0.211,-3.2 0.211,3.448 0.425,-6.929 0.106,1.476 0.105,-1.147 0.211,-4.627 0.106,-1.155 0.105,0.249 0.106,-0.201 0.105,-0.048 0.106,0.249 0.109,-0.57 0.105,-0.248 0.211,3.071 0.106,3.24 h 0.105 l 0.106,1.716 0.211,6.681 0.105,-0.899 0.106,1.636 0.105,0.169 0.215,-4.467 0.105,1.307 0.106,0.329 0.105,-1.267 0.106,0.449 0.105,-1.107 0.106,3.24 0.211,8.068 0.105,2.253 0.106,-1.347 0.109,-2.703 0.211,-7.787 0.105,-0.826 0.106,-3.071 0.105,-0.289 0.211,-0.858 0.106,0.08 0.105,0.329 0.106,-2.622 0.105,0.738 0.11,-0.899 0.105,0.289 0.106,1.596 0.105,-0.12 0.105,1.756 0.106,4.595 0.105,2.334 0.106,0.898 0.105,-1.516 0.211,-5.493 0.106,-0.65 0.109,1.965 0.106,2.783 0.105,-1.596 0.106,-4.796 0.105,-2.253 0.105,-5.365 0.106,-0.578 0.105,4.347 0.106,2.374 0.105,1.026 0.106,0.53 0.215,-6.352 0.105,0.906 0.211,10.161 0.106,2.133 0.105,-0.617 0.211,-8.974 0.105,-0.57 0.106,-1.435 0.105,3.93 0.106,-1.187 0.109,-2.294 0.106,-3.569 0.105,-0.529 0.106,-0.12 0.105,0.04 0.106,4.755 0.105,1.677 0.105,-0.49 0.106,1.845 0.105,-3.938 0.106,0.618 0.426,7.987 0.211,-2.742 0.105,0.818 0.106,0.04 0.105,3.48 0.105,1.516 0.106,2.422 0.105,-3.938 0.215,-11.596 0.106,-5.117 0.105,0.281 0.106,-1.716 0.211,2.253 0.211,-4.017 0.105,1.106 h 0.105 l 0.106,1.227 0.105,3.978 0.11,6.72 0.105,1.187 0.106,-1.267 0.105,-5.333 0.106,-1.884 0.105,1.724 0.211,12.294 0.106,1.924 0.21,-6.88 0.106,-4.227"
                     style="fill:none;stroke:#4d4d4d;stroke-width:2.14924502;stroke-linecap:round;stroke-linejoin:miter;stroke-miterlimit:4;stroke-dasharray:none;stroke-opacity:1"
                     id="path917"
                     inkscape:connector-curvature="0" /></g></g></g></g></g></g></g><g
       id="g919"><path
         d="m 349.879,282.016 h 61.328 c 0.293,0 0.531,0.238 0.531,0.531 v 12.242 c 0,0.293 -0.238,0.531 -0.531,0.531 h -61.328 c -0.293,0 -0.531,-0.238 -0.531,-0.531 v -12.242 c 0,-0.293 0.238,-0.531 0.531,-0.531 z"
         style="fill:#f2f2f2;fill-opacity:1;fill-rule:nonzero;stroke:none"
         id="path921"
         inkscape:connector-curvature="0" /><g
         id="g923"><path
           d="m 349.879,282.016 h 61.328 c 0.293,0 0.531,0.238 0.531,0.531 v 12.242 c 0,0.293 -0.238,0.531 -0.531,0.531 h -61.328 c -0.293,0 -0.531,-0.238 -0.531,-0.531 v -12.242 c 0,-0.293 0.238,-0.531 0.531,-0.531 z"
           style="fill:none;stroke:#000000;stroke-width:1.41732299;stroke-linecap:round;stroke-linejoin:round;stroke-miterlimit:4;stroke-dasharray:none;stroke-opacity:0.79607801"
           id="path925"
           inkscape:connector-curvature="0" /></g><path
         d="m 418.547,282.016 h 61.469 c 0.254,0 0.461,0.207 0.461,0.461 v 12.382 c 0,0.254 -0.207,0.461 -0.461,0.461 h -61.469 c -0.254,0 -0.461,-0.207 -0.461,-0.461 v -12.382 c 0,-0.254 0.207,-0.461 0.461,-0.461 z"
         style="fill:#f2f2f2;fill-opacity:1;fill-rule:nonzero;stroke:none"
         id="path927"
         inkscape:connector-curvature="0" /><g
         id="g929"><path
           d="m 418.547,282.016 h 61.469 c 0.254,0 0.461,0.207 0.461,0.461 v 12.382 c 0,0.254 -0.207,0.461 -0.461,0.461 h -61.469 c -0.254,0 -0.461,-0.207 -0.461,-0.461 v -12.382 c 0,-0.254 0.207,-0.461 0.461,-0.461 z"
           style="fill:none;stroke:#000000;stroke-width:1.41732299;stroke-linecap:round;stroke-linejoin:round;stroke-miterlimit:4;stroke-dasharray:none;stroke-opacity:0.79607801"
           id="path931"
           inkscape:connector-curvature="0" /></g><path
         d="m 501.23,282.016 h 61.754 c 0.176,0 0.317,0.144 0.317,0.32 V 295 c 0,0.176 -0.141,0.32 -0.317,0.32 H 501.23 c -0.175,0 -0.32,-0.144 -0.32,-0.32 v -12.664 c 0,-0.176 0.145,-0.32 0.32,-0.32 z"
         style="fill:#f2f2f2;fill-opacity:1;fill-rule:nonzero;stroke:none"
         id="path933"
         inkscape:connector-curvature="0" /><g
         id="g935"><path
           d="m 501.23,282.016 h 61.754 c 0.176,0 0.317,0.144 0.317,0.32 V 295 c 0,0.176 -0.141,0.32 -0.317,0.32 H 501.23 c -0.175,0 -0.32,-0.144 -0.32,-0.32 v -12.664 c 0,-0.176 0.145,-0.32 0.32,-0.32 z"
           style="fill:none;stroke:#000000;stroke-width:1.41732299;stroke-linecap:round;stroke-linejoin:round;stroke-miterlimit:4;stroke-dasharray:none;stroke-opacity:0.79607801"
           id="path937"
           inkscape:connector-curvature="0" /></g><g
         id="g939"><path
           d="m 349.98,197.145 h 212.04 c 0.418,0 0.75,0.335 0.75,0.75 v 40.183 c 0,0.418 -0.332,0.75 -0.75,0.75 H 349.98 c -0.417,0 -0.753,-0.332 -0.753,-0.75 v -40.183 c 0,-0.415 0.336,-0.75 0.753,-0.75 z"
           style="fill:none;stroke:#000000;stroke-width:1.70078695;stroke-linecap:round;stroke-linejoin:round;stroke-miterlimit:4;stroke-dasharray:13.606299, 13.606299;stroke-dashoffset:0;stroke-opacity:0.79607801"
           id="path941"
           inkscape:connector-curvature="0" /></g><path
         d="m 355.199,202.258 h 94.84 c 0.086,0 0.156,0.07 0.156,0.156 v 31.609 c 0,0.09 -0.07,0.161 -0.156,0.161 h -94.84 c -0.086,0 -0.156,-0.071 -0.156,-0.161 v -31.609 c 0,-0.086 0.07,-0.156 0.156,-0.156 z"
         style="fill:#dbdee3;fill-opacity:1;fill-rule:nonzero;stroke:none"
         id="path943"
         inkscape:connector-curvature="0" /><g
         id="g945"><path
           d="m 355.199,202.258 h 94.84 c 0.086,0 0.156,0.07 0.156,0.156 v 31.609 c 0,0.09 -0.07,0.161 -0.156,0.161 h -94.84 c -0.086,0 -0.156,-0.071 -0.156,-0.161 v -31.609 c 0,-0.086 0.07,-0.156 0.156,-0.156 z"
           style="fill:none;stroke:#000000;stroke-width:1.41732299;stroke-linecap:round;stroke-linejoin:round;stroke-miterlimit:4;stroke-dasharray:none;stroke-opacity:0.79607801"
           id="path947"
           inkscape:connector-curvature="0" /></g><path
         d="m 459.68,202.031 h 96.781 c 0.137,0 0.246,0.11 0.246,0.246 v 31.434 c 0,0.137 -0.109,0.246 -0.246,0.246 H 459.68 c -0.137,0 -0.246,-0.109 -0.246,-0.246 v -31.434 c 0,-0.136 0.109,-0.246 0.246,-0.246 z"
         style="fill:#e3dedb;fill-opacity:1;fill-rule:nonzero;stroke:none"
         id="path949"
         inkscape:connector-curvature="0" /><g
         id="g951"><path
           d="m 459.68,202.031 h 96.781 c 0.137,0 0.246,0.11 0.246,0.246 v 31.434 c 0,0.137 -0.109,0.246 -0.246,0.246 H 459.68 c -0.137,0 -0.246,-0.109 -0.246,-0.246 v -31.434 c 0,-0.136 0.109,-0.246 0.246,-0.246 z"
           style="fill:none;stroke:#000000;stroke-width:1.41732299;stroke-linecap:round;stroke-linejoin:round;stroke-miterlimit:4;stroke-dasharray:none;stroke-opacity:0.79607801"
           id="path953"
           inkscape:connector-curvature="0" /></g><path
         d="M 90.707,41.02 H 216.012 V 77.602 L 153.359,87.691 90.707,77.602 Z"
         style="fill:#e2e3db;fill-opacity:1;fill-rule:nonzero;stroke:none"
         id="path955"
         inkscape:connector-curvature="0" /><g
         id="g957"
         transform="scale(0.886174,1)"><path
           d="m 102.358,41.02 h 141.4 v 36.582 l -70.7,10.089 -70.7,-10.089 z"
           style="fill:none;stroke:#000000;stroke-width:1.80671895;stroke-linecap:round;stroke-linejoin:round;stroke-miterlimit:4;stroke-dasharray:none;stroke-opacity:0.79607801"
           id="path959"
           inkscape:connector-curvature="0" /></g><text
         transform="matrix(1,0,0,0.99872265,122.05057,57.896851)"
         style="font-variant:normal;font-weight:600;font-size:14.35785484px;font-family:'Segoe UI Semibold';-inkscape-font-specification:SegoeUI-Semibold;writing-mode:lr-tb;fill:#000000;fill-opacity:1;fill-rule:nonzero;stroke:none"
         id="text965"><tspan
           x="0 8.6721449 12.419544 19.899986 26.648178 33.281509 39.039009 47.682438 56.053066 63.231995"
           y="0"
           sodipodi:role="line"
           id="tspan961">Black-box </tspan><tspan
           x="10.025257 17.83593 25.459951 32.940395 38.152294 44.900486"
           y="17.947332"
           sodipodi:role="line"
           id="tspan963">Search</tspan></text>
<path
         d="m 413.844,93.586 18.363,-46.57 105.43,0.285 19.593,46.285 z"
         style="fill:#e3dbe2;fill-opacity:1;fill-rule:nonzero;stroke:none"
         id="path967"
         inkscape:connector-curvature="0" /><g
         id="g969"
         transform="scale(1,0.993631)"><path
           d="m 413.844,94.186 18.363,-46.869 105.43,0.287 19.593,46.582 z"
           style="fill:none;stroke:#000000;stroke-width:1.70622897;stroke-linecap:butt;stroke-linejoin:round;stroke-miterlimit:4;stroke-dasharray:none;stroke-opacity:0.79607801"
           id="path971"
           inkscape:connector-curvature="0" /></g><g
         id="g973"><path
           d="M 533.277,198.395 V 154.586 H 508.402 V 101.887"
           style="fill:none;stroke:#000000;stroke-width:1.41732299;stroke-linecap:butt;stroke-linejoin:miter;stroke-miterlimit:4;stroke-dasharray:11.338583, 11.338583;stroke-dashoffset:0;stroke-opacity:0.79607801"
           id="path975"
           inkscape:connector-curvature="0" /></g><path
         d="m 533.277,195.617 c 1.567,0 2.836,1.27 2.836,2.836 0,1.563 -1.269,2.832 -2.836,2.832 -1.566,0 -2.836,-1.269 -2.836,-2.832 0,-1.566 1.27,-2.836 2.836,-2.836 z"
         style="fill:#000000;fill-opacity:0.79607801;fill-rule:evenodd;stroke:none"
         id="path977"
         inkscape:connector-curvature="0" /><g
         id="g979"
         transform="rotate(-90)"><path
           d="m -195.617,533.277 c 0,1.567 -1.27,2.836 -2.836,2.836 -1.563,0 -2.832,-1.269 -2.832,-2.836 0,-1.566 1.269,-2.836 2.832,-2.836 1.566,0 2.836,1.27 2.836,2.836 z"
           style="fill:none;stroke:#000000;stroke-width:0.75590599;stroke-linecap:butt;stroke-linejoin:miter;stroke-miterlimit:4;stroke-dasharray:none;stroke-opacity:0.79607801"
           id="path981"
           inkscape:connector-curvature="0" /></g><path
         d="m 508.402,95.344 5.668,9.808 h -11.336 z"
         style="fill:#000000;fill-opacity:0.79607801;fill-rule:evenodd;stroke:none"
         id="path983"
         inkscape:connector-curvature="0" /><g
         id="g985"
         transform="rotate(-90)"><path
           d="m -95.344,508.402 -9.808,5.668 v -11.336 z"
           style="fill:none;stroke:#000000;stroke-width:1.51181102;stroke-linecap:butt;stroke-linejoin:miter;stroke-miterlimit:4;stroke-dasharray:none;stroke-opacity:0.79607801"
           id="path987"
           inkscape:connector-curvature="0" /></g><path
         d="m 178.578,197.012 h 121.117 c 0.239,0 0.43,0.191 0.43,0.429 v 50.661 c 0,0.238 -0.191,0.429 -0.43,0.429 H 178.578 c -0.238,0 -0.43,-0.191 -0.43,-0.429 v -50.661 c 0,-0.238 0.192,-0.429 0.43,-0.429 z"
         style="fill:#ffffff;fill-opacity:1;fill-rule:nonzero;stroke:none"
         id="path989"
         inkscape:connector-curvature="0" /><g
         id="g991"><path
           d="m 178.578,197.012 h 121.117 c 0.239,0 0.43,0.191 0.43,0.429 v 50.661 c 0,0.238 -0.191,0.429 -0.43,0.429 H 178.578 c -0.238,0 -0.43,-0.191 -0.43,-0.429 v -50.661 c 0,-0.238 0.192,-0.429 0.43,-0.429 z"
           style="fill:none;stroke:#000000;stroke-width:1.70078695;stroke-linecap:round;stroke-linejoin:round;stroke-miterlimit:4;stroke-dasharray:none;stroke-opacity:0.79607801"
           id="path993"
           inkscape:connector-curvature="0" /></g><text
         transform="matrix(1,0,0,0.99872265,453.24361,66.628594)"
         style="font-variant:normal;font-weight:600;font-size:14.35785484px;font-family:'Segoe UI Semibold';-inkscape-font-specification:SegoeUI-Semibold;writing-mode:lr-tb;fill:#000000;fill-opacity:1;fill-rule:nonzero;stroke:none"
         id="text999"><tspan
           x="0 6.518466 14.142488 26.84919 35.492619 44.10733 49.419739 56.900181 60.647579"
           y="0"
           sodipodi:role="line"
           id="tspan995">Temporal </tspan><tspan
           x="2.3135242 13.325999 20.95002 26.133205 36.930313 45.501953 50.814358"
           y="17.947332"
           sodipodi:role="line"
           id="tspan997">Network</tspan></text>
<path
         d="m 367.387,129.461 h 92.023 c 0.344,0 0.621,0.277 0.621,0.621 v 41.188 c 0,0.343 -0.277,0.617 -0.621,0.617 h -92.023 c -0.344,0 -0.621,-0.274 -0.621,-0.617 v -41.188 c 0,-0.344 0.277,-0.621 0.621,-0.621 z"
         style="fill:#e3dbdb;fill-opacity:1;fill-rule:nonzero;stroke:none"
         id="path1001"
         inkscape:connector-curvature="0" /><g
         id="g1003"><path
           d="m 367.387,129.461 h 92.023 c 0.344,0 0.621,0.277 0.621,0.621 v 41.188 c 0,0.343 -0.277,0.617 -0.621,0.617 h -92.023 c -0.344,0 -0.621,-0.274 -0.621,-0.617 v -41.188 c 0,-0.344 0.277,-0.621 0.621,-0.621 z"
           style="fill:none;stroke:#000000;stroke-width:1.70078695;stroke-linecap:round;stroke-linejoin:round;stroke-miterlimit:4;stroke-dasharray:none;stroke-opacity:0.79607801"
           id="path1005"
           inkscape:connector-curvature="0" /></g><g
         id="g1007"><path
           d="m 283.309,192.961 c 8.254,-12.203 19.527,-22.348 32.531,-29.27 12.953,-6.898 27.605,-10.586 42.285,-10.644"
           style="fill:none;stroke:#000000;stroke-width:1.41732299;stroke-linecap:butt;stroke-linejoin:miter;stroke-miterlimit:4;stroke-dasharray:none;stroke-opacity:0.79607801"
           id="path1009"
           inkscape:connector-curvature="0" /></g><path
         d="m 284.867,190.66 c 1.297,0.875 1.637,2.641 0.758,3.938 -0.875,1.297 -2.637,1.636 -3.934,0.757 -1.296,-0.875 -1.636,-2.636 -0.761,-3.933 0.875,-1.297 2.64,-1.637 3.937,-0.762 z"
         style="fill:#000000;fill-opacity:0.79607801;fill-rule:evenodd;stroke:none"
         id="path1011"
         inkscape:connector-curvature="0" /><g
         id="g1013"
         transform="matrix(0.676137,-1,1,0.676137,0,0)"><path
           d="m 1.338,283.963 c 10e-4,1.296 -1.053,2.348 -2.351,2.347 -1.296,10e-4 -2.347,-1.05 -2.345,-2.348 -0.002,-1.296 1.05,-2.347 2.346,-2.348 1.296,-10e-4 2.348,1.053 2.35,2.349 z"
           style="fill:none;stroke:#000000;stroke-width:0.62620097;stroke-linecap:butt;stroke-linejoin:miter;stroke-miterlimit:4;stroke-dasharray:none;stroke-opacity:0.79607801"
           id="path1015"
           inkscape:connector-curvature="0" /></g><path
         d="m 364.668,153.02 -9.785,5.71 -0.047,-11.339 z"
         style="fill:#000000;fill-opacity:0.79607801;fill-rule:evenodd;stroke:none"
         id="path1017"
         inkscape:connector-curvature="0" /><g
         id="g1019"
         transform="matrix(1,-0.00394919,0.00394919,1,0,0)"><path
           d="m 364.058,154.457 -9.808,5.672 -0.002,-11.339 z"
           style="fill:none;stroke:#000000;stroke-width:1.51179898;stroke-linecap:butt;stroke-linejoin:miter;stroke-miterlimit:4;stroke-dasharray:none;stroke-opacity:0.79607801"
           id="path1021"
           inkscape:connector-curvature="0" /></g><g
         id="g1023"><path
           d="M 397.828,198.5 V 180.418"
           style="fill:none;stroke:#000000;stroke-width:1.41732299;stroke-linecap:butt;stroke-linejoin:miter;stroke-miterlimit:4;stroke-dasharray:none;stroke-opacity:0.79607801"
           id="path1025"
           inkscape:connector-curvature="0" /></g><path
         d="m 397.828,195.723 c 1.563,0 2.832,1.269 2.832,2.832 0,1.566 -1.269,2.836 -2.832,2.836 -1.566,0 -2.836,-1.27 -2.836,-2.836 0,-1.563 1.27,-2.832 2.836,-2.832 z"
         style="fill:#000000;fill-opacity:0.79607801;fill-rule:evenodd;stroke:none"
         id="path1027"
         inkscape:connector-curvature="0" /><g
         id="g1029"
         transform="rotate(-90)"><path
           d="m -195.723,397.828 c 0,1.563 -1.269,2.832 -2.832,2.832 -1.566,0 -2.836,-1.269 -2.836,-2.832 0,-1.566 1.27,-2.836 2.836,-2.836 1.563,0 2.832,1.27 2.832,2.836 z"
           style="fill:none;stroke:#000000;stroke-width:0.75590599;stroke-linecap:butt;stroke-linejoin:miter;stroke-miterlimit:4;stroke-dasharray:none;stroke-opacity:0.79607801"
           id="path1031"
           inkscape:connector-curvature="0" /></g><path
         d="m 397.828,173.879 5.668,9.805 h -11.34 z"
         style="fill:#000000;fill-opacity:0.79607801;fill-rule:evenodd;stroke:none"
         id="path1033"
         inkscape:connector-curvature="0" /><g
         id="g1035"
         transform="rotate(-90)"><path
           d="m -173.879,397.828 -9.805,5.668 v -11.34 z"
           style="fill:none;stroke:#000000;stroke-width:1.51181102;stroke-linecap:butt;stroke-linejoin:miter;stroke-miterlimit:4;stroke-dasharray:none;stroke-opacity:0.79607801"
           id="path1037"
           inkscape:connector-curvature="0" /></g><text
         transform="matrix(1,0,0,0.99872265,375.79293,154.51187)"
         style="font-variant:normal;font-weight:600;font-size:14.35785484px;font-family:'Segoe UI Semibold';-inkscape-font-specification:SegoeUI-Semibold;writing-mode:lr-tb;fill:#000000;fill-opacity:1;fill-rule:nonzero;stroke:none"
         id="text1041"><tspan
           x="0 9.6341209 18.004749 26.648178 39.397953 47.021976 55.392605 60.504002 69.075638"
           y="0"
           sodipodi:role="line"
           id="tspan1039">Augmentor</tspan></text>
<g
         id="g1043"><path
           d="M 443.414,125.551 V 101.969"
           style="fill:none;stroke:#000000;stroke-width:1.41732299;stroke-linecap:butt;stroke-linejoin:miter;stroke-miterlimit:4;stroke-dasharray:none;stroke-opacity:0.79607801"
           id="path1045"
           inkscape:connector-curvature="0" /></g><path
         d="m 443.414,122.773 c 1.566,0 2.836,1.27 2.836,2.836 0,1.567 -1.27,2.836 -2.836,2.836 -1.562,0 -2.832,-1.269 -2.832,-2.836 0,-1.566 1.27,-2.836 2.832,-2.836 z"
         style="fill:#000000;fill-opacity:0.79607801;fill-rule:evenodd;stroke:none"
         id="path1047"
         inkscape:connector-curvature="0" /><g
         id="g1049"
         transform="rotate(-90)"><path
           d="m -122.773,443.414 c 0,1.566 -1.27,2.836 -2.836,2.836 -1.567,0 -2.836,-1.27 -2.836,-2.836 0,-1.562 1.269,-2.832 2.836,-2.832 1.566,0 2.836,1.27 2.836,2.832 z"
           style="fill:none;stroke:#000000;stroke-width:0.75590497;stroke-linecap:butt;stroke-linejoin:miter;stroke-miterlimit:4;stroke-dasharray:none;stroke-opacity:0.79607801"
           id="path1051"
           inkscape:connector-curvature="0" /></g><path
         d="m 443.414,95.426 5.672,9.808 h -11.34 z"
         style="fill:#000000;fill-opacity:0.79607801;fill-rule:evenodd;stroke:none"
         id="path1053"
         inkscape:connector-curvature="0" /><g
         id="g1055"
         transform="rotate(-90)"><path
           d="m -95.426,443.414 -9.808,5.672 v -11.34 z"
           style="fill:none;stroke:#000000;stroke-width:1.51181102;stroke-linecap:butt;stroke-linejoin:miter;stroke-miterlimit:4;stroke-dasharray:none;stroke-opacity:0.79607801"
           id="path1057"
           inkscape:connector-curvature="0" /></g><path
         d="m 183.402,200.602 h 8.348 c 0.414,0 0.75,0.336 0.75,0.75 v 9.105 c 0,0.414 -0.336,0.75 -0.75,0.75 h -8.348 c -0.414,0 -0.75,-0.336 -0.75,-0.75 v -9.105 c 0,-0.414 0.336,-0.75 0.75,-0.75 z"
         style="fill:#4d4d4d;fill-opacity:1;fill-rule:nonzero;stroke:none"
         id="path1059"
         inkscape:connector-curvature="0" /><path
         d="m 196.254,200.602 h 8.344 c 0.418,0 0.754,0.336 0.754,0.75 v 9.105 c 0,0.414 -0.336,0.75 -0.754,0.75 h -8.344 c -0.418,0 -0.754,-0.336 -0.754,-0.75 v -9.105 c 0,-0.414 0.336,-0.75 0.754,-0.75 z"
         style="fill:#4d4d4d;fill-opacity:1;fill-rule:nonzero;stroke:none"
         id="path1061"
         inkscape:connector-curvature="0" /><path
         d="m 209.102,200.602 h 8.343 c 0.418,0 0.754,0.336 0.754,0.75 v 9.105 c 0,0.414 -0.336,0.75 -0.754,0.75 h -8.343 c -0.418,0 -0.75,-0.336 -0.75,-0.75 v -9.105 c 0,-0.414 0.332,-0.75 0.75,-0.75 z"
         style="fill:#4d4d4d;fill-opacity:1;fill-rule:nonzero;stroke:none"
         id="path1063"
         inkscape:connector-curvature="0" /><path
         d="m 221.949,200.602 h 8.348 c 0.414,0 0.75,0.336 0.75,0.75 v 9.105 c 0,0.414 -0.336,0.75 -0.75,0.75 h -8.348 c -0.414,0 -0.75,-0.336 -0.75,-0.75 v -9.105 c 0,-0.414 0.336,-0.75 0.75,-0.75 z"
         style="fill:#4d4d4d;fill-opacity:1;fill-rule:nonzero;stroke:none"
         id="path1065"
         inkscape:connector-curvature="0" /><path
         d="m 234.801,200.602 h 8.344 c 0.418,0 0.753,0.336 0.753,0.75 v 9.105 c 0,0.414 -0.335,0.75 -0.753,0.75 h -8.344 c -0.418,0 -0.754,-0.336 -0.754,-0.75 v -9.105 c 0,-0.414 0.336,-0.75 0.754,-0.75 z"
         style="fill:#4d4d4d;fill-opacity:1;fill-rule:nonzero;stroke:none"
         id="path1067"
         inkscape:connector-curvature="0" /><path
         d="m 247.648,200.602 h 8.344 c 0.418,0 0.754,0.336 0.754,0.75 v 9.105 c 0,0.414 -0.336,0.75 -0.754,0.75 h -8.344 c -0.418,0 -0.75,-0.336 -0.75,-0.75 v -9.105 c 0,-0.414 0.332,-0.75 0.75,-0.75 z"
         style="fill:#4d4d4d;fill-opacity:1;fill-rule:nonzero;stroke:none"
         id="path1069"
         inkscape:connector-curvature="0" /><path
         d="m 260.496,200.602 h 8.348 c 0.414,0 0.75,0.336 0.75,0.75 v 9.105 c 0,0.414 -0.336,0.75 -0.75,0.75 h -8.348 c -0.414,0 -0.75,-0.336 -0.75,-0.75 v -9.105 c 0,-0.414 0.336,-0.75 0.75,-0.75 z"
         style="fill:#4d4d4d;fill-opacity:1;fill-rule:nonzero;stroke:none"
         id="path1071"
         inkscape:connector-curvature="0" /><path
         d="m 273.348,200.602 h 8.343 c 0.418,0 0.754,0.336 0.754,0.75 v 9.105 c 0,0.414 -0.336,0.75 -0.754,0.75 h -8.343 c -0.418,0 -0.754,-0.336 -0.754,-0.75 v -9.105 c 0,-0.414 0.336,-0.75 0.754,-0.75 z"
         style="fill:#4d4d4d;fill-opacity:1;fill-rule:nonzero;stroke:none"
         id="path1073"
         inkscape:connector-curvature="0" /><path
         d="m 286.195,200.602 h 8.344 c 0.418,0 0.754,0.336 0.754,0.75 v 9.105 c 0,0.414 -0.336,0.75 -0.754,0.75 h -8.344 c -0.414,0 -0.75,-0.336 -0.75,-0.75 v -9.105 c 0,-0.414 0.336,-0.75 0.75,-0.75 z"
         style="fill:#4d4d4d;fill-opacity:1;fill-rule:nonzero;stroke:none"
         id="path1075"
         inkscape:connector-curvature="0" /><path
         d="m 183.402,217.207 h 8.348 c 0.414,0 0.75,0.336 0.75,0.754 v 9.102 c 0,0.417 -0.336,0.75 -0.75,0.75 h -8.348 c -0.414,0 -0.75,-0.333 -0.75,-0.75 v -9.102 c 0,-0.418 0.336,-0.754 0.75,-0.754 z"
         style="fill:#4d4d4d;fill-opacity:1;fill-rule:nonzero;stroke:none"
         id="path1077"
         inkscape:connector-curvature="0" /><path
         d="m 196.254,217.207 h 8.344 c 0.418,0 0.754,0.336 0.754,0.754 v 9.102 c 0,0.417 -0.336,0.75 -0.754,0.75 h -8.344 c -0.418,0 -0.754,-0.333 -0.754,-0.75 v -9.102 c 0,-0.418 0.336,-0.754 0.754,-0.754 z"
         style="fill:#4d4d4d;fill-opacity:1;fill-rule:nonzero;stroke:none"
         id="path1079"
         inkscape:connector-curvature="0" /><path
         d="m 209.102,217.207 h 8.343 c 0.418,0 0.754,0.336 0.754,0.754 v 9.102 c 0,0.417 -0.336,0.75 -0.754,0.75 h -8.343 c -0.418,0 -0.75,-0.333 -0.75,-0.75 v -9.102 c 0,-0.418 0.332,-0.754 0.75,-0.754 z"
         style="fill:#4d4d4d;fill-opacity:1;fill-rule:nonzero;stroke:none"
         id="path1081"
         inkscape:connector-curvature="0" /><path
         d="m 221.949,217.207 h 8.348 c 0.414,0 0.75,0.336 0.75,0.754 v 9.102 c 0,0.417 -0.336,0.75 -0.75,0.75 h -8.348 c -0.414,0 -0.75,-0.333 -0.75,-0.75 v -9.102 c 0,-0.418 0.336,-0.754 0.75,-0.754 z"
         style="fill:#4d4d4d;fill-opacity:1;fill-rule:nonzero;stroke:none"
         id="path1083"
         inkscape:connector-curvature="0" /><path
         d="m 234.801,217.207 h 8.344 c 0.418,0 0.753,0.336 0.753,0.754 v 9.102 c 0,0.417 -0.335,0.75 -0.753,0.75 h -8.344 c -0.418,0 -0.754,-0.333 -0.754,-0.75 v -9.102 c 0,-0.418 0.336,-0.754 0.754,-0.754 z"
         style="fill:#4d4d4d;fill-opacity:1;fill-rule:nonzero;stroke:none"
         id="path1085"
         inkscape:connector-curvature="0" /><path
         d="m 247.648,217.207 h 8.344 c 0.418,0 0.754,0.336 0.754,0.754 v 9.102 c 0,0.417 -0.336,0.75 -0.754,0.75 h -8.344 c -0.418,0 -0.75,-0.333 -0.75,-0.75 v -9.102 c 0,-0.418 0.332,-0.754 0.75,-0.754 z"
         style="fill:#4d4d4d;fill-opacity:1;fill-rule:nonzero;stroke:none"
         id="path1087"
         inkscape:connector-curvature="0" /><path
         d="m 260.496,217.207 h 8.348 c 0.414,0 0.75,0.336 0.75,0.754 v 9.102 c 0,0.417 -0.336,0.75 -0.75,0.75 h -8.348 c -0.414,0 -0.75,-0.333 -0.75,-0.75 v -9.102 c 0,-0.418 0.336,-0.754 0.75,-0.754 z"
         style="fill:#4d4d4d;fill-opacity:1;fill-rule:nonzero;stroke:none"
         id="path1089"
         inkscape:connector-curvature="0" /><path
         d="m 286.195,217.207 h 8.344 c 0.418,0 0.754,0.336 0.754,0.754 v 9.102 c 0,0.417 -0.336,0.75 -0.754,0.75 h -8.344 c -0.414,0 -0.75,-0.333 -0.75,-0.75 v -9.102 c 0,-0.418 0.336,-0.754 0.75,-0.754 z"
         style="fill:#4d4d4d;fill-opacity:1;fill-rule:nonzero;stroke:none"
         id="path1091"
         inkscape:connector-curvature="0" /><path
         d="m 273.348,217.207 h 8.343 c 0.418,0 0.754,0.336 0.754,0.754 v 9.102 c 0,0.417 -0.336,0.75 -0.754,0.75 h -8.343 c -0.418,0 -0.754,-0.333 -0.754,-0.75 v -9.102 c 0,-0.418 0.336,-0.754 0.754,-0.754 z"
         style="fill:#4d4d4d;fill-opacity:1;fill-rule:nonzero;stroke:none"
         id="path1093"
         inkscape:connector-curvature="0" /><path
         d="m 183.402,233.813 h 8.348 c 0.414,0 0.75,0.335 0.75,0.753 v 9.102 c 0,0.418 -0.336,0.754 -0.75,0.754 h -8.348 c -0.414,0 -0.75,-0.336 -0.75,-0.754 v -9.102 c 0,-0.418 0.336,-0.753 0.75,-0.753 z"
         style="fill:#4d4d4d;fill-opacity:1;fill-rule:nonzero;stroke:none"
         id="path1095"
         inkscape:connector-curvature="0" /><path
         d="m 196.254,233.813 h 8.344 c 0.418,0 0.754,0.335 0.754,0.753 v 9.102 c 0,0.418 -0.336,0.754 -0.754,0.754 h -8.344 c -0.418,0 -0.754,-0.336 -0.754,-0.754 v -9.102 c 0,-0.418 0.336,-0.753 0.754,-0.753 z"
         style="fill:#4d4d4d;fill-opacity:1;fill-rule:nonzero;stroke:none"
         id="path1097"
         inkscape:connector-curvature="0" /><path
         d="m 209.102,233.813 h 8.343 c 0.418,0 0.754,0.335 0.754,0.753 v 9.102 c 0,0.418 -0.336,0.754 -0.754,0.754 h -8.343 c -0.418,0 -0.75,-0.336 -0.75,-0.754 v -9.102 c 0,-0.418 0.332,-0.753 0.75,-0.753 z"
         style="fill:#4d4d4d;fill-opacity:1;fill-rule:nonzero;stroke:none"
         id="path1099"
         inkscape:connector-curvature="0" /><path
         d="m 221.949,233.813 h 8.348 c 0.414,0 0.75,0.335 0.75,0.753 v 9.102 c 0,0.418 -0.336,0.754 -0.75,0.754 h -8.348 c -0.414,0 -0.75,-0.336 -0.75,-0.754 v -9.102 c 0,-0.418 0.336,-0.753 0.75,-0.753 z"
         style="fill:#4d4d4d;fill-opacity:1;fill-rule:nonzero;stroke:none"
         id="path1101"
         inkscape:connector-curvature="0" /><path
         d="m 247.648,233.813 h 8.344 c 0.418,0 0.754,0.335 0.754,0.753 v 9.102 c 0,0.418 -0.336,0.754 -0.754,0.754 h -8.344 c -0.418,0 -0.75,-0.336 -0.75,-0.754 v -9.102 c 0,-0.418 0.332,-0.753 0.75,-0.753 z"
         style="fill:#4d4d4d;fill-opacity:1;fill-rule:nonzero;stroke:none"
         id="path1103"
         inkscape:connector-curvature="0" /><path
         d="m 260.496,233.813 h 8.348 c 0.414,0 0.75,0.335 0.75,0.753 v 9.102 c 0,0.418 -0.336,0.754 -0.75,0.754 h -8.348 c -0.414,0 -0.75,-0.336 -0.75,-0.754 v -9.102 c 0,-0.418 0.336,-0.753 0.75,-0.753 z"
         style="fill:#4d4d4d;fill-opacity:1;fill-rule:nonzero;stroke:none"
         id="path1105"
         inkscape:connector-curvature="0" /><path
         d="m 286.195,233.813 h 8.344 c 0.418,0 0.754,0.335 0.754,0.753 v 9.102 c 0,0.418 -0.336,0.754 -0.754,0.754 h -8.344 c -0.414,0 -0.75,-0.336 -0.75,-0.754 v -9.102 c 0,-0.418 0.336,-0.753 0.75,-0.753 z"
         style="fill:#4d4d4d;fill-opacity:1;fill-rule:nonzero;stroke:none"
         id="path1107"
         inkscape:connector-curvature="0" /><path
         d="m 273.348,233.813 h 8.343 c 0.418,0 0.754,0.335 0.754,0.753 v 9.102 c 0,0.418 -0.336,0.754 -0.754,0.754 h -8.343 c -0.418,0 -0.754,-0.336 -0.754,-0.754 v -9.102 c 0,-0.418 0.336,-0.753 0.754,-0.753 z"
         style="fill:#4d4d4d;fill-opacity:1;fill-rule:nonzero;stroke:none"
         id="path1109"
         inkscape:connector-curvature="0" /><path
         d="m 234.801,233.813 h 8.344 c 0.418,0 0.753,0.335 0.753,0.753 v 9.102 c 0,0.418 -0.335,0.754 -0.753,0.754 h -8.344 c -0.418,0 -0.754,-0.336 -0.754,-0.754 v -9.102 c 0,-0.418 0.336,-0.753 0.754,-0.753 z"
         style="fill:#4d4d4d;fill-opacity:1;fill-rule:nonzero;stroke:none"
         id="path1111"
         inkscape:connector-curvature="0" /><g
         id="g1113"><path
           d="M 486.605,19.113 H 194.863 v 13.731"
           style="fill:none;stroke:#000000;stroke-width:1.41732299;stroke-linecap:round;stroke-linejoin:round;stroke-miterlimit:4;stroke-dasharray:none;stroke-opacity:0.79607801"
           id="path1115"
           inkscape:connector-curvature="0" /></g><path
         d="m 194.863,39.387 -5.668,-9.809 h 11.336 z"
         style="fill:#000000;fill-opacity:0.79607801;fill-rule:evenodd;stroke:none"
         id="path1117"
         inkscape:connector-curvature="0" /><g
         id="g1119"
         transform="rotate(90)"><path
           d="m 39.387,-194.863 -9.809,5.668 v -11.336 z"
           style="fill:none;stroke:#000000;stroke-width:1.51181102;stroke-linecap:butt;stroke-linejoin:miter;stroke-miterlimit:4;stroke-dasharray:none;stroke-opacity:0.79607801"
           id="path1121"
           inkscape:connector-curvature="0" /></g><g
         id="g1123"><path
           d="m 486.496,19.273 -0.008,27.086"
           style="fill:none;stroke:#000000;stroke-width:1.70078695;stroke-linecap:round;stroke-linejoin:miter;stroke-miterlimit:4;stroke-dasharray:none;stroke-opacity:0.79607801"
           id="path1125"
           inkscape:connector-curvature="0" /></g><text
         transform="matrix(1,0,0,0.99872265,174.0033,265.39201)"
         style="font-variant:normal;font-weight:600;font-size:14.35785484px;font-family:'Segoe UI Semibold';-inkscape-font-specification:SegoeUI-Semibold;writing-mode:lr-tb;fill:#000000;fill-opacity:1;fill-rule:nonzero;stroke:none"
         id="text1129"><tspan
           x="0 7.3942952 12.577481 17.889887 25.370329 30.481726 38.105747 46.749176 54.042965 57.97702 66.563019 74.187035 82.830467 91.402107 97.59034 101.33774 106.46349 115.03513 120.96493"
           y="0"
           sodipodi:role="line"
           id="tspan1127">Strategy Repository</tspan></text>
<text
         transform="matrix(1,0,0,0.99872265,484.00307,119.73677)"
         style="font-variant:normal;font-weight:600;font-size:12.00767231px;font-family:'Segoe UI Semibold';-inkscape-font-specification:SegoeUI-Semibold;writing-mode:lr-tb;fill:#000000;fill-opacity:1;fill-rule:nonzero;stroke:none"
         id="text1135"><tspan
           x="0 6.2079663 12.115741 18.371738 21.505741 28.506214 34.762211 39.096981 42.230984 49.399563"
           y="0"
           sodipodi:role="line"
           id="tspan1131">Evaluation</tspan><tspan
           x="-88.792435 -83.148827 -78.705994 -72.449997 -69.315994 -62.315517 -59.181515 -52.181046"
           y="-0.98938775"
           sodipodi:role="line"
           id="tspan1133">Training</tspan></text>
<text
         transform="matrix(1,0,0,0.99872267,217.19202,10.356661)"
         style="font-variant:normal;font-weight:600;font-size:14.00895023px;font-family:'Segoe UI Semibold';-inkscape-font-specification:SegoeUI-Semibold;writing-mode:lr-tb;fill:#000000;fill-opacity:1;fill-rule:nonzero;stroke:none"
         id="text1139"><tspan
           x="0 7.0324931 10.688828 15.746059 23.913279 31.35203 37.389889 43.427746 47.266197 54.887066 61.513298 69.87664 74.975899 82.41465 86.253105 91.870697 95.709145 102.74164 108.35923 114.39709 120.98129 129.38666 134.47191 141.91066 145.74911 154.11246 162.27968 166.11813 173.02454 180.32321 183.97954 187.63588 196.06926 203.36792 208.42516 212.0815 220.44484 228.65408 232.49254 238.5304 245.96915"
           y="0"
           sodipodi:role="line"
           id="tspan1137">Fitness Score - F-score on validation set</tspan></text>
<g
         id="g1141"><path
           d="m 95.98,170.074 c 0,0 0,0 4.508,0.813 4.508,0.812 13.524,2.437 18.766,7.34 5.246,4.906 6.715,13.093 5.59,18.527 -1.129,5.434 -4.465,7.836 -5.985,10.469 -1.519,2.629 -0.992,5.515 -2.867,9.277 -1.871,3.766 -6.133,8.484 -6.535,13.156 -0.406,4.668 3.051,9.282 -1.551,14.836 -4.601,5.551 -17.258,12.047 -25.875,13.102 -8.613,1.054 -12.875,-3.031 -20.234,-1.762 -7.356,1.27 -17.66,8.047 -23.098,7.059 C 33.262,261.898 32.656,252.586 26.328,244.539 20,236.492 7.93,229.434 3.367,223.082 c -4.562,-6.352 -1.621,-12 -1.179,-19.055 0.441,-7.058 -1.618,-15.531 1.179,-20.047 2.797,-4.515 10.449,-5.082 14.863,-9.597 4.418,-4.52 5.594,-12.988 8.391,-19.199 2.797,-6.211 7.211,-10.164 12.805,-11.579 5.594,-1.41 12.363,-0.281 16.75,0.133 4.383,0.41 6.738,0.047 8.949,0.473 2.207,0.422 4.445,1.605 8.398,2.371 3.954,0.766 9.625,1.113 13.696,4.996 4.066,3.879 6.531,11.293 8.996,18.703"
           style="fill:#f9f9f9;fill-opacity:1;fill-rule:nonzero;stroke:#000000;stroke-width:1.70078695;stroke-linecap:butt;stroke-linejoin:miter;stroke-miterlimit:4;stroke-dasharray:none;stroke-opacity:1"
           id="path1143"
           inkscape:connector-curvature="0" /></g><path
         d="m 57.207,181.215 c 0,1.969 -1.492,3.566 -3.332,3.566 -1.836,0 -3.328,-1.597 -3.328,-3.566 0,-1.969 1.492,-3.567 3.328,-3.567 1.84,0 3.332,1.598 3.332,3.567 z"
         style="fill:#000000;fill-opacity:1;fill-rule:nonzero;stroke:none"
         id="path1145"
         inkscape:connector-curvature="0" /><path
         d="m 75.516,203.672 c 0,1.969 -1.493,3.566 -3.332,3.566 -1.836,0 -3.329,-1.597 -3.329,-3.566 0,-1.969 1.493,-3.567 3.329,-3.567 1.839,0 3.332,1.598 3.332,3.567 z"
         style="fill:#000000;fill-opacity:1;fill-rule:nonzero;stroke:none"
         id="path1147"
         inkscape:connector-curvature="0" /><path
         d="m 43.371,232.871 c 0,1.969 -1.492,3.563 -3.328,3.563 -1.84,0 -3.332,-1.594 -3.332,-3.563 0,-1.973 1.492,-3.566 3.332,-3.566 1.836,0 3.328,1.593 3.328,3.566 z"
         style="fill:#000000;fill-opacity:1;fill-rule:nonzero;stroke:none"
         id="path1149"
         inkscape:connector-curvature="0" /><path
         d="m 17.926,192.691 c 0,1.969 -1.492,3.567 -3.332,3.567 -1.836,0 -3.328,-1.598 -3.328,-3.567 0,-1.968 1.492,-3.566 3.328,-3.566 1.84,0 3.332,1.598 3.332,3.566 z"
         style="fill:#000000;fill-opacity:1;fill-rule:nonzero;stroke:none"
         id="path1151"
         inkscape:connector-curvature="0" /><path
         d="m 50.336,153.582 c 0,1.973 -1.492,3.566 -3.328,3.566 -1.84,0 -3.332,-1.593 -3.332,-3.566 0,-1.969 1.492,-3.562 3.332,-3.562 1.836,0 3.328,1.593 3.328,3.562 z"
         style="fill:#000000;fill-opacity:1;fill-rule:nonzero;stroke:none"
         id="path1153"
         inkscape:connector-curvature="0" /><path
         d="m 109.801,209.297 c 0,1.969 -1.492,3.566 -3.332,3.566 -1.836,0 -3.328,-1.597 -3.328,-3.566 0,-1.969 1.492,-3.567 3.328,-3.567 1.84,0 3.332,1.598 3.332,3.567 z"
         style="fill:#000000;fill-opacity:1;fill-rule:nonzero;stroke:none"
         id="path1155"
         inkscape:connector-curvature="0" /><path
         d="m 91.051,233.941 c 0,1.969 -1.492,3.567 -3.332,3.567 -1.836,0 -3.328,-1.598 -3.328,-3.567 0,-1.968 1.492,-3.566 3.328,-3.566 1.84,0 3.332,1.598 3.332,3.566 z"
         style="fill:#000000;fill-opacity:1;fill-rule:nonzero;stroke:none"
         id="path1157"
         inkscape:connector-curvature="0" /><path
         d="m 21.676,216.797 c 0,1.969 -1.492,3.566 -3.332,3.566 -1.836,0 -3.328,-1.597 -3.328,-3.566 0,-1.969 1.492,-3.567 3.328,-3.567 1.84,0 3.332,1.598 3.332,3.567 z"
         style="fill:#000000;fill-opacity:1;fill-rule:nonzero;stroke:none"
         id="path1159"
         inkscape:connector-curvature="0" /><path
         d="m 95.605,182.781 c 0,1.969 -1.492,3.567 -3.332,3.567 -1.839,0 -3.328,-1.598 -3.328,-3.567 0,-1.968 1.489,-3.566 3.328,-3.566 1.84,0 3.332,1.598 3.332,3.566 z"
         style="fill:#000000;fill-opacity:1;fill-rule:nonzero;stroke:none"
         id="path1161"
         inkscape:connector-curvature="0" /><path
         d="m 45.781,204.207 c 0,1.973 -1.488,3.566 -3.328,3.566 -1.84,0 -3.328,-1.593 -3.328,-3.566 0,-1.969 1.488,-3.562 3.328,-3.562 1.84,0 3.328,1.593 3.328,3.562 z"
         style="fill:#000000;fill-opacity:1;fill-rule:nonzero;stroke:none"
         id="path1163"
         inkscape:connector-curvature="0" /><path
         d="m 79.801,167.781 c 0,1.969 -1.492,3.567 -3.332,3.567 -1.836,0 -3.328,-1.598 -3.328,-3.567 0,-1.968 1.492,-3.566 3.328,-3.566 1.84,0 3.332,1.598 3.332,3.566 z"
         style="fill:#000000;fill-opacity:1;fill-rule:nonzero;stroke:none"
         id="path1165"
         inkscape:connector-curvature="0" /><path
         d="m 62.391,246.797 c 0,1.969 -1.493,3.566 -3.332,3.566 -1.836,0 -3.329,-1.597 -3.329,-3.566 0,-1.969 1.493,-3.567 3.329,-3.567 1.839,0 3.332,1.598 3.332,3.567 z"
         style="fill:#000000;fill-opacity:1;fill-rule:nonzero;stroke:none"
         id="path1167"
         inkscape:connector-curvature="0" /><text
         transform="matrix(1,0,0,0.99872265,15.914554,280.14989)"
         style="font-variant:normal;font-weight:600;font-size:14.35785484px;font-family:'Segoe UI Semibold';-inkscape-font-specification:SegoeUI-Semibold;writing-mode:lr-tb;fill:#000000;fill-opacity:1;fill-rule:nonzero;stroke:none"
         id="text1171"><tspan
           x="0 7.8106732 15.434694 22.915136 28.127037 34.875229 43.231503 47.165554 54.976227 63.490437 70.970879 77.71907"
           y="0"
           sodipodi:role="line"
           id="tspan1169">Search Space</tspan></text>
<g
         id="g1173"><path
           d="m 57.027,135.855 c 8.075,-11.789 18.145,-22.203 29.653,-30.671 11.172,-8.223 23.691,-14.61 36.906,-18.825"
           style="fill:none;stroke:#000000;stroke-width:1.41732299;stroke-linecap:butt;stroke-linejoin:miter;stroke-miterlimit:4;stroke-dasharray:none;stroke-opacity:0.79607801"
           id="path1175"
           inkscape:connector-curvature="0" /></g><path
         d="m 53.328,141.25 0.867,-11.293 9.356,6.406 z"
         style="fill:#000000;fill-opacity:0.79607801;fill-rule:evenodd;stroke:none"
         id="path1177"
         inkscape:connector-curvature="0" /><g
         id="g1179"
         transform="matrix(-0.685188,1,-1,-0.685188,0,0)"><path
           d="m 71.257,-102.152 -8.09,4.675 -0.003,-9.353 z"
           style="fill:none;stroke:#000000;stroke-width:1.24714005;stroke-linecap:butt;stroke-linejoin:miter;stroke-miterlimit:4;stroke-dasharray:none;stroke-opacity:0.79607801"
           id="path1181"
           inkscape:connector-curvature="0" /></g><path
         d="m 126.23,85.516 c 0.477,1.492 -0.347,3.086 -1.839,3.562 -1.489,0.477 -3.086,-0.348 -3.563,-1.84 -0.473,-1.488 0.352,-3.086 1.84,-3.562 1.492,-0.473 3.086,0.351 3.562,1.84 z"
         style="fill:#000000;fill-opacity:0.79607801;fill-rule:evenodd;stroke:none"
         id="path1183"
         inkscape:connector-curvature="0" /><g
         id="g1185"
         transform="matrix(1,-0.318917,0.318917,1,0,0)"><path
           d="m 89.822,114.162 c 10e-4,1.492 -1.208,2.7 -2.701,2.701 -1.489,0.001 -2.7,-1.209 -2.701,-2.702 0.002,-1.487 1.213,-2.699 2.701,-2.701 1.492,0.003 2.7,1.213 2.701,2.702 z"
           style="fill:none;stroke:#000000;stroke-width:0.72016901;stroke-linecap:butt;stroke-linejoin:miter;stroke-miterlimit:4;stroke-dasharray:none;stroke-opacity:0.79607801"
           id="path1187"
           inkscape:connector-curvature="0" /></g><g
         id="g1189"><path
           d="m 229.133,188.582 c -3.574,-21.91 -10.692,-43.242 -20.988,-62.91 -7.223,-13.797 -16.004,-26.774 -26.122,-38.609"
           style="fill:none;stroke:#000000;stroke-width:1.41732299;stroke-linecap:butt;stroke-linejoin:miter;stroke-miterlimit:4;stroke-dasharray:none;stroke-opacity:0.79607801"
           id="path1191"
           inkscape:connector-curvature="0" /></g><path
         d="m 230.184,195.039 -7.172,-8.766 11.191,-1.824 z"
         style="fill:#000000;fill-opacity:0.79607801;fill-rule:evenodd;stroke:none"
         id="path1193"
         inkscape:connector-curvature="0" /><g
         id="g1195"
         transform="matrix(0.163034,1,-1,0.163034,0,0)"><path
           d="m 226.545,-193.249 -9.677,5.594 v -11.191 z"
           style="fill:none;stroke:#000000;stroke-width:1.49211097;stroke-linecap:butt;stroke-linejoin:miter;stroke-miterlimit:4;stroke-dasharray:none;stroke-opacity:0.79607801"
           id="path1197"
           inkscape:connector-curvature="0" /></g><path
         d="m 180.215,84.953 c 1.191,-1.015 2.98,-0.879 4,0.313 1.015,1.187 0.875,2.98 -0.313,3.996 -1.191,1.015 -2.98,0.875 -4,-0.313 -1.015,-1.187 -0.875,-2.98 0.313,-3.996 z"
         style="fill:#000000;fill-opacity:0.79607801;fill-rule:evenodd;stroke:none"
         id="path1199"
         inkscape:connector-curvature="0" /><g
         id="g1201"
         transform="matrix(-0.854932,-1,1,-0.854932,0,0)"><path
           d="m -138.092,62.156 c -0.002,1.19 -0.964,2.156 -2.156,2.156 -1.188,0 -2.154,-0.966 -2.154,-2.154 10e-4,-1.19 0.966,-2.154 2.156,-2.157 1.187,0 2.154,0.967 2.154,2.155 z"
           style="fill:none;stroke:#000000;stroke-width:0.57455301;stroke-linecap:butt;stroke-linejoin:miter;stroke-miterlimit:4;stroke-dasharray:none;stroke-opacity:0.79607801"
           id="path1203"
           inkscape:connector-curvature="0" /></g><path
         d="m 62.477,222.617 c 0,1.969 -1.493,3.567 -3.332,3.567 -1.836,0 -3.329,-1.598 -3.329,-3.567 0,-1.969 1.493,-3.566 3.329,-3.566 1.839,0 3.332,1.597 3.332,3.566 z"
         style="fill:#000000;fill-opacity:1;fill-rule:nonzero;stroke:none"
         id="path1205"
         inkscape:connector-curvature="0" /><g
         id="g1207"><path
           d="m 349.426,302.367 v 13.637 H 563.5 v -12.879"
           style="fill:none;stroke:#000000;stroke-width:1.41732299;stroke-linecap:round;stroke-linejoin:round;stroke-miterlimit:4;stroke-dasharray:none;stroke-opacity:0.79607801"
           id="path1209"
           inkscape:connector-curvature="0" /></g><g
         id="g1211"><path
           d="m 451.891,339.859 v -23.66"
           style="fill:none;stroke:#000000;stroke-width:1.41732299;stroke-linecap:round;stroke-linejoin:miter;stroke-miterlimit:4;stroke-dasharray:none;stroke-opacity:0.79607801"
           id="path1213"
           inkscape:connector-curvature="0" /></g><path
         d="m 451.891,337.082 c 1.566,0 2.836,1.27 2.836,2.832 0,1.566 -1.27,2.836 -2.836,2.836 -1.563,0 -2.832,-1.27 -2.832,-2.836 0,-1.562 1.269,-2.832 2.832,-2.832 z"
         style="fill:#000000;fill-opacity:0.79607801;fill-rule:evenodd;stroke:none"
         id="path1215"
         inkscape:connector-curvature="0" /><g
         id="g1217"
         transform="rotate(-90)"><path
           d="m -337.082,451.891 c 0,1.566 -1.27,2.836 -2.832,2.836 -1.566,0 -2.836,-1.27 -2.836,-2.836 0,-1.563 1.27,-2.832 2.836,-2.832 1.562,0 2.832,1.269 2.832,2.832 z"
           style="fill:none;stroke:#000000;stroke-width:0.75590599;stroke-linecap:butt;stroke-linejoin:miter;stroke-miterlimit:4;stroke-dasharray:none;stroke-opacity:0.79607801"
           id="path1219"
           inkscape:connector-curvature="0" /></g><path
         d="m 109.57,209.617 c 0,1.969 -1.492,3.567 -3.332,3.567 -1.836,0 -3.328,-1.598 -3.328,-3.567 0,-1.969 1.492,-3.566 3.328,-3.566 1.84,0 3.332,1.597 3.332,3.566 z"
         style="fill:#000000;fill-opacity:1;fill-rule:nonzero;stroke:none"
         id="path1221"
         inkscape:connector-curvature="0" /><path
         d="m 35.852,176.738 c 0,1.969 -1.489,3.563 -3.329,3.563 -1.839,0 -3.328,-1.594 -3.328,-3.563 0,-1.972 1.489,-3.566 3.328,-3.566 1.84,0 3.329,1.594 3.329,3.566 z"
         style="fill:#000000;fill-opacity:1;fill-rule:nonzero;stroke:none"
         id="path1223"
         inkscape:connector-curvature="0" /><path
         d="m 91.266,212.781 c 0,1.969 -1.493,3.567 -3.332,3.567 -1.836,0 -3.329,-1.598 -3.329,-3.567 0,-1.968 1.493,-3.566 3.329,-3.566 1.839,0 3.332,1.598 3.332,3.566 z"
         style="fill:#000000;fill-opacity:1;fill-rule:nonzero;stroke:none"
         id="path1225"
         inkscape:connector-curvature="0" /><path
         d="m 485.809,268.82 c 0,1.055 -0.731,1.91 -1.633,1.91 -0.899,0 -1.629,-0.855 -1.629,-1.91 0,-1.054 0.73,-1.91 1.629,-1.91 0.902,0 1.633,0.856 1.633,1.91 z"
         style="fill:#000000;fill-opacity:1;fill-rule:nonzero;stroke:none"
         id="path1227"
         inkscape:connector-curvature="0" /><path
         d="m 498.535,268.82 c 0,1.055 -0.73,1.91 -1.633,1.91 -0.898,0 -1.629,-0.855 -1.629,-1.91 0,-1.058 0.731,-1.914 1.629,-1.914 0.903,0 1.633,0.856 1.633,1.914 z"
         style="fill:#000000;fill-opacity:1;fill-rule:nonzero;stroke:none"
         id="path1229"
         inkscape:connector-curvature="0" /><path
         d="m 492.129,268.82 c 0,1.055 -0.731,1.91 -1.633,1.91 -0.898,0 -1.629,-0.855 -1.629,-1.91 0,-1.058 0.731,-1.914 1.629,-1.914 0.902,0 1.633,0.856 1.633,1.914 z"
         style="fill:#000000;fill-opacity:1;fill-rule:nonzero;stroke:none"
         id="path1231"
         inkscape:connector-curvature="0" /><text
         transform="matrix(1,0,0,0.99872266,408.27053,379.81091)"
         style="font-variant:normal;font-weight:600;font-size:13.00831127px;font-family:'Segoe UI Semibold';-inkscape-font-specification:SegoeUI-Semibold;writing-mode:lr-tb;fill:#000000;fill-opacity:1;fill-rule:nonzero;stroke:none"
         id="text1235"><tspan
           x="0 7.0765214 13.983934 21.56778 27.174362 34.940323 40.325764 46.933987 50.498264 59.825222 66.602554 71.298553 78.075882 83.682465 90.589874"
           y="0"
           sodipodi:role="line"
           id="tspan1233">Sensory Dataset</tspan></text>
<text
         transform="matrix(1,0,0,0.99872262,356.69426,290.68185)"
         style="font-variant:normal;font-weight:600;font-size:10.00639343px;font-family:'Segoe UI Semibold';-inkscape-font-specification:SegoeUI-Semibold;writing-mode:lr-tb;fill:#000000;fill-opacity:1;fill-rule:nonzero;stroke:none"
         id="text1239"><tspan
           x="0 4.3127556 9.6261501 15.649999 24.505657 29.819052 35.682796 39.295105 42.036858"
           y="0"
           sodipodi:role="line"
           id="tspan1237">segment s</tspan></text>
<text
         transform="matrix(1,0,0,0.99872271,403.09109,292.68058)"
         style="font-variant:normal;font-weight:600;font-size:9.00575256px;font-family:'Segoe UI Semibold';-inkscape-font-specification:SegoeUI-Semibold;writing-mode:lr-tb;fill:#000000;fill-opacity:1;fill-rule:nonzero;stroke:none"
         id="text1243"><tspan
           x="0"
           y="0"
           id="tspan1241">1</tspan></text>
<text
         transform="matrix(1,0,0,0.99872262,445.5833,290.46821)"
         style="font-variant:normal;font-weight:600;font-size:10.00639343px;font-family:'Segoe UI Semibold';-inkscape-font-specification:SegoeUI-Semibold;writing-mode:lr-tb;fill:#000000;fill-opacity:1;fill-rule:nonzero;stroke:none"
         id="text1247"><tspan
           x="0"
           y="0"
           id="tspan1245">s</tspan></text>
<text
         transform="matrix(1,0,0,0.99872271,449.90246,292.46694)"
         style="font-variant:normal;font-weight:600;font-size:9.00575256px;font-family:'Segoe UI Semibold';-inkscape-font-specification:SegoeUI-Semibold;writing-mode:lr-tb;fill:#000000;fill-opacity:1;fill-rule:nonzero;stroke:none"
         id="text1251"><tspan
           x="0"
           y="0"
           id="tspan1249">2</tspan></text>
<text
         transform="matrix(1,0,0,0.99872262,528.04683,290.36281)"
         style="font-variant:normal;font-weight:600;font-size:10.00639343px;font-family:'Segoe UI Semibold';-inkscape-font-specification:SegoeUI-Semibold;writing-mode:lr-tb;fill:#000000;fill-opacity:1;fill-rule:nonzero;stroke:none"
         id="text1255"><tspan
           x="0"
           y="0"
           id="tspan1253">s</tspan></text>
<text
         transform="matrix(1,0,0,0.99872271,532.366,292.36154)"
         style="font-variant:normal;font-weight:600;font-size:9.00575256px;font-family:'Segoe UI Semibold';-inkscape-font-specification:SegoeUI-Semibold;writing-mode:lr-tb;fill:#000000;fill-opacity:1;fill-rule:nonzero;stroke:none"
         id="text1259"><tspan
           x="0"
           y="0"
           id="tspan1257">n</tspan></text>
<text
         transform="matrix(1,0,0,0.99872265,364.41089,223.55647)"
         style="font-variant:normal;font-weight:600;font-size:14.35785484px;font-family:'Segoe UI Semibold';-inkscape-font-specification:SegoeUI-Semibold;writing-mode:lr-tb;fill:#000000;fill-opacity:1;fill-rule:nonzero;stroke:none"
         id="text1263"><tspan
           x="0 6.7481918 12.060598 19.54104 23.288441 31.659071 35.406471 43.7771 52.463604 56.397655 62.585892 70.209908 99.787094 107.97107 115.45152 119.19891 122.94631 131.58974 139.07019 144.25337 148.00076 156.5724 164.94304 168.92017 175.1084 182.73242"
           y="0"
           sodipodi:role="line"
           id="tspan1261">Training setValidation set</tspan></text>
</g></g></svg>