<?xml version="1.0" encoding="utf-8" standalone="no"?>
<!DOCTYPE svg PUBLIC "-//W3C//DTD SVG 1.1//EN"
  "http://www.w3.org/Graphics/SVG/1.1/DTD/svg11.dtd">
<!-- Created with matplotlib (https://matplotlib.org/) -->
<svg height="123.12pt" version="1.1" viewBox="0 0 684 123.12" width="684pt" xmlns="http://www.w3.org/2000/svg" xmlns:xlink="http://www.w3.org/1999/xlink">
 <defs>
  <style type="text/css">
*{stroke-linecap:butt;stroke-linejoin:round;}
  </style>
 </defs>
 <g id="figure_1">
  <g id="patch_1">
   <path d="M 0 123.12 
L 684 123.12 
L 684 0 
L 0 0 
z
" style="fill:#ffffff;"/>
  </g>
  <g id="axes_1">
   <g id="patch_2">
    <path d="M 7.2 115.92 
L 676.8 115.92 
L 676.8 7.2 
L 7.2 7.2 
z
" style="fill:#ffffff;"/>
   </g>
   <g id="matplotlib.axis_1">
    <g id="xtick_1">
     <g id="line2d_1">
      <path clip-path="url(#pf788e548c0)" d="M 37.636364 115.92 
L 37.636364 7.2 
" style="fill:none;stroke:#cccccc;stroke-linecap:round;stroke-width:0.8;"/>
     </g>
    </g>
    <g id="xtick_2">
     <g id="line2d_2">
      <path clip-path="url(#pf788e548c0)" d="M 113.917977 115.92 
L 113.917977 7.2 
" style="fill:none;stroke:#cccccc;stroke-linecap:round;stroke-width:0.8;"/>
     </g>
    </g>
    <g id="xtick_3">
     <g id="line2d_3">
      <path clip-path="url(#pf788e548c0)" d="M 190.19959 115.92 
L 190.19959 7.2 
" style="fill:none;stroke:#cccccc;stroke-linecap:round;stroke-width:0.8;"/>
     </g>
    </g>
    <g id="xtick_4">
     <g id="line2d_4">
      <path clip-path="url(#pf788e548c0)" d="M 266.481203 115.92 
L 266.481203 7.2 
" style="fill:none;stroke:#cccccc;stroke-linecap:round;stroke-width:0.8;"/>
     </g>
    </g>
    <g id="xtick_5">
     <g id="line2d_5">
      <path clip-path="url(#pf788e548c0)" d="M 342.762816 115.92 
L 342.762816 7.2 
" style="fill:none;stroke:#cccccc;stroke-linecap:round;stroke-width:0.8;"/>
     </g>
    </g>
    <g id="xtick_6">
     <g id="line2d_6">
      <path clip-path="url(#pf788e548c0)" d="M 419.044429 115.92 
L 419.044429 7.2 
" style="fill:none;stroke:#cccccc;stroke-linecap:round;stroke-width:0.8;"/>
     </g>
    </g>
    <g id="xtick_7">
     <g id="line2d_7">
      <path clip-path="url(#pf788e548c0)" d="M 495.326042 115.92 
L 495.326042 7.2 
" style="fill:none;stroke:#cccccc;stroke-linecap:round;stroke-width:0.8;"/>
     </g>
    </g>
    <g id="xtick_8">
     <g id="line2d_8">
      <path clip-path="url(#pf788e548c0)" d="M 571.607656 115.92 
L 571.607656 7.2 
" style="fill:none;stroke:#cccccc;stroke-linecap:round;stroke-width:0.8;"/>
     </g>
    </g>
    <g id="xtick_9">
     <g id="line2d_9">
      <path clip-path="url(#pf788e548c0)" d="M 647.889269 115.92 
L 647.889269 7.2 
" style="fill:none;stroke:#cccccc;stroke-linecap:round;stroke-width:0.8;"/>
     </g>
    </g>
   </g>
   <g id="matplotlib.axis_2">
    <g id="ytick_1">
     <g id="line2d_10">
      <path clip-path="url(#pf788e548c0)" d="M 7.2 113.589614 
L 676.8 113.589614 
" style="fill:none;stroke:#cccccc;stroke-linecap:round;stroke-width:0.8;"/>
     </g>
    </g>
    <g id="ytick_2">
     <g id="line2d_11">
      <path clip-path="url(#pf788e548c0)" d="M 7.2 84.91504 
L 676.8 84.91504 
" style="fill:none;stroke:#cccccc;stroke-linecap:round;stroke-width:0.8;"/>
     </g>
    </g>
    <g id="ytick_3">
     <g id="line2d_12">
      <path clip-path="url(#pf788e548c0)" d="M 7.2 56.240465 
L 676.8 56.240465 
" style="fill:none;stroke:#cccccc;stroke-linecap:round;stroke-width:0.8;"/>
     </g>
    </g>
    <g id="ytick_4">
     <g id="line2d_13">
      <path clip-path="url(#pf788e548c0)" d="M 7.2 27.565891 
L 676.8 27.565891 
" style="fill:none;stroke:#cccccc;stroke-linecap:round;stroke-width:0.8;"/>
     </g>
    </g>
   </g>
   <g id="line2d_14">
    <path clip-path="url(#pf788e548c0)" d="M 37.636364 86.049204 
L 39.161996 82.98277 
L 40.687628 84.077925 
L 42.21326 84.954049 
L 43.738893 85.611142 
L 45.264525 86.487265 
L 46.790157 88.458544 
L 48.315789 90.210791 
L 51.367054 90.210791 
L 54.418319 84.515987 
L 55.943951 83.858894 
L 57.469583 84.296956 
L 58.995215 84.954049 
L 62.04648 85.830173 
L 63.572112 85.392111 
L 65.097744 84.296956 
L 66.623377 82.98277 
L 68.149009 82.325677 
L 69.674641 84.077925 
L 71.200273 88.677575 
L 72.725906 88.677575 
L 74.251538 93.496256 
L 75.77717 93.715287 
L 77.302802 91.086915 
L 78.828435 89.115637 
L 80.354067 89.553699 
L 81.879699 89.334668 
L 84.930964 85.830173 
L 86.456596 84.954049 
L 87.982228 85.611142 
L 89.507861 87.144358 
L 91.033493 88.458544 
L 92.559125 88.896606 
L 94.084757 88.896606 
L 95.61039 88.020482 
L 97.136022 86.487265 
L 98.661654 83.420832 
L 100.187286 83.201801 
L 101.712919 83.858894 
L 103.238551 84.954049 
L 104.764183 85.611142 
L 107.815448 85.17308 
L 109.34108 84.515987 
L 110.866712 83.201801 
L 112.392344 81.668585 
L 113.917977 82.544708 
L 115.443609 85.830173 
L 116.969241 88.458544 
L 118.494874 89.115637 
L 120.020506 89.334668 
L 121.546138 90.429822 
L 123.07177 91.744008 
L 124.597403 90.648853 
L 126.123035 88.239513 
L 127.648667 87.144358 
L 129.174299 86.487265 
L 130.699932 86.487265 
L 132.225564 87.144358 
L 133.751196 87.144358 
L 135.276828 87.801451 
L 136.802461 87.363389 
L 138.328093 87.144358 
L 141.379357 87.58242 
L 145.956254 86.268234 
L 147.481887 86.706296 
L 149.007519 86.925327 
L 150.533151 86.268234 
L 152.058783 85.830173 
L 153.584416 84.735018 
L 156.63568 82.98277 
L 158.161312 82.325677 
L 159.686945 81.887616 
L 161.212577 81.887616 
L 162.738209 82.325677 
L 164.263841 82.325677 
L 165.789474 83.201801 
L 170.36637 85.17308 
L 171.892003 90.429822 
L 173.417635 98.095906 
L 174.943267 98.095906 
L 176.4689 90.648853 
L 177.994532 86.925327 
L 179.520164 86.268234 
L 181.045796 87.144358 
L 182.571429 87.58242 
L 184.097061 87.801451 
L 185.622693 88.677575 
L 187.148325 89.334668 
L 188.673958 88.896606 
L 190.19959 88.020482 
L 193.250854 87.144358 
L 194.776487 86.925327 
L 196.302119 85.830173 
L 197.827751 84.954049 
L 199.353383 84.515987 
L 200.879016 84.515987 
L 202.404648 84.296956 
L 203.93028 83.420832 
L 205.455913 82.325677 
L 206.981545 81.887616 
L 208.507177 82.763739 
L 210.032809 82.763739 
L 211.558442 84.954049 
L 213.084074 91.524977 
L 214.609706 101.819432 
L 216.135338 97.000751 
L 217.660971 85.830173 
L 219.186603 88.020482 
L 220.712235 92.839163 
L 222.237867 95.248503 
L 223.7635 93.496256 
L 225.289132 91.305946 
L 226.814764 90.867884 
L 228.340396 89.77273 
L 229.866029 88.458544 
L 231.391661 88.458544 
L 232.917293 89.115637 
L 234.442925 89.553699 
L 235.968558 89.553699 
L 237.49419 88.896606 
L 239.019822 88.677575 
L 243.596719 87.363389 
L 246.647984 86.049204 
L 248.173616 85.611142 
L 249.699248 85.392111 
L 252.750513 85.392111 
L 254.276145 85.830173 
L 255.801777 85.611142 
L 257.327409 85.17308 
L 258.853042 84.077925 
L 260.378674 83.639863 
L 261.904306 84.735018 
L 263.429938 85.611142 
L 264.955571 85.611142 
L 266.481203 85.17308 
L 268.006835 86.268234 
L 269.532468 90.867884 
L 271.0581 97.219782 
L 272.583732 91.305946 
L 274.109364 88.677575 
L 275.634997 88.239513 
L 277.160629 88.458544 
L 278.686261 89.115637 
L 280.211893 89.115637 
L 281.737526 88.458544 
L 283.263158 88.458544 
L 284.78879 88.677575 
L 286.314422 88.458544 
L 287.840055 88.020482 
L 289.365687 87.363389 
L 292.416951 86.487265 
L 293.942584 86.268234 
L 295.468216 85.830173 
L 296.993848 84.735018 
L 298.519481 83.420832 
L 300.045113 82.763739 
L 303.096377 81.887616 
L 304.62201 81.887616 
L 309.198906 82.544708 
L 310.724539 83.639863 
L 312.250171 85.392111 
L 313.775803 88.677575 
L 315.301435 91.305946 
L 316.827068 87.58242 
L 318.3527 87.144358 
L 319.878332 90.429822 
L 321.403964 91.744008 
L 322.929597 91.086915 
L 324.455229 89.77273 
L 325.980861 89.77273 
L 327.506494 88.677575 
L 329.032126 88.020482 
L 330.557758 87.144358 
L 335.134655 87.144358 
L 336.660287 87.363389 
L 338.185919 87.801451 
L 339.711552 87.144358 
L 341.237184 86.706296 
L 342.762816 86.925327 
L 344.288448 87.58242 
L 345.814081 87.363389 
L 347.339713 86.268234 
L 348.865345 85.611142 
L 350.390977 85.830173 
L 353.442242 85.830173 
L 354.967874 85.17308 
L 356.493506 85.17308 
L 358.019139 84.954049 
L 359.544771 84.515987 
L 361.070403 83.639863 
L 362.596036 84.954049 
L 365.6473 91.524977 
L 367.172932 91.524977 
L 368.698565 93.496256 
L 370.224197 93.058194 
L 371.749829 91.963039 
L 373.275461 91.086915 
L 374.801094 89.553699 
L 376.326726 86.925327 
L 377.852358 85.611142 
L 379.37799 84.735018 
L 380.903623 84.735018 
L 382.429255 85.611142 
L 383.954887 87.144358 
L 385.480519 89.334668 
L 387.006152 90.429822 
L 388.531784 90.429822 
L 390.057416 88.677575 
L 391.583049 85.392111 
L 393.108681 84.077925 
L 394.634313 83.858894 
L 396.159945 83.858894 
L 397.685578 84.077925 
L 399.21121 83.639863 
L 400.736842 83.420832 
L 402.262474 83.858894 
L 403.788107 85.830173 
L 405.313739 90.210791 
L 406.839371 93.277225 
L 408.365003 94.153349 
L 409.890636 92.620132 
L 411.416268 89.77273 
L 415.993165 82.544708 
L 417.518797 84.296956 
L 419.044429 84.735018 
L 420.570062 86.049204 
L 422.095694 88.896606 
L 423.621326 91.086915 
L 425.146958 89.991761 
L 426.672591 87.363389 
L 428.198223 85.830173 
L 429.723855 85.611142 
L 431.249487 85.17308 
L 434.300752 84.735018 
L 437.352016 83.420832 
L 438.877649 82.98277 
L 440.403281 84.077925 
L 441.928913 88.020482 
L 443.454545 93.496256 
L 444.980178 97.000751 
L 446.50581 95.029472 
L 448.031442 90.648853 
L 449.557075 89.334668 
L 451.082707 86.487265 
L 452.608339 84.296956 
L 454.133971 83.858894 
L 455.659604 84.735018 
L 457.185236 86.268234 
L 458.710868 88.896606 
L 460.2365 90.867884 
L 461.762133 90.867884 
L 463.287765 90.210791 
L 466.339029 84.296956 
L 467.864662 82.763739 
L 469.390294 83.420832 
L 470.915926 84.954049 
L 472.441558 85.392111 
L 473.967191 83.639863 
L 475.492823 82.544708 
L 477.018455 81.887616 
L 478.544087 83.639863 
L 480.06972 88.239513 
L 481.595352 92.18207 
L 483.120984 92.18207 
L 484.646617 93.277225 
L 486.172249 91.305946 
L 487.697881 88.896606 
L 489.223513 88.020482 
L 490.749146 85.392111 
L 492.274778 85.611142 
L 493.80041 86.268234 
L 495.326042 85.830173 
L 496.851675 85.830173 
L 498.377307 86.706296 
L 499.902939 88.896606 
L 501.428571 89.991761 
L 502.954204 89.991761 
L 506.005468 87.363389 
L 507.5311 86.268234 
L 509.056733 85.392111 
L 512.107997 84.077925 
L 515.159262 81.887616 
L 516.684894 82.325677 
L 518.210526 84.296956 
L 519.736159 87.58242 
L 521.261791 92.18207 
L 522.787423 94.810441 
L 525.838688 94.810441 
L 527.36432 91.744008 
L 528.889952 89.115637 
L 530.415584 86.049204 
L 531.941217 84.296956 
L 533.466849 84.296956 
L 534.992481 85.611142 
L 536.518113 87.363389 
L 538.043746 89.553699 
L 539.569378 90.648853 
L 541.09501 89.553699 
L 544.146275 83.858894 
L 545.671907 83.858894 
L 547.197539 82.544708 
L 548.723172 83.420832 
L 550.248804 83.639863 
L 551.774436 82.98277 
L 553.300068 82.763739 
L 554.825701 82.763739 
L 556.351333 83.201801 
L 557.876965 85.392111 
L 559.402597 88.896606 
L 560.92823 91.744008 
L 562.453862 93.277225 
L 563.979494 93.496256 
L 565.505126 91.086915 
L 567.030759 91.086915 
L 568.556391 88.239513 
L 570.082023 84.515987 
L 571.607656 84.296956 
L 573.133288 85.611142 
L 574.65892 85.392111 
L 576.184552 86.049204 
L 577.710185 87.801451 
L 579.235817 89.77273 
L 580.761449 89.553699 
L 582.287081 87.363389 
L 583.812714 85.830173 
L 585.338346 85.17308 
L 586.863978 83.858894 
L 588.38961 82.325677 
L 589.915243 81.887616 
L 592.966507 82.325677 
L 594.492139 84.296956 
L 596.017772 89.553699 
L 597.543404 93.496256 
L 599.069036 95.248503 
L 600.594668 93.715287 
L 602.120301 89.553699 
L 603.645933 87.801451 
L 605.171565 84.515987 
L 606.697198 84.077925 
L 608.22283 85.17308 
L 609.748462 87.144358 
L 611.274094 90.210791 
L 612.799727 92.18207 
L 614.325359 91.305946 
L 617.376623 85.392111 
L 618.902256 83.201801 
L 620.427888 83.639863 
L 621.95352 84.735018 
L 623.479152 85.611142 
L 625.004785 84.954049 
L 626.530417 84.954049 
L 628.056049 83.639863 
L 629.581681 81.887616 
L 631.107314 81.449554 
L 632.632946 81.668585 
L 634.158578 84.515987 
L 635.684211 89.553699 
L 637.209843 93.715287 
L 638.735475 94.810441 
L 640.261107 92.620132 
L 641.78674 88.677575 
L 643.312372 86.268234 
L 644.838004 84.077925 
L 646.363636 84.954049 
L 646.363636 84.954049 
" style="fill:none;stroke:#222222;stroke-linecap:round;stroke-opacity:0.6;stroke-width:1.5;"/>
   </g>
   <g id="line2d_15">
    <path clip-path="url(#pf788e548c0)" d="M 37.636364 77.635793 
L 39.161996 76.444993 
L 42.21326 77.635793 
L 43.738893 81.208192 
L 46.790157 93.116188 
L 48.315789 95.497787 
L 49.841422 94.306987 
L 51.367054 94.306987 
L 52.892686 88.352989 
L 55.943951 71.681795 
L 57.469583 68.109396 
L 58.995215 68.109396 
L 60.520848 70.490995 
L 62.04648 71.681795 
L 65.097744 68.109396 
L 66.623377 66.918596 
L 68.149009 69.895595 
L 69.674641 74.658794 
L 71.200273 77.040393 
L 72.725906 77.040393 
L 74.251538 77.635793 
L 75.77717 80.017392 
L 77.302802 80.612792 
L 78.828435 81.803591 
L 80.354067 84.185191 
L 84.930964 93.116188 
L 86.456596 93.711587 
L 87.982228 89.543789 
L 89.507861 86.56679 
L 91.033493 85.97139 
L 92.559125 87.757589 
L 94.084757 90.139189 
L 95.61039 90.139189 
L 97.136022 90.734588 
L 98.661654 84.185191 
L 100.187286 86.56679 
L 103.238551 98.474786 
L 104.764183 99.070186 
L 106.289815 96.688587 
L 107.815448 95.497787 
L 109.34108 99.070186 
L 110.866712 103.833384 
L 112.392344 102.642585 
L 115.443609 95.497787 
L 116.969241 94.306987 
L 118.494874 94.902387 
L 120.020506 96.688587 
L 121.546138 97.283986 
L 123.07177 95.497787 
L 124.597403 93.116188 
L 126.123035 89.543789 
L 129.174299 81.208192 
L 130.699932 78.826592 
L 133.751196 78.826592 
L 138.328093 80.612792 
L 141.379357 82.994391 
L 142.90499 82.398991 
L 144.430622 80.612792 
L 145.956254 77.635793 
L 147.481887 75.849593 
L 149.007519 74.658794 
L 150.533151 75.849593 
L 152.058783 78.826592 
L 153.584416 80.612792 
L 155.110048 81.803591 
L 156.63568 81.803591 
L 158.161312 80.612792 
L 159.686945 78.826592 
L 161.212577 78.231193 
L 162.738209 79.421992 
L 164.263841 83.589791 
L 165.789474 84.78059 
L 167.315106 80.612792 
L 168.840738 77.040393 
L 170.36637 76.444993 
L 171.892003 74.658794 
L 173.417635 72.277195 
L 176.4689 87.757589 
L 177.994532 91.329988 
L 179.520164 91.925388 
L 181.045796 91.925388 
L 182.571429 93.711587 
L 185.622693 102.047185 
L 187.148325 104.428784 
L 188.673958 99.665586 
L 190.19959 92.520788 
L 191.725222 87.16219 
L 193.250854 84.78059 
L 194.776487 84.78059 
L 197.827751 83.589791 
L 199.353383 83.589791 
L 200.879016 84.185191 
L 202.404648 83.589791 
L 203.93028 81.208192 
L 205.455913 77.040393 
L 206.981545 75.254194 
L 208.507177 80.612792 
L 210.032809 80.612792 
L 213.084074 100.260985 
L 214.609706 110.978182 
L 216.135338 109.191982 
L 217.660971 96.688587 
L 219.186603 91.925388 
L 220.712235 90.139189 
L 222.237867 89.543789 
L 223.7635 85.37599 
L 225.289132 85.37599 
L 226.814764 88.352989 
L 228.340396 87.757589 
L 229.866029 86.56679 
L 231.391661 83.589791 
L 232.917293 83.589791 
L 234.442925 82.994391 
L 235.968558 83.589791 
L 237.49419 85.37599 
L 239.019822 84.185191 
L 240.545455 82.398991 
L 245.122351 75.254194 
L 246.647984 74.658794 
L 251.22488 74.658794 
L 252.750513 73.467994 
L 254.276145 73.467994 
L 255.801777 72.872594 
L 257.327409 73.467994 
L 260.378674 77.040393 
L 261.904306 78.231193 
L 263.429938 78.826592 
L 264.955571 80.612792 
L 266.481203 82.994391 
L 268.006835 85.97139 
L 269.532468 96.093187 
L 271.0581 85.37599 
L 272.583732 78.826592 
L 274.109364 77.635793 
L 275.634997 82.398991 
L 277.160629 87.757589 
L 278.686261 92.520788 
L 280.211893 92.520788 
L 281.737526 88.352989 
L 283.263158 85.97139 
L 284.78879 85.97139 
L 286.314422 83.589791 
L 287.840055 83.589791 
L 289.365687 84.185191 
L 292.416951 86.56679 
L 293.942584 86.56679 
L 295.468216 87.16219 
L 296.993848 87.16219 
L 300.045113 89.543789 
L 301.570745 91.329988 
L 303.096377 93.711587 
L 304.62201 96.688587 
L 306.147642 96.688587 
L 307.673274 98.474786 
L 309.198906 97.283986 
L 310.724539 94.306987 
L 312.250171 90.734588 
L 313.775803 93.116188 
L 315.301435 102.642585 
L 316.827068 108.001183 
L 318.3527 104.428784 
L 319.878332 101.451785 
L 321.403964 95.497787 
L 322.929597 91.925388 
L 324.455229 90.734588 
L 330.557758 90.734588 
L 332.08339 88.948389 
L 333.609023 86.56679 
L 335.134655 85.97139 
L 336.660287 85.97139 
L 338.185919 82.994391 
L 339.711552 81.208192 
L 341.237184 82.398991 
L 342.762816 84.185191 
L 344.288448 85.37599 
L 345.814081 85.97139 
L 348.865345 85.97139 
L 350.390977 82.994391 
L 351.91661 78.826592 
L 353.442242 73.467994 
L 354.967874 69.300196 
L 356.493506 68.704796 
L 358.019139 68.704796 
L 361.070403 63.941597 
L 362.596036 64.536997 
L 365.6473 75.254194 
L 367.172932 75.254194 
L 368.698565 81.803591 
L 370.224197 84.78059 
L 371.749829 84.78059 
L 373.275461 85.97139 
L 374.801094 85.97139 
L 376.326726 82.398991 
L 377.852358 80.612792 
L 379.37799 82.398991 
L 382.429255 87.16219 
L 383.954887 88.948389 
L 385.480519 90.139189 
L 388.531784 94.902387 
L 390.057416 94.902387 
L 391.583049 97.879386 
L 393.108681 99.070186 
L 396.159945 102.642585 
L 397.685578 102.047185 
L 399.21121 100.260985 
L 400.736842 99.070186 
L 402.262474 98.474786 
L 403.788107 95.497787 
L 405.313739 91.329988 
L 408.365003 78.231193 
L 409.890636 74.063394 
L 411.416268 72.872594 
L 412.9419 75.254194 
L 414.467532 81.803591 
L 415.993165 87.16219 
L 417.518797 87.16219 
L 419.044429 88.352989 
L 420.570062 91.329988 
L 422.095694 95.497787 
L 423.621326 94.902387 
L 425.146958 90.139189 
L 426.672591 82.398991 
L 429.723855 65.132397 
L 431.249487 60.369198 
L 432.77512 62.155398 
L 434.300752 65.132397 
L 435.826384 67.513996 
L 437.352016 68.109396 
L 438.877649 70.490995 
L 440.403281 71.681795 
L 441.928913 73.467994 
L 443.454545 77.040393 
L 444.980178 81.208192 
L 446.50581 87.16219 
L 448.031442 91.925388 
L 449.557075 93.116188 
L 451.082707 92.520788 
L 452.608339 93.116188 
L 455.659604 87.16219 
L 457.185236 83.589791 
L 458.710868 80.612792 
L 460.2365 82.398991 
L 461.762133 90.139189 
L 463.287765 90.139189 
L 464.813397 99.665586 
L 466.339029 106.214983 
L 467.864662 105.024184 
L 469.390294 100.856385 
L 470.915926 97.879386 
L 472.441558 93.116188 
L 473.967191 90.139189 
L 475.492823 88.948389 
L 480.06972 94.306987 
L 481.595352 92.520788 
L 483.120984 92.520788 
L 484.646617 88.352989 
L 486.172249 85.97139 
L 487.697881 84.185191 
L 489.223513 84.185191 
L 490.749146 82.398991 
L 492.274778 81.208192 
L 493.80041 79.421992 
L 495.326042 80.612792 
L 496.851675 82.994391 
L 498.377307 85.97139 
L 499.902939 87.16219 
L 501.428571 86.56679 
L 502.954204 86.56679 
L 504.479836 82.994391 
L 507.5311 74.658794 
L 509.056733 69.895595 
L 510.582365 68.109396 
L 512.107997 67.513996 
L 515.159262 63.941597 
L 516.684894 63.346197 
L 518.210526 66.918596 
L 519.736159 72.277195 
L 522.787423 85.37599 
L 524.313055 85.37599 
L 525.838688 91.925388 
L 527.36432 97.879386 
L 528.889952 102.047185 
L 530.415584 96.093187 
L 534.992481 83.589791 
L 536.518113 80.017392 
L 538.043746 78.231193 
L 539.569378 80.017392 
L 541.09501 85.97139 
L 544.146275 104.428784 
L 545.671907 104.428784 
L 547.197539 107.405783 
L 548.723172 105.024184 
L 550.248804 97.879386 
L 551.774436 91.925388 
L 553.300068 87.757589 
L 554.825701 87.757589 
L 556.351333 91.329988 
L 557.876965 93.711587 
L 559.402597 93.116188 
L 560.92823 90.139189 
L 562.453862 88.948389 
L 563.979494 87.16219 
L 565.505126 81.803591 
L 567.030759 81.803591 
L 568.556391 77.635793 
L 570.082023 77.635793 
L 571.607656 77.040393 
L 573.133288 78.231193 
L 574.65892 82.994391 
L 576.184552 88.948389 
L 577.710185 94.306987 
L 579.235817 98.474786 
L 580.761449 96.093187 
L 582.287081 84.78059 
L 583.812714 69.300196 
L 585.338346 56.7968 
L 586.863978 65.132397 
L 588.38961 69.300196 
L 589.915243 68.704796 
L 591.440875 67.513996 
L 592.966507 66.918596 
L 594.492139 68.704796 
L 596.017772 73.467994 
L 597.543404 80.612792 
L 599.069036 88.352989 
L 600.594668 95.497787 
L 602.120301 101.451785 
L 603.645933 98.474786 
L 605.171565 91.925388 
L 606.697198 88.352989 
L 608.22283 85.37599 
L 609.748462 81.208192 
L 611.274094 79.421992 
L 612.799727 80.017392 
L 614.325359 85.97139 
L 615.850991 94.306987 
L 617.376623 99.665586 
L 618.902256 100.856385 
L 620.427888 101.451785 
L 623.479152 96.688587 
L 625.004785 95.497787 
L 626.530417 95.497787 
L 629.581681 91.925388 
L 634.158578 93.711587 
L 635.684211 91.329988 
L 637.209843 86.56679 
L 638.735475 83.589791 
L 640.261107 80.017392 
L 641.78674 75.849593 
L 643.312372 75.254194 
L 644.838004 77.635793 
L 646.363636 78.826592 
L 646.363636 78.826592 
" style="fill:none;stroke:#351b35;stroke-linecap:round;stroke-opacity:0.6;stroke-width:1.5;"/>
   </g>
   <g id="line2d_16">
    <path clip-path="url(#pf788e548c0)" d="M 37.636364 46.079603 
L 39.161996 41.316405 
L 40.687628 45.484203 
L 42.21326 51.438201 
L 43.738893 55.0106 
L 45.264525 56.7968 
L 46.790157 54.4152 
L 48.315789 49.652002 
L 49.841422 46.079603 
L 51.367054 44.293404 
L 52.892686 44.293404 
L 54.418319 41.911805 
L 55.943951 37.744006 
L 57.469583 34.171607 
L 58.995215 31.194608 
L 60.520848 31.194608 
L 62.04648 34.171607 
L 63.572112 41.316405 
L 65.097744 50.842802 
L 66.623377 57.392199 
L 68.149009 62.750798 
L 69.674641 66.918596 
L 71.200273 66.323196 
L 72.725906 57.987599 
L 74.251538 57.987599 
L 75.77717 52.033601 
L 77.302802 52.629001 
L 78.828435 50.842802 
L 80.354067 47.270403 
L 81.879699 43.102604 
L 83.405332 44.293404 
L 86.456596 51.438201 
L 87.982228 52.629001 
L 89.507861 50.842802 
L 91.033493 50.247402 
L 94.084757 46.675003 
L 97.136022 46.675003 
L 98.661654 44.293404 
L 100.187286 41.316405 
L 101.712919 37.744006 
L 103.238551 34.767007 
L 104.764183 33.576207 
L 106.289815 34.171607 
L 107.815448 37.148606 
L 109.34108 42.507204 
L 110.866712 49.056602 
L 112.392344 55.0106 
L 113.917977 57.987599 
L 115.443609 59.178399 
L 116.969241 53.819801 
L 118.494874 50.247402 
L 120.020506 51.438201 
L 121.546138 52.033601 
L 123.07177 50.247402 
L 124.597403 50.247402 
L 126.123035 50.842802 
L 127.648667 50.247402 
L 129.174299 49.056602 
L 130.699932 50.842802 
L 132.225564 53.224401 
L 133.751196 57.392199 
L 135.276828 57.392199 
L 136.802461 59.773799 
L 138.328093 60.964598 
L 141.379357 59.773799 
L 142.90499 56.7968 
L 144.430622 53.224401 
L 145.956254 49.056602 
L 147.481887 45.484203 
L 149.007519 44.293404 
L 150.533151 45.484203 
L 152.058783 48.461202 
L 153.584416 52.629001 
L 155.110048 55.606 
L 156.63568 57.987599 
L 158.161312 58.582999 
L 159.686945 56.7968 
L 161.212577 52.629001 
L 162.738209 47.865803 
L 164.263841 44.888804 
L 167.315106 44.888804 
L 168.840738 45.484203 
L 170.36637 47.270403 
L 171.892003 43.698004 
L 173.417635 34.767007 
L 174.943267 32.980807 
L 176.4689 37.744006 
L 177.994532 40.721005 
L 179.520164 43.102604 
L 181.045796 46.675003 
L 182.571429 50.842802 
L 184.097061 53.224401 
L 185.622693 54.4152 
L 188.673958 53.224401 
L 190.19959 53.224401 
L 191.725222 53.819801 
L 194.776487 51.438201 
L 196.302119 51.438201 
L 199.353383 50.247402 
L 200.879016 51.438201 
L 202.404648 51.438201 
L 203.93028 50.247402 
L 205.455913 47.865803 
L 206.981545 43.102604 
L 208.507177 38.934805 
L 210.032809 39.530205 
L 211.558442 39.530205 
L 213.084074 40.125605 
L 214.609706 30.599208 
L 216.135338 28.813009 
L 217.660971 42.507204 
L 219.186603 49.652002 
L 220.712235 50.247402 
L 222.237867 49.056602 
L 223.7635 52.033601 
L 225.289132 52.033601 
L 226.814764 46.079603 
L 228.340396 40.721005 
L 229.866029 35.957806 
L 231.391661 37.148606 
L 232.917293 37.148606 
L 234.442925 43.698004 
L 235.968558 52.033601 
L 237.49419 59.178399 
L 239.019822 64.536997 
L 240.545455 67.513996 
L 242.071087 67.513996 
L 243.596719 64.536997 
L 245.122351 59.178399 
L 246.647984 54.4152 
L 248.173616 50.247402 
L 249.699248 46.675003 
L 251.22488 44.888804 
L 252.750513 43.698004 
L 254.276145 43.698004 
L 255.801777 44.888804 
L 258.853042 46.079603 
L 260.378674 47.865803 
L 261.904306 48.461202 
L 263.429938 48.461202 
L 266.481203 50.842802 
L 268.006835 47.270403 
L 269.532468 40.125605 
L 271.0581 38.934805 
L 272.583732 52.033601 
L 274.109364 56.2014 
L 275.634997 53.224401 
L 277.160629 48.461202 
L 278.686261 44.293404 
L 280.211893 42.507204 
L 281.737526 42.507204 
L 283.263158 43.102604 
L 284.78879 43.102604 
L 286.314422 44.888804 
L 287.840055 44.888804 
L 289.365687 48.461202 
L 290.891319 53.224401 
L 292.416951 57.392199 
L 293.942584 58.582999 
L 295.468216 57.987599 
L 296.993848 55.606 
L 298.519481 51.438201 
L 300.045113 45.484203 
L 301.570745 40.721005 
L 303.096377 41.316405 
L 304.62201 46.079603 
L 306.147642 46.079603 
L 307.673274 49.652002 
L 309.198906 49.056602 
L 310.724539 43.698004 
L 312.250171 40.125605 
L 313.775803 38.339406 
L 315.301435 31.194608 
L 316.827068 24.64521 
L 318.3527 27.026809 
L 321.403964 44.293404 
L 322.929597 49.652002 
L 324.455229 53.819801 
L 325.980861 56.2014 
L 327.506494 56.2014 
L 329.032126 56.7968 
L 330.557758 56.2014 
L 332.08339 54.4152 
L 333.609023 52.033601 
L 335.134655 47.865803 
L 336.660287 44.888804 
L 339.711552 49.652002 
L 341.237184 51.438201 
L 342.762816 50.247402 
L 344.288448 49.652002 
L 347.339713 49.652002 
L 348.865345 47.865803 
L 350.390977 42.507204 
L 351.91661 35.362407 
L 353.442242 30.599208 
L 354.967874 28.813009 
L 356.493506 32.385408 
L 358.019139 40.125605 
L 359.544771 50.247402 
L 361.070403 58.582999 
L 362.596036 64.536997 
L 364.121668 65.727797 
L 365.6473 60.964598 
L 367.172932 53.819801 
L 368.698565 53.819801 
L 370.224197 51.438201 
L 371.749829 53.819801 
L 374.801094 55.0106 
L 376.326726 55.0106 
L 377.852358 55.606 
L 379.37799 57.987599 
L 380.903623 57.392199 
L 382.429255 54.4152 
L 385.480519 44.888804 
L 387.006152 40.721005 
L 388.531784 37.148606 
L 390.057416 37.148606 
L 391.583049 30.003808 
L 393.108681 18.691208 
L 394.634313 12.141818 
L 396.159945 17.500413 
L 397.685578 30.599208 
L 399.21121 44.888804 
L 400.736842 56.2014 
L 402.262474 66.323196 
L 403.788107 73.467994 
L 405.313739 75.254194 
L 406.839371 71.681795 
L 408.365003 67.513996 
L 409.890636 63.941597 
L 411.416268 61.559998 
L 412.9419 56.2014 
L 414.467532 46.079603 
L 415.993165 38.934805 
L 417.518797 41.911805 
L 419.044429 44.293404 
L 420.570062 45.484203 
L 422.095694 43.102604 
L 423.621326 40.125605 
L 426.672591 41.316405 
L 428.198223 38.339406 
L 429.723855 34.767007 
L 431.249487 35.362407 
L 432.77512 37.148606 
L 434.300752 42.507204 
L 435.826384 50.247402 
L 438.877649 68.704796 
L 440.403281 73.467994 
L 441.928913 72.872594 
L 443.454545 63.941597 
L 444.980178 53.819801 
L 446.50581 48.461202 
L 448.031442 49.056602 
L 449.557075 47.270403 
L 451.082707 46.079603 
L 452.608339 49.056602 
L 454.133971 52.629001 
L 455.659604 53.819801 
L 457.185236 50.247402 
L 458.710868 44.888804 
L 461.762133 32.980807 
L 463.287765 32.980807 
L 464.813397 30.003808 
L 467.864662 26.43141 
L 469.390294 25.24061 
L 470.915926 30.003808 
L 473.967191 50.842802 
L 475.492823 60.369198 
L 477.018455 68.109396 
L 478.544087 72.872594 
L 480.06972 73.467994 
L 483.120984 66.323196 
L 484.646617 61.559998 
L 486.172249 59.773799 
L 487.697881 54.4152 
L 490.749146 38.934805 
L 492.274778 40.721005 
L 493.80041 46.675003 
L 495.326042 51.438201 
L 496.851675 52.629001 
L 498.377307 51.438201 
L 501.428571 41.911805 
L 502.954204 37.744006 
L 504.479836 37.744006 
L 506.005468 30.599208 
L 507.5311 24.04981 
L 509.056733 23.454411 
L 510.582365 29.408409 
L 512.107997 39.530205 
L 513.63363 51.438201 
L 515.159262 62.155398 
L 516.684894 71.086395 
L 518.210526 73.467994 
L 519.736159 72.277195 
L 521.261791 65.727797 
L 522.787423 57.987599 
L 524.313055 51.438201 
L 525.838688 51.438201 
L 527.36432 48.461202 
L 528.889952 43.698004 
L 530.415584 40.721005 
L 531.941217 42.507204 
L 533.466849 45.484203 
L 534.992481 45.484203 
L 536.518113 41.911805 
L 538.043746 35.362407 
L 539.569378 30.599208 
L 541.09501 27.026809 
L 542.620643 27.026809 
L 544.146275 29.408409 
L 545.671907 32.385408 
L 547.197539 32.385408 
L 548.723172 35.362407 
L 550.248804 40.721005 
L 554.825701 68.109396 
L 556.351333 74.063394 
L 557.876965 76.444993 
L 559.402597 75.254194 
L 560.92823 71.086395 
L 562.453862 65.132397 
L 563.979494 59.773799 
L 565.505126 55.0106 
L 567.030759 46.675003 
L 568.556391 46.675003 
L 570.082023 38.934805 
L 571.607656 40.721005 
L 573.133288 45.484203 
L 574.65892 50.842802 
L 576.184552 52.033601 
L 577.710185 48.461202 
L 579.235817 40.721005 
L 580.761449 35.362407 
L 582.287081 30.599208 
L 583.812714 27.026809 
L 585.338346 31.790008 
L 586.863978 40.125605 
L 589.915243 59.178399 
L 591.440875 69.895595 
L 592.966507 75.849593 
L 594.492139 77.040393 
L 596.017772 72.872594 
L 599.069036 52.033601 
L 600.594668 46.079603 
L 602.120301 40.721005 
L 603.645933 37.148606 
L 605.171565 41.316405 
L 606.697198 46.079603 
L 608.22283 49.652002 
L 609.748462 45.484203 
L 611.274094 37.744006 
L 612.799727 29.408409 
L 614.325359 24.04981 
L 615.850991 22.859011 
L 617.376623 26.43141 
L 618.902256 30.599208 
L 621.95352 34.171607 
L 623.479152 40.125605 
L 625.004785 47.865803 
L 626.530417 56.7968 
L 628.056049 56.7968 
L 629.581681 66.323196 
L 631.107314 73.467994 
L 632.632946 77.040393 
L 634.158578 78.826592 
L 635.684211 75.254194 
L 638.735475 62.155398 
L 641.78674 53.819801 
L 643.312372 46.079603 
L 644.838004 39.530205 
L 646.363636 41.911805 
L 646.363636 41.911805 
" style="fill:none;stroke:#481448;stroke-linecap:round;stroke-opacity:0.6;stroke-width:1.5;"/>
   </g>
   <g id="patch_3">
    <path d="M 7.2 115.92 
L 7.2 7.2 
" style="fill:none;stroke:#cccccc;stroke-linecap:square;stroke-linejoin:miter;stroke-width:0.8;"/>
   </g>
   <g id="patch_4">
    <path d="M 676.8 115.92 
L 676.8 7.2 
" style="fill:none;stroke:#cccccc;stroke-linecap:square;stroke-linejoin:miter;stroke-width:0.8;"/>
   </g>
   <g id="patch_5">
    <path d="M 7.2 115.92 
L 676.8 115.92 
" style="fill:none;stroke:#cccccc;stroke-linecap:square;stroke-linejoin:miter;stroke-width:0.8;"/>
   </g>
   <g id="patch_6">
    <path d="M 7.2 7.2 
L 676.8 7.2 
" style="fill:none;stroke:#cccccc;stroke-linecap:square;stroke-linejoin:miter;stroke-width:0.8;"/>
   </g>
  </g>
 </g>
 <defs>
  <clipPath id="pf788e548c0">
   <rect height="108.72" width="669.6" x="7.2" y="7.2"/>
  </clipPath>
 </defs>
</svg>
