<?xml version="1.0" encoding="utf-8" standalone="no"?>
<!DOCTYPE svg PUBLIC "-//W3C//DTD SVG 1.1//EN"
  "http://www.w3.org/Graphics/SVG/1.1/DTD/svg11.dtd">
<!-- Created with matplotlib (https://matplotlib.org/) -->
<svg height="123.12pt" version="1.1" viewBox="0 0 684 123.12" width="684pt" xmlns="http://www.w3.org/2000/svg" xmlns:xlink="http://www.w3.org/1999/xlink">
 <defs>
  <style type="text/css">
*{stroke-linecap:butt;stroke-linejoin:round;}
  </style>
 </defs>
 <g id="figure_1">
  <g id="patch_1">
   <path d="M 0 123.12 
L 684 123.12 
L 684 0 
L 0 0 
z
" style="fill:#ffffff;"/>
  </g>
  <g id="axes_1">
   <g id="patch_2">
    <path d="M 7.2 115.92 
L 676.8 115.92 
L 676.8 7.2 
L 7.2 7.2 
z
" style="fill:#ffffff;"/>
   </g>
   <g id="matplotlib.axis_1">
    <g id="xtick_1">
     <g id="line2d_1">
      <path clip-path="url(#p95220e1e6a)" d="M 37.636364 115.92 
L 37.636364 7.2 
" style="fill:none;stroke:#cccccc;stroke-linecap:round;stroke-width:0.8;"/>
     </g>
    </g>
    <g id="xtick_2">
     <g id="line2d_2">
      <path clip-path="url(#p95220e1e6a)" d="M 113.917977 115.92 
L 113.917977 7.2 
" style="fill:none;stroke:#cccccc;stroke-linecap:round;stroke-width:0.8;"/>
     </g>
    </g>
    <g id="xtick_3">
     <g id="line2d_3">
      <path clip-path="url(#p95220e1e6a)" d="M 190.19959 115.92 
L 190.19959 7.2 
" style="fill:none;stroke:#cccccc;stroke-linecap:round;stroke-width:0.8;"/>
     </g>
    </g>
    <g id="xtick_4">
     <g id="line2d_4">
      <path clip-path="url(#p95220e1e6a)" d="M 266.481203 115.92 
L 266.481203 7.2 
" style="fill:none;stroke:#cccccc;stroke-linecap:round;stroke-width:0.8;"/>
     </g>
    </g>
    <g id="xtick_5">
     <g id="line2d_5">
      <path clip-path="url(#p95220e1e6a)" d="M 342.762816 115.92 
L 342.762816 7.2 
" style="fill:none;stroke:#cccccc;stroke-linecap:round;stroke-width:0.8;"/>
     </g>
    </g>
    <g id="xtick_6">
     <g id="line2d_6">
      <path clip-path="url(#p95220e1e6a)" d="M 419.044429 115.92 
L 419.044429 7.2 
" style="fill:none;stroke:#cccccc;stroke-linecap:round;stroke-width:0.8;"/>
     </g>
    </g>
    <g id="xtick_7">
     <g id="line2d_7">
      <path clip-path="url(#p95220e1e6a)" d="M 495.326042 115.92 
L 495.326042 7.2 
" style="fill:none;stroke:#cccccc;stroke-linecap:round;stroke-width:0.8;"/>
     </g>
    </g>
    <g id="xtick_8">
     <g id="line2d_8">
      <path clip-path="url(#p95220e1e6a)" d="M 571.607656 115.92 
L 571.607656 7.2 
" style="fill:none;stroke:#cccccc;stroke-linecap:round;stroke-width:0.8;"/>
     </g>
    </g>
    <g id="xtick_9">
     <g id="line2d_9">
      <path clip-path="url(#p95220e1e6a)" d="M 647.889269 115.92 
L 647.889269 7.2 
" style="fill:none;stroke:#cccccc;stroke-linecap:round;stroke-width:0.8;"/>
     </g>
    </g>
   </g>
   <g id="matplotlib.axis_2">
    <g id="ytick_1">
     <g id="line2d_10">
      <path clip-path="url(#p95220e1e6a)" d="M 7.2 89.910878 
L 676.8 89.910878 
" style="fill:none;stroke:#cccccc;stroke-linecap:round;stroke-width:0.8;"/>
     </g>
    </g>
    <g id="ytick_2">
     <g id="line2d_11">
      <path clip-path="url(#p95220e1e6a)" d="M 7.2 53.431993 
L 676.8 53.431993 
" style="fill:none;stroke:#cccccc;stroke-linecap:round;stroke-width:0.8;"/>
     </g>
    </g>
    <g id="ytick_3">
     <g id="line2d_12">
      <path clip-path="url(#p95220e1e6a)" d="M 7.2 16.953109 
L 676.8 16.953109 
" style="fill:none;stroke:#cccccc;stroke-linecap:round;stroke-width:0.8;"/>
     </g>
    </g>
   </g>
   <g id="line2d_13">
    <path clip-path="url(#p95220e1e6a)" d="M 37.636364 105.490449 
L 39.161996 107.081895 
L 42.21326 106.862382 
L 43.738893 105.819713 
L 45.264525 106.148977 
L 46.790157 106.313606 
L 48.315789 106.313606 
L 49.841422 107.301402 
L 51.367054 107.630666 
L 52.892686 109.441624 
L 54.418319 109.167233 
L 55.943951 107.246524 
L 57.469583 108.234316 
L 58.995215 109.770883 
L 60.520848 108.618457 
L 62.04648 106.313606 
L 63.572112 107.850174 
L 65.097744 106.807504 
L 66.623377 105.984343 
L 68.149009 109.112355 
L 69.674641 107.191646 
L 71.200273 108.014803 
L 72.725906 107.575788 
L 74.251538 108.83797 
L 75.77717 109.057477 
L 77.302802 107.301402 
L 80.354067 107.905052 
L 81.879699 106.972139 
L 83.405332 107.411154 
L 84.930964 105.325815 
L 86.456596 107.466032 
L 87.982228 106.807504 
L 89.507861 109.057477 
L 91.033493 107.685544 
L 92.559125 107.191646 
L 94.084757 105.655074 
L 95.61039 105.929465 
L 97.136022 107.630666 
L 98.661654 108.39895 
L 100.187286 106.313606 
L 101.712919 106.258733 
L 103.238551 105.709957 
L 104.764183 108.344072 
L 106.289815 108.234316 
L 107.815448 107.795296 
L 109.34108 109.386741 
L 110.866712 110.813557 
L 112.392344 108.014803 
L 113.917977 106.258733 
L 115.443609 110.045273 
L 116.969241 107.575788 
L 118.494874 106.807504 
L 120.020506 107.795296 
L 121.546138 109.112355 
L 123.07177 108.673335 
L 124.597403 106.203855 
L 126.123035 105.435571 
L 127.648667 107.027017 
L 129.174299 107.027017 
L 130.699932 106.039221 
L 132.225564 108.947721 
L 133.751196 106.972139 
L 135.276828 108.234316 
L 136.802461 107.630666 
L 138.328093 108.234316 
L 139.853725 106.203855 
L 141.379357 106.203855 
L 142.90499 109.057477 
L 144.430622 109.002599 
L 145.956254 107.301402 
L 147.481887 109.002599 
L 149.007519 109.002599 
L 150.533151 106.807504 
L 152.058783 107.081895 
L 153.584416 108.783092 
L 155.110048 107.52091 
L 156.63568 108.234316 
L 158.161312 110.813557 
L 159.686945 110.813557 
L 161.212577 107.191646 
L 164.263841 107.246524 
L 165.789474 107.52091 
L 167.315106 105.270937 
L 168.840738 107.52091 
L 170.36637 106.094099 
L 171.892003 106.094099 
L 173.417635 106.423363 
L 174.943267 106.423363 
L 176.4689 107.466032 
L 177.994532 110.100147 
L 179.520164 107.191646 
L 181.045796 108.728214 
L 182.571429 109.551375 
L 184.097061 107.35628 
L 185.622693 106.807504 
L 187.148325 107.191646 
L 188.673958 106.039221 
L 190.19959 108.234316 
L 191.725222 105.764835 
L 193.250854 107.191646 
L 194.776487 105.764835 
L 196.302119 106.862382 
L 197.827751 104.557531 
L 199.353383 107.685544 
L 200.879016 106.478245 
L 202.404648 106.313606 
L 203.93028 106.807504 
L 205.455913 106.642875 
L 206.981545 108.947721 
L 208.507177 107.575788 
L 210.032809 107.027017 
L 211.558442 109.496493 
L 213.084074 106.423363 
L 214.609706 107.795296 
L 216.135338 106.642875 
L 217.660971 106.752626 
L 219.186603 108.014803 
L 222.237867 108.892843 
L 223.7635 109.770883 
L 225.289132 104.392897 
L 226.814764 107.35628 
L 228.340396 110.045273 
L 229.866029 108.453828 
L 231.391661 107.411154 
L 232.917293 104.722166 
L 234.442925 105.874591 
L 235.968558 106.423363 
L 237.49419 107.630666 
L 239.019822 106.91726 
L 240.545455 105.270937 
L 242.071087 105.929465 
L 243.596719 110.484288 
L 245.122351 109.112355 
L 246.647984 106.752626 
L 248.173616 108.234316 
L 249.699248 104.722166 
L 251.22488 106.862382 
L 252.750513 108.453828 
L 254.276145 108.39895 
L 255.801777 109.661131 
L 257.327409 108.124564 
L 258.853042 106.423363 
L 260.378674 106.203855 
L 261.904306 109.441624 
L 263.429938 105.929465 
L 264.955571 107.850174 
L 266.481203 108.344072 
L 268.006835 110.045273 
L 269.532468 109.002599 
L 271.0581 109.496493 
L 272.583732 107.246524 
L 274.109364 110.484288 
L 277.160629 104.008755 
L 278.686261 106.587997 
L 280.211893 109.825761 
L 281.737526 107.905052 
L 283.263158 110.978182 
L 284.78879 108.83797 
L 286.314422 105.380693 
L 287.840055 105.709957 
L 289.365687 102.197802 
L 290.891319 104.228268 
L 292.416951 105.874591 
L 293.942584 105.874591 
L 295.468216 107.301402 
L 296.993848 107.795296 
L 298.519481 109.112355 
L 300.045113 109.112355 
L 301.570745 109.441624 
L 303.096377 107.081895 
L 304.62201 108.289194 
L 306.147642 107.630666 
L 307.673274 109.002599 
L 309.198906 107.027017 
L 310.724539 108.234316 
L 312.250171 108.234316 
L 313.775803 106.862382 
L 315.301435 107.575788 
L 316.827068 108.728214 
L 318.3527 107.411154 
L 321.403964 107.35628 
L 322.929597 106.752626 
L 324.455229 107.959934 
L 325.980861 107.301402 
L 327.506494 109.331863 
L 329.032126 109.825761 
L 330.557758 109.002599 
L 332.08339 104.996556 
L 335.134655 109.057477 
L 336.660287 108.344072 
L 338.185919 108.563584 
L 339.711552 106.203855 
L 341.237184 106.587997 
L 342.762816 106.752626 
L 344.288448 106.148977 
L 347.339713 105.545323 
L 348.865345 106.368484 
L 350.390977 107.685544 
L 351.91661 107.081895 
L 353.442242 107.630666 
L 354.967874 110.648923 
L 356.493506 109.661131 
L 358.019139 110.155025 
L 359.544771 109.386741 
L 361.070403 109.935517 
L 362.596036 106.972139 
L 364.121668 107.136768 
L 365.6473 106.313606 
L 370.224197 107.246524 
L 371.749829 106.313606 
L 373.275461 108.344072 
L 374.801094 107.630666 
L 376.326726 110.100147 
L 377.852358 107.411154 
L 379.37799 110.374532 
L 380.903623 105.545323 
L 382.429255 107.191646 
L 383.954887 106.587997 
L 385.480519 107.850174 
L 387.006152 107.466032 
L 388.531784 107.630666 
L 390.057416 105.106307 
L 391.583049 106.587997 
L 393.108681 104.831917 
L 394.634313 107.795296 
L 396.159945 107.301402 
L 397.685578 109.386741 
L 399.21121 104.502653 
L 400.736842 108.83797 
L 402.262474 105.984343 
L 403.788107 106.039221 
L 405.313739 107.575788 
L 406.839371 107.630666 
L 408.365003 109.990395 
L 409.890636 106.642875 
L 411.416268 108.83797 
L 412.9419 107.136768 
L 414.467532 109.441624 
L 415.993165 105.984343 
L 419.044429 109.331863 
L 422.095694 106.697748 
L 423.621326 107.411154 
L 425.146958 106.91726 
L 426.672591 108.947721 
L 428.198223 108.453828 
L 429.723855 107.52091 
L 431.249487 107.027017 
L 432.77512 108.344072 
L 434.300752 105.655074 
L 435.826384 105.655074 
L 437.352016 106.203855 
L 438.877649 106.258733 
L 440.403281 105.874591 
L 441.928913 106.258733 
L 443.454545 104.063633 
L 444.980178 104.996556 
L 446.50581 106.862382 
L 449.557075 106.862382 
L 451.082707 102.362437 
L 452.608339 106.258733 
L 454.133971 104.886795 
L 455.659604 106.039221 
L 457.185236 107.35628 
L 458.710868 108.453828 
L 460.2365 108.179437 
L 461.762133 107.136768 
L 463.287765 107.136768 
L 466.339029 106.587997 
L 467.864662 106.478245 
L 469.390294 108.453828 
L 470.915926 108.453828 
L 472.441558 107.136768 
L 473.967191 107.35628 
L 477.018455 105.600205 
L 478.544087 107.246524 
L 480.06972 106.533114 
L 481.595352 106.972139 
L 483.120984 106.972139 
L 484.646617 105.380693 
L 486.172249 106.642875 
L 487.697881 106.642875 
L 489.223513 105.490449 
L 490.749146 105.709957 
L 492.274778 105.709957 
L 493.80041 106.094099 
L 495.326042 104.173385 
L 496.851675 107.850174 
L 498.377307 107.246524 
L 499.902939 108.234316 
L 501.428571 106.587997 
L 502.954204 108.453828 
L 504.479836 108.124564 
L 506.005468 104.61241 
L 507.5311 106.478245 
L 509.056733 106.478245 
L 510.582365 106.094099 
L 512.107997 105.051425 
L 515.159262 105.874591 
L 516.684894 106.862382 
L 518.210526 103.899004 
L 519.736159 105.325815 
L 521.261791 105.819713 
L 522.787423 101.100255 
L 524.313055 105.106307 
L 525.838688 105.380693 
L 527.36432 107.575788 
L 528.889952 106.258733 
L 530.415584 109.002599 
L 531.941217 107.35628 
L 533.466849 105.490449 
L 534.992481 104.447775 
L 536.518113 105.600205 
L 538.043746 104.118516 
L 539.569378 104.886795 
L 541.09501 104.996556 
L 542.620643 104.118516 
L 544.146275 103.405106 
L 545.671907 104.941673 
L 547.197539 103.569736 
L 548.723172 105.545323 
L 550.248804 103.844126 
L 551.774436 104.831917 
L 553.300068 106.094099 
L 554.825701 107.136768 
L 556.351333 103.514862 
L 557.876965 106.203855 
L 560.92823 106.148977 
L 562.453862 107.246524 
L 563.979494 105.764835 
L 565.505126 106.972139 
L 567.030759 106.972139 
L 568.556391 108.892843 
L 570.082023 106.368484 
L 571.607656 108.508706 
L 573.133288 106.148977 
L 574.65892 107.081895 
L 576.184552 105.764835 
L 577.710185 105.984343 
L 579.235817 104.228268 
L 580.761449 104.722166 
L 582.287081 107.850174 
L 583.812714 106.478245 
L 585.338346 105.709957 
L 586.863978 105.709957 
L 588.38961 105.545323 
L 589.915243 104.886795 
L 591.440875 105.161181 
L 592.966507 103.350228 
L 594.492139 104.996556 
L 596.017772 106.313606 
L 597.543404 105.929465 
L 599.069036 109.27699 
L 600.594668 106.423363 
L 602.120301 107.959934 
L 603.645933 109.002599 
L 605.171565 109.661131 
L 606.697198 109.331863 
L 608.22283 107.301402 
L 609.748462 104.557531 
L 611.274094 106.478245 
L 612.799727 106.148977 
L 614.325359 104.831917 
L 615.850991 105.325815 
L 617.376623 103.405106 
L 618.902256 105.874591 
L 620.427888 104.61241 
L 621.95352 106.478245 
L 623.479152 107.35628 
L 625.004785 107.027017 
L 626.530417 106.094099 
L 628.056049 107.191646 
L 629.581681 108.069686 
L 631.107314 106.587997 
L 632.632946 108.124564 
L 634.158578 104.941673 
L 635.684211 103.514862 
L 637.209843 105.655074 
L 638.735475 105.874591 
L 640.261107 104.338024 
L 641.78674 103.953882 
L 643.312372 104.502653 
L 644.838004 104.667288 
L 646.363636 106.039221 
L 646.363636 106.039221 
" style="fill:none;stroke:#222222;stroke-linecap:round;stroke-opacity:0.9;stroke-width:1.5;"/>
   </g>
   <g id="line2d_14">
    <path clip-path="url(#p95220e1e6a)" d="M 37.636364 84.597887 
L 39.161996 83.41427 
L 40.687628 87.261018 
L 42.21326 90.66391 
L 43.738893 83.118367 
L 45.264525 83.41427 
L 46.790157 89.924151 
L 48.315789 86.965115 
L 49.841422 91.995475 
L 51.367054 85.781499 
L 52.892686 86.225355 
L 54.418319 93.622945 
L 55.943951 84.745837 
L 57.469583 86.225355 
L 58.995215 91.403668 
L 60.520848 91.107765 
L 62.04648 85.633549 
L 63.572112 85.781499 
L 65.097744 79.863427 
L 66.623377 82.230656 
L 68.149009 81.490897 
L 69.674641 76.164632 
L 71.200273 75.572825 
L 72.725906 81.490897 
L 74.251538 80.307282 
L 75.77717 79.715475 
L 77.302802 75.720776 
L 78.828435 80.603186 
L 80.354067 83.118367 
L 81.879699 78.38391 
L 83.405332 92.587282 
L 84.930964 80.455234 
L 86.456596 81.047041 
L 87.982228 80.603186 
L 89.507861 82.082704 
L 91.033493 85.04174 
L 92.559125 83.41427 
L 94.084757 82.674511 
L 95.61039 81.638849 
L 97.136022 81.7868 
L 98.661654 79.271619 
L 100.187286 84.15403 
L 101.712919 83.858126 
L 103.238551 79.567524 
L 104.764183 81.342945 
L 106.289815 77.792101 
L 107.815448 70.690414 
L 109.34108 77.052342 
L 110.866712 73.205596 
L 112.392344 77.792101 
L 113.917977 81.342945 
L 115.443609 80.455234 
L 116.969241 78.975717 
L 118.494874 79.271619 
L 120.020506 81.638849 
L 121.546138 84.597887 
L 123.07177 82.082704 
L 124.597403 84.449933 
L 126.123035 88.296681 
L 127.648667 88.444631 
L 129.174299 85.485596 
L 130.699932 88.888488 
L 132.225564 92.883187 
L 133.751196 91.107765 
L 135.276828 83.562224 
L 136.802461 81.934753 
L 138.328093 83.266319 
L 139.853725 84.449933 
L 141.379357 84.449933 
L 142.90499 77.052342 
L 144.430622 82.674511 
L 145.956254 83.710174 
L 147.481887 79.715475 
L 149.007519 79.715475 
L 150.533151 77.052342 
L 152.058783 78.827764 
L 153.584416 83.266319 
L 155.110048 82.378607 
L 156.63568 75.720776 
L 158.161312 81.047041 
L 159.686945 81.047041 
L 161.212577 75.720776 
L 162.738209 75.720776 
L 164.263841 83.562224 
L 165.789474 81.047041 
L 167.315106 83.858126 
L 168.840738 81.047041 
L 170.36637 84.449933 
L 171.892003 84.449933 
L 173.417635 84.301982 
L 174.943267 84.301982 
L 176.4689 76.312584 
L 177.994532 74.981018 
L 179.520164 82.52656 
L 181.045796 84.449933 
L 182.571429 79.863427 
L 184.097061 90.66391 
L 185.622693 81.490897 
L 187.148325 83.710174 
L 188.673958 86.225355 
L 190.19959 86.077403 
L 191.725222 84.006077 
L 193.250854 82.378607 
L 194.776487 85.04174 
L 196.302119 85.337642 
L 197.827751 89.036439 
L 199.353383 84.893789 
L 200.879016 79.123668 
L 202.404648 82.674511 
L 203.93028 87.408968 
L 205.455913 77.348247 
L 206.981545 80.307282 
L 208.507177 80.011378 
L 210.032809 81.934753 
L 211.558442 76.608488 
L 213.084074 83.41427 
L 214.609706 74.833065 
L 216.135338 83.118367 
L 217.660971 80.89909 
L 219.186603 82.230656 
L 220.712235 85.04174 
L 222.237867 85.781499 
L 223.7635 78.827764 
L 225.289132 81.934753 
L 226.814764 76.016679 
L 228.340396 85.04174 
L 229.866029 84.15403 
L 231.391661 84.745837 
L 232.917293 82.970416 
L 234.442925 80.603186 
L 235.968558 77.940054 
L 237.49419 81.934753 
L 239.019822 78.088005 
L 240.545455 78.679812 
L 242.071087 84.006077 
L 243.596719 82.970416 
L 245.122351 80.159331 
L 246.647984 76.460535 
L 248.173616 82.674511 
L 249.699248 78.38391 
L 251.22488 78.975717 
L 252.750513 83.41427 
L 254.276145 86.225355 
L 255.801777 76.608488 
L 257.327409 83.118367 
L 260.378674 76.016679 
L 261.904306 72.76174 
L 263.429938 77.64415 
L 264.955571 82.970416 
L 266.481203 82.082704 
L 268.006835 77.052342 
L 269.532468 81.934753 
L 271.0581 83.562224 
L 272.583732 80.159331 
L 274.109364 85.189692 
L 275.634997 80.159331 
L 277.160629 87.261018 
L 278.686261 83.118367 
L 280.211893 85.337642 
L 281.737526 83.41427 
L 283.263158 83.41427 
L 284.78879 83.858126 
L 286.314422 90.072102 
L 287.840055 75.868728 
L 289.365687 84.006077 
L 290.891319 79.863427 
L 292.416951 84.006077 
L 293.942584 84.006077 
L 295.468216 86.965115 
L 296.993848 88.296681 
L 298.519481 89.924151 
L 300.045113 89.924151 
L 301.570745 86.077403 
L 303.096377 84.449933 
L 304.62201 90.368005 
L 306.147642 86.817162 
L 307.673274 88.444631 
L 309.198906 84.745837 
L 310.724539 84.006077 
L 312.250171 84.006077 
L 313.775803 84.597887 
L 315.301435 78.531861 
L 316.827068 79.567524 
L 319.878332 79.567524 
L 321.403964 79.419571 
L 322.929597 82.230656 
L 324.455229 73.797403 
L 325.980861 82.674511 
L 327.506494 81.194993 
L 329.032126 80.455234 
L 330.557758 83.118367 
L 332.08339 79.715475 
L 333.609023 78.679812 
L 335.134655 78.531861 
L 336.660287 78.088005 
L 338.185919 82.822463 
L 339.711552 77.496198 
L 341.237184 84.15403 
L 342.762816 77.64415 
L 344.288448 83.118367 
L 345.814081 82.082704 
L 347.339713 81.342945 
L 348.865345 80.751138 
L 350.390977 83.562224 
L 351.91661 83.562224 
L 353.442242 88.148728 
L 354.967874 87.261018 
L 356.493506 85.337642 
L 358.019139 82.230656 
L 359.544771 82.082704 
L 361.070403 88.592584 
L 362.596036 75.128969 
L 364.121668 89.776198 
L 365.6473 81.194993 
L 367.172932 80.751138 
L 368.698565 84.15403 
L 370.224197 82.230656 
L 371.749829 80.603186 
L 373.275461 77.496198 
L 376.326726 82.230656 
L 377.852358 82.082704 
L 379.37799 88.592584 
L 380.903623 85.929452 
L 382.429255 86.077403 
L 383.954887 85.781499 
L 385.480519 82.082704 
L 387.006152 81.638849 
L 388.531784 84.745837 
L 390.057416 82.52656 
L 391.583049 86.373305 
L 393.108681 87.704873 
L 394.634313 81.934753 
L 396.159945 83.118367 
L 397.685578 84.893789 
L 399.21121 77.052342 
L 400.736842 88.000776 
L 402.262474 84.745837 
L 403.788107 86.817162 
L 405.313739 85.929452 
L 406.839371 81.342945 
L 408.365003 82.674511 
L 409.890636 81.638849 
L 411.416268 85.189692 
L 412.9419 85.485596 
L 414.467532 82.230656 
L 415.993165 86.077403 
L 417.518797 77.940054 
L 419.044429 77.496198 
L 420.570062 81.638849 
L 422.095694 80.307282 
L 423.621326 77.348247 
L 425.146958 81.934753 
L 426.672591 81.638849 
L 428.198223 84.893789 
L 429.723855 79.715475 
L 431.249487 84.15403 
L 432.77512 82.674511 
L 434.300752 83.710174 
L 435.826384 83.710174 
L 437.352016 81.342945 
L 438.877649 85.929452 
L 440.403281 85.633549 
L 441.928913 85.929452 
L 443.454545 87.704873 
L 444.980178 84.301982 
L 446.50581 84.006077 
L 448.031442 84.006077 
L 451.082707 76.312584 
L 452.608339 82.082704 
L 454.133971 87.408968 
L 455.659604 86.373305 
L 457.185236 78.975717 
L 458.710868 88.592584 
L 460.2365 87.113066 
L 461.762133 83.266319 
L 463.287765 83.266319 
L 464.813397 80.89909 
L 466.339029 82.230656 
L 467.864662 85.485596 
L 469.390294 82.082704 
L 470.915926 82.378607 
L 472.441558 79.863427 
L 473.967191 79.567524 
L 475.492823 82.674511 
L 477.018455 74.685113 
L 478.544087 85.929452 
L 480.06972 75.128969 
L 481.595352 84.15403 
L 483.120984 84.15403 
L 484.646617 85.189692 
L 486.172249 79.123668 
L 487.697881 79.123668 
L 489.223513 86.817162 
L 490.749146 80.307282 
L 492.274778 80.307282 
L 493.80041 79.567524 
L 495.326042 80.89909 
L 496.851675 79.419571 
L 498.377307 76.756439 
L 499.902939 82.970416 
L 501.428571 81.638849 
L 502.954204 85.781499 
L 504.479836 87.408968 
L 506.005468 84.449933 
L 507.5311 86.66921 
L 509.056733 86.521259 
L 510.582365 86.66921 
L 512.107997 77.940054 
L 513.63363 90.368005 
L 515.159262 82.082704 
L 516.684894 91.551619 
L 518.210526 83.562224 
L 519.736159 84.745837 
L 521.261791 88.444631 
L 522.787423 87.113066 
L 524.313055 90.515956 
L 525.838688 85.781499 
L 527.36432 81.7868 
L 528.889952 79.863427 
L 530.415584 79.271619 
L 531.941217 81.638849 
L 533.466849 75.572825 
L 534.992481 77.940054 
L 536.518113 83.118367 
L 538.043746 78.235957 
L 539.569378 87.113066 
L 541.09501 85.633549 
L 542.620643 86.521259 
L 544.146275 86.66921 
L 545.671907 83.562224 
L 547.197539 85.189692 
L 548.723172 89.036439 
L 550.248804 85.337642 
L 551.774436 80.307282 
L 553.300068 80.159331 
L 554.825701 77.052342 
L 556.351333 82.970416 
L 557.876965 82.674511 
L 559.402597 87.556921 
L 560.92823 81.7868 
L 562.453862 81.638849 
L 563.979494 84.15403 
L 565.505126 84.745837 
L 567.030759 84.745837 
L 570.082023 78.38391 
L 573.133288 85.781499 
L 574.65892 79.715475 
L 576.184552 80.011378 
L 577.710185 86.225355 
L 579.235817 87.408968 
L 580.761449 78.679812 
L 582.287081 82.822463 
L 583.812714 82.674511 
L 585.338346 79.271619 
L 586.863978 79.271619 
L 588.38961 84.006077 
L 589.915243 89.480294 
L 591.440875 80.603186 
L 592.966507 85.485596 
L 594.492139 86.225355 
L 596.017772 85.929452 
L 597.543404 86.965115 
L 599.069036 81.934753 
L 600.594668 85.781499 
L 602.120301 79.123668 
L 603.645933 84.006077 
L 605.171565 81.934753 
L 606.697198 76.608488 
L 608.22283 81.7868 
L 609.748462 81.934753 
L 611.274094 85.633549 
L 612.799727 84.597887 
L 614.325359 84.893789 
L 615.850991 86.66921 
L 617.376623 91.107765 
L 618.902256 85.189692 
L 620.427888 83.41427 
L 621.95352 83.858126 
L 623.479152 80.455234 
L 625.004785 85.781499 
L 626.530417 86.965115 
L 628.056049 82.970416 
L 629.581681 80.89909 
L 631.107314 79.715475 
L 632.632946 81.047041 
L 634.158578 80.307282 
L 635.684211 81.342945 
L 637.209843 80.307282 
L 638.735475 82.378607 
L 640.261107 88.148728 
L 641.78674 81.490897 
L 643.312372 85.189692 
L 644.838004 83.266319 
L 646.363636 87.556921 
L 646.363636 87.556921 
" style="fill:none;stroke:#351b35;stroke-linecap:round;stroke-opacity:0.9;stroke-width:1.5;"/>
   </g>
   <g id="line2d_15">
    <path clip-path="url(#p95220e1e6a)" d="M 37.636364 22.226307 
L 39.161996 19.537116 
L 40.687628 19.249031 
L 42.21326 16.751896 
L 43.738893 22.130279 
L 45.264525 14.158732 
L 46.790157 17.03998 
L 48.315789 17.808367 
L 49.841422 14.927038 
L 51.367054 20.785724 
L 52.892686 20.785724 
L 54.418319 21.169836 
L 55.943951 18.096451 
L 57.469583 26.836385 
L 58.995215 17.712339 
L 60.520848 21.650058 
L 62.04648 20.017337 
L 63.572112 18.19256 
L 65.097744 21.938223 
L 66.623377 19.152963 
L 69.674641 21.169836 
L 71.200273 20.40153 
L 72.725906 17.136089 
L 74.251538 15.599396 
L 75.77717 21.458001 
L 77.302802 15.119175 
L 78.828435 13.966635 
L 80.354067 19.345059 
L 81.879699 12.141818 
L 83.405332 18.000423 
L 84.930964 15.119175 
L 86.456596 20.593587 
L 87.982228 17.232117 
L 89.507861 21.746126 
L 91.033493 18.480644 
L 92.559125 20.593587 
L 94.084757 20.113365 
L 95.61039 23.474915 
L 97.136022 19.249031 
L 98.661654 18.864838 
L 100.187286 22.034251 
L 101.712919 26.932494 
L 103.238551 21.073808 
L 104.764183 27.7008 
L 106.289815 25.683886 
L 107.815448 20.497558 
L 109.34108 20.689655 
L 110.866712 22.610501 
L 112.392344 21.073808 
L 113.917977 19.056894 
L 115.443609 22.322416 
L 116.969241 21.554029 
L 118.494874 20.305502 
L 120.020506 22.322416 
L 121.546138 19.441087 
L 123.07177 20.785724 
L 124.597403 22.418444 
L 126.123035 26.068079 
L 127.648667 15.983509 
L 129.174299 16.751896 
L 130.699932 16.751896 
L 132.225564 22.130279 
L 133.751196 15.503288 
L 135.276828 14.734982 
L 136.802461 20.785724 
L 138.328093 21.554029 
L 139.853725 15.311231 
L 141.379357 15.311231 
L 142.90499 24.435358 
L 144.430622 26.740357 
L 145.956254 28.181021 
L 147.481887 26.5483 
L 149.007519 26.5483 
L 150.533151 25.875982 
L 152.058783 18.576673 
L 153.584416 18.288588 
L 155.110048 22.034251 
L 156.63568 16.751896 
L 158.161312 17.136089 
L 159.686945 17.136089 
L 161.212577 21.265945 
L 162.738209 21.265945 
L 164.263841 18.864838 
L 165.789474 18.19256 
L 167.315106 15.791453 
L 168.840738 18.19256 
L 170.36637 26.5483 
L 171.892003 26.5483 
L 173.417635 19.729253 
L 174.943267 19.729253 
L 176.4689 16.463731 
L 177.994532 18.960866 
L 179.520164 18.096451 
L 181.045796 15.887481 
L 182.571429 21.746126 
L 184.097061 21.458001 
L 185.622693 16.559799 
L 187.148325 17.232117 
L 188.673958 16.559799 
L 190.19959 19.825281 
L 191.725222 15.023147 
L 193.250854 16.943952 
L 194.776487 21.842195 
L 196.302119 16.559799 
L 197.827751 17.808367 
L 199.353383 18.76881 
L 200.879016 20.593587 
L 202.404648 17.520202 
L 203.93028 20.689655 
L 205.455913 18.000423 
L 206.981545 19.633144 
L 208.507177 23.18675 
L 210.032809 22.226307 
L 211.558442 22.034251 
L 213.084074 18.384616 
L 214.609706 21.842195 
L 216.135338 23.955137 
L 217.660971 23.763 
L 219.186603 24.531386 
L 220.712235 18.864838 
L 222.237867 16.655868 
L 223.7635 12.333874 
L 225.289132 24.33933 
L 226.814764 15.503288 
L 228.340396 21.746126 
L 229.866029 13.102261 
L 231.391661 22.898666 
L 232.917293 21.746126 
L 234.442925 18.864838 
L 235.968558 22.130279 
L 237.49419 17.712339 
L 239.019822 12.333874 
L 240.545455 22.706529 
L 242.071087 24.723443 
L 243.596719 15.887481 
L 245.122351 18.76881 
L 246.647984 18.384616 
L 248.173616 19.152963 
L 251.22488 16.367702 
L 252.750513 20.017337 
L 255.801777 16.175646 
L 257.327409 23.666972 
L 258.853042 15.119175 
L 260.378674 23.570943 
L 261.904306 20.209474 
L 263.429938 25.203664 
L 264.955571 20.113365 
L 266.481203 22.418444 
L 268.006835 21.361973 
L 269.532468 19.921309 
L 271.0581 19.345059 
L 272.583732 22.418444 
L 274.109364 21.746126 
L 275.634997 22.418444 
L 277.160629 22.706529 
L 278.686261 16.847924 
L 280.211893 16.271674 
L 281.737526 16.655868 
L 283.263158 19.345059 
L 284.78879 19.825281 
L 286.314422 15.791453 
L 287.840055 19.441087 
L 289.365687 21.842195 
L 290.891319 17.03998 
L 292.416951 15.887481 
L 293.942584 15.887481 
L 295.468216 17.904395 
L 296.993848 23.282819 
L 298.519481 17.232117 
L 300.045113 17.232117 
L 301.570745 17.712339 
L 303.096377 15.119175 
L 304.62201 19.729253 
L 306.147642 17.03998 
L 307.673274 25.683886 
L 309.198906 22.802638 
L 310.724539 20.785724 
L 312.250171 20.785724 
L 313.775803 25.491829 
L 315.301435 20.113365 
L 316.827068 23.378887 
L 318.3527 21.650058 
L 319.878332 21.650058 
L 321.403964 22.514472 
L 322.929597 19.441087 
L 324.455229 20.593587 
L 325.980861 12.910124 
L 327.506494 18.288588 
L 329.032126 17.328145 
L 330.557758 14.734982 
L 332.08339 18.480644 
L 333.609023 20.305502 
L 335.134655 12.718068 
L 336.660287 14.158732 
L 338.185919 23.474915 
L 339.711552 22.994694 
L 341.237184 14.25476 
L 342.762816 21.650058 
L 344.288448 19.729253 
L 345.814081 18.480644 
L 347.339713 17.424173 
L 348.865345 23.090722 
L 350.390977 21.746126 
L 351.91661 25.203664 
L 353.442242 18.384616 
L 354.967874 18.576673 
L 356.493506 23.570943 
L 358.019139 20.881752 
L 359.544771 24.91558 
L 361.070403 24.723443 
L 362.596036 16.847924 
L 364.121668 15.791453 
L 365.6473 19.056894 
L 367.172932 14.927038 
L 368.698565 15.599396 
L 370.224197 23.955137 
L 371.749829 16.271674 
L 373.275461 18.960866 
L 374.801094 20.305502 
L 376.326726 21.265945 
L 377.852358 15.983509 
L 379.37799 15.407259 
L 380.903623 22.034251 
L 382.429255 17.61631 
L 383.954887 16.943952 
L 385.480519 14.83101 
L 387.006152 18.288588 
L 388.531784 16.751896 
L 390.057416 16.847924 
L 391.583049 18.864838 
L 393.108681 19.825281 
L 394.634313 20.209474 
L 396.159945 17.136089 
L 397.685578 21.938223 
L 399.21121 19.441087 
L 400.736842 22.322416 
L 402.262474 23.763 
L 403.788107 21.554029 
L 405.313739 19.056894 
L 406.839371 21.458001 
L 408.365003 16.463731 
L 409.890636 19.921309 
L 411.416268 18.000423 
L 412.9419 23.18675 
L 414.467532 14.734982 
L 415.993165 24.051165 
L 417.518797 24.147193 
L 419.044429 22.034251 
L 420.570062 18.672781 
L 422.095694 18.864838 
L 423.621326 17.904395 
L 425.146958 22.994694 
L 426.672591 24.627414 
L 428.198223 14.158732 
L 429.723855 20.40153 
L 431.249487 20.209474 
L 432.77512 13.774539 
L 434.300752 16.079618 
L 435.826384 16.079618 
L 437.352016 17.136089 
L 438.877649 16.943952 
L 440.403281 17.232117 
L 441.928913 16.943952 
L 443.454545 18.480644 
L 444.980178 19.345059 
L 446.50581 21.938223 
L 448.031442 21.938223 
L 449.557075 18.76881 
L 451.082707 17.03998 
L 452.608339 18.480644 
L 454.133971 18.480644 
L 455.659604 18.000423 
L 457.185236 24.723443 
L 458.710868 24.243221 
L 460.2365 15.023147 
L 461.762133 25.107636 
L 463.287765 25.107636 
L 464.813397 16.367702 
L 466.339029 16.943952 
L 467.864662 23.763 
L 469.390294 22.610501 
L 470.915926 26.932494 
L 472.441558 20.497558 
L 473.967191 15.887481 
L 475.492823 20.881752 
L 477.018455 18.76881 
L 478.544087 18.576673 
L 480.06972 17.61631 
L 481.595352 19.441087 
L 483.120984 19.441087 
L 484.646617 17.136089 
L 486.172249 18.864838 
L 487.697881 18.864838 
L 489.223513 12.526011 
L 490.749146 20.593587 
L 492.274778 20.593587 
L 493.80041 16.079618 
L 495.326042 16.079618 
L 496.851675 23.282819 
L 498.377307 18.960866 
L 499.902939 19.056894 
L 501.428571 17.424173 
L 502.954204 16.847924 
L 504.479836 22.610501 
L 506.005468 15.311231 
L 507.5311 19.633144 
L 509.056733 22.130279 
L 510.582365 18.096451 
L 512.107997 16.463731 
L 513.63363 19.921309 
L 515.159262 22.514472 
L 516.684894 19.825281 
L 518.210526 19.537116 
L 519.736159 23.763 
L 521.261791 18.480644 
L 522.787423 20.97778 
L 524.313055 21.554029 
L 525.838688 17.904395 
L 527.36432 17.520202 
L 528.889952 16.463731 
L 530.415584 17.328145 
L 531.941217 20.785724 
L 533.466849 22.706529 
L 534.992481 13.966635 
L 536.518113 14.542925 
L 538.043746 13.966635 
L 539.569378 22.130279 
L 541.09501 18.480644 
L 542.620643 17.424173 
L 544.146275 18.672781 
L 545.671907 17.904395 
L 547.197539 22.226307 
L 548.723172 22.706529 
L 550.248804 19.056894 
L 551.774436 19.441087 
L 553.300068 21.361973 
L 554.825701 14.83101 
L 556.351333 24.147193 
L 557.876965 18.288588 
L 559.402597 21.554029 
L 560.92823 18.480644 
L 562.453862 19.537116 
L 563.979494 19.249031 
L 565.505126 21.361973 
L 567.030759 21.361973 
L 568.556391 18.288588 
L 570.082023 21.169836 
L 571.607656 15.791453 
L 573.133288 25.779914 
L 574.65892 20.97778 
L 576.184552 17.424173 
L 577.710185 16.367702 
L 579.235817 17.712339 
L 580.761449 13.294317 
L 582.287081 17.424173 
L 583.812714 16.847924 
L 585.338346 18.864838 
L 586.863978 18.864838 
L 588.38961 17.328145 
L 589.915243 19.056894 
L 591.440875 21.554029 
L 592.966507 16.655868 
L 594.492139 22.802638 
L 596.017772 14.83101 
L 597.543404 20.689655 
L 599.069036 25.203664 
L 600.594668 21.746126 
L 602.120301 20.881752 
L 603.645933 21.265945 
L 605.171565 23.282819 
L 606.697198 21.938223 
L 608.22283 20.881752 
L 609.748462 17.61631 
L 611.274094 22.610501 
L 614.325359 18.288588 
L 615.850991 23.378887 
L 617.376623 21.169836 
L 618.902256 20.881752 
L 620.427888 17.328145 
L 621.95352 13.006233 
L 623.479152 18.288588 
L 625.004785 17.03998 
L 626.530417 16.655868 
L 628.056049 19.345059 
L 629.581681 18.672781 
L 631.107314 22.514472 
L 632.632946 16.559799 
L 634.158578 24.33933 
L 637.209843 17.904395 
L 638.735475 27.508743 
L 640.261107 20.689655 
L 641.78674 28.181021 
L 644.838004 17.712339 
L 646.363636 19.921309 
L 646.363636 19.921309 
" style="fill:none;stroke:#481448;stroke-linecap:round;stroke-opacity:0.9;stroke-width:1.5;"/>
   </g>
   <g id="patch_3">
    <path d="M 7.2 115.92 
L 7.2 7.2 
" style="fill:none;stroke:#cccccc;stroke-linecap:square;stroke-linejoin:miter;stroke-width:0.8;"/>
   </g>
   <g id="patch_4">
    <path d="M 676.8 115.92 
L 676.8 7.2 
" style="fill:none;stroke:#cccccc;stroke-linecap:square;stroke-linejoin:miter;stroke-width:0.8;"/>
   </g>
   <g id="patch_5">
    <path d="M 7.2 115.92 
L 676.8 115.92 
" style="fill:none;stroke:#cccccc;stroke-linecap:square;stroke-linejoin:miter;stroke-width:0.8;"/>
   </g>
   <g id="patch_6">
    <path d="M 7.2 7.2 
L 676.8 7.2 
" style="fill:none;stroke:#cccccc;stroke-linecap:square;stroke-linejoin:miter;stroke-width:0.8;"/>
   </g>
  </g>
 </g>
 <defs>
  <clipPath id="p95220e1e6a">
   <rect height="108.72" width="669.6" x="7.2" y="7.2"/>
  </clipPath>
 </defs>
</svg>
