<?xml version="1.0" encoding="utf-8" standalone="no"?>
<!DOCTYPE svg PUBLIC "-//W3C//DTD SVG 1.1//EN"
  "http://www.w3.org/Graphics/SVG/1.1/DTD/svg11.dtd">
<!-- Created with matplotlib (https://matplotlib.org/) -->
<svg height="123.12pt" version="1.1" viewBox="0 0 684 123.12" width="684pt" xmlns="http://www.w3.org/2000/svg" xmlns:xlink="http://www.w3.org/1999/xlink">
 <defs>
  <style type="text/css">
*{stroke-linecap:butt;stroke-linejoin:round;}
  </style>
 </defs>
 <g id="figure_1">
  <g id="patch_1">
   <path d="M 0 123.12 
L 684 123.12 
L 684 0 
L 0 0 
z
" style="fill:#ffffff;"/>
  </g>
  <g id="axes_1">
   <g id="patch_2">
    <path d="M 7.2 115.92 
L 676.8 115.92 
L 676.8 7.2 
L 7.2 7.2 
z
" style="fill:#ffffff;"/>
   </g>
   <g id="matplotlib.axis_1">
    <g id="xtick_1">
     <g id="line2d_1">
      <path clip-path="url(#pa44235215a)" d="M 37.636364 115.92 
L 37.636364 7.2 
" style="fill:none;stroke:#cccccc;stroke-linecap:round;stroke-width:0.8;"/>
     </g>
    </g>
    <g id="xtick_2">
     <g id="line2d_2">
      <path clip-path="url(#pa44235215a)" d="M 113.917977 115.92 
L 113.917977 7.2 
" style="fill:none;stroke:#cccccc;stroke-linecap:round;stroke-width:0.8;"/>
     </g>
    </g>
    <g id="xtick_3">
     <g id="line2d_3">
      <path clip-path="url(#pa44235215a)" d="M 190.19959 115.92 
L 190.19959 7.2 
" style="fill:none;stroke:#cccccc;stroke-linecap:round;stroke-width:0.8;"/>
     </g>
    </g>
    <g id="xtick_4">
     <g id="line2d_4">
      <path clip-path="url(#pa44235215a)" d="M 266.481203 115.92 
L 266.481203 7.2 
" style="fill:none;stroke:#cccccc;stroke-linecap:round;stroke-width:0.8;"/>
     </g>
    </g>
    <g id="xtick_5">
     <g id="line2d_5">
      <path clip-path="url(#pa44235215a)" d="M 342.762816 115.92 
L 342.762816 7.2 
" style="fill:none;stroke:#cccccc;stroke-linecap:round;stroke-width:0.8;"/>
     </g>
    </g>
    <g id="xtick_6">
     <g id="line2d_6">
      <path clip-path="url(#pa44235215a)" d="M 419.044429 115.92 
L 419.044429 7.2 
" style="fill:none;stroke:#cccccc;stroke-linecap:round;stroke-width:0.8;"/>
     </g>
    </g>
    <g id="xtick_7">
     <g id="line2d_7">
      <path clip-path="url(#pa44235215a)" d="M 495.326042 115.92 
L 495.326042 7.2 
" style="fill:none;stroke:#cccccc;stroke-linecap:round;stroke-width:0.8;"/>
     </g>
    </g>
    <g id="xtick_8">
     <g id="line2d_8">
      <path clip-path="url(#pa44235215a)" d="M 571.607656 115.92 
L 571.607656 7.2 
" style="fill:none;stroke:#cccccc;stroke-linecap:round;stroke-width:0.8;"/>
     </g>
    </g>
    <g id="xtick_9">
     <g id="line2d_9">
      <path clip-path="url(#pa44235215a)" d="M 647.889269 115.92 
L 647.889269 7.2 
" style="fill:none;stroke:#cccccc;stroke-linecap:round;stroke-width:0.8;"/>
     </g>
    </g>
   </g>
   <g id="matplotlib.axis_2">
    <g id="ytick_1">
     <g id="line2d_10">
      <path clip-path="url(#pa44235215a)" d="M 7.2 98.234621 
L 676.8 98.234621 
" style="fill:none;stroke:#cccccc;stroke-linecap:round;stroke-width:0.8;"/>
     </g>
    </g>
    <g id="ytick_2">
     <g id="line2d_11">
      <path clip-path="url(#pa44235215a)" d="M 7.2 72.126873 
L 676.8 72.126873 
" style="fill:none;stroke:#cccccc;stroke-linecap:round;stroke-width:0.8;"/>
     </g>
    </g>
    <g id="ytick_3">
     <g id="line2d_12">
      <path clip-path="url(#pa44235215a)" d="M 7.2 46.019124 
L 676.8 46.019124 
" style="fill:none;stroke:#cccccc;stroke-linecap:round;stroke-width:0.8;"/>
     </g>
    </g>
    <g id="ytick_4">
     <g id="line2d_13">
      <path clip-path="url(#pa44235215a)" d="M 7.2 19.911376 
L 676.8 19.911376 
" style="fill:none;stroke:#cccccc;stroke-linecap:round;stroke-width:0.8;"/>
     </g>
    </g>
   </g>
   <g id="line2d_14">
    <path clip-path="url(#pa44235215a)" d="M 37.636364 79.474178 
L 42.21326 79.474178 
L 43.738893 76.277554 
L 45.264525 76.277554 
L 46.790157 73.080931 
L 51.367054 73.080931 
L 52.892686 69.884307 
L 54.418319 69.884307 
L 55.943951 66.687683 
L 58.995215 66.687683 
L 60.520848 69.884307 
L 63.572112 63.491059 
L 65.097744 66.687683 
L 66.623377 66.687683 
L 68.149009 63.491059 
L 69.674641 63.491059 
L 71.200273 60.294435 
L 72.725906 66.687683 
L 74.251538 66.687683 
L 75.77717 63.491059 
L 77.302802 69.884307 
L 78.828435 66.687683 
L 80.354067 73.080931 
L 81.879699 73.080931 
L 83.405332 66.687683 
L 84.930964 69.884307 
L 86.456596 66.687683 
L 87.982228 66.687683 
L 89.507861 69.884307 
L 91.033493 76.277554 
L 92.559125 73.080931 
L 94.084757 76.277554 
L 95.61039 76.277554 
L 98.661654 82.670802 
L 100.187286 79.474178 
L 101.712919 79.474178 
L 103.238551 82.670802 
L 104.764183 76.277554 
L 106.289815 79.474178 
L 107.815448 73.080931 
L 109.34108 76.277554 
L 110.866712 76.277554 
L 112.392344 73.080931 
L 113.917977 76.277554 
L 115.443609 73.080931 
L 116.969241 79.474178 
L 118.494874 73.080931 
L 120.020506 73.080931 
L 121.546138 69.884307 
L 123.07177 73.080931 
L 127.648667 73.080931 
L 130.699932 79.474178 
L 135.276828 79.474178 
L 136.802461 82.670802 
L 138.328093 79.474178 
L 139.853725 82.670802 
L 142.90499 82.670802 
L 144.430622 79.474178 
L 158.161312 79.474178 
L 159.686945 76.277554 
L 161.212577 76.277554 
L 162.738209 79.474178 
L 164.263841 79.474178 
L 165.789474 82.670802 
L 167.315106 82.670802 
L 168.840738 85.867425 
L 170.36637 85.867425 
L 171.892003 82.670802 
L 173.417635 82.670802 
L 174.943267 85.867425 
L 176.4689 85.867425 
L 177.994532 82.670802 
L 179.520164 82.670802 
L 181.045796 79.474178 
L 182.571429 79.474178 
L 184.097061 82.670802 
L 185.622693 82.670802 
L 187.148325 79.474178 
L 188.673958 73.080931 
L 190.19959 73.080931 
L 191.725222 76.277554 
L 196.302119 76.277554 
L 197.827751 79.474178 
L 199.353383 76.277554 
L 200.879016 85.867425 
L 202.404648 82.670802 
L 203.93028 76.277554 
L 206.981545 76.277554 
L 208.507177 82.670802 
L 213.084074 73.080931 
L 214.609706 76.277554 
L 216.135338 82.670802 
L 217.660971 79.474178 
L 219.186603 82.670802 
L 220.712235 82.670802 
L 222.237867 79.474178 
L 223.7635 85.867425 
L 226.814764 85.867425 
L 228.340396 82.670802 
L 229.866029 85.867425 
L 231.391661 85.867425 
L 232.917293 82.670802 
L 234.442925 85.867425 
L 235.968558 85.867425 
L 237.49419 82.670802 
L 239.019822 85.867425 
L 242.071087 85.867425 
L 243.596719 89.064049 
L 245.122351 89.064049 
L 246.647984 92.260673 
L 248.173616 85.867425 
L 249.699248 89.064049 
L 251.22488 89.064049 
L 252.750513 82.670802 
L 254.276145 89.064049 
L 255.801777 92.260673 
L 258.853042 85.867425 
L 261.904306 85.867425 
L 263.429938 92.260673 
L 264.955571 92.260673 
L 269.532468 101.850544 
L 271.0581 95.457297 
L 277.160629 95.457297 
L 278.686261 89.064049 
L 281.737526 89.064049 
L 286.314422 79.474178 
L 287.840055 79.474178 
L 289.365687 73.080931 
L 290.891319 76.277554 
L 296.993848 76.277554 
L 298.519481 79.474178 
L 300.045113 79.474178 
L 301.570745 76.277554 
L 303.096377 79.474178 
L 304.62201 76.277554 
L 306.147642 76.277554 
L 307.673274 82.670802 
L 309.198906 79.474178 
L 310.724539 79.474178 
L 313.775803 73.080931 
L 315.301435 73.080931 
L 316.827068 76.277554 
L 318.3527 73.080931 
L 321.403964 73.080931 
L 322.929597 76.277554 
L 325.980861 76.277554 
L 330.557758 85.867425 
L 333.609023 85.867425 
L 335.134655 82.670802 
L 336.660287 89.064049 
L 339.711552 89.064049 
L 341.237184 92.260673 
L 344.288448 92.260673 
L 345.814081 85.867425 
L 347.339713 92.260673 
L 348.865345 89.064049 
L 350.390977 89.064049 
L 351.91661 82.670802 
L 353.442242 92.260673 
L 354.967874 82.670802 
L 356.493506 89.064049 
L 358.019139 85.867425 
L 359.544771 89.064049 
L 361.070403 89.064049 
L 362.596036 92.260673 
L 364.121668 85.867425 
L 365.6473 95.457297 
L 367.172932 85.867425 
L 368.698565 92.260673 
L 373.275461 92.260673 
L 374.801094 85.867425 
L 376.326726 95.457297 
L 377.852358 95.457297 
L 379.37799 92.260673 
L 382.429255 92.260673 
L 383.954887 95.457297 
L 385.480519 89.064049 
L 391.583049 89.064049 
L 394.634313 82.670802 
L 396.159945 85.867425 
L 397.685578 82.670802 
L 402.262474 82.670802 
L 403.788107 79.474178 
L 405.313739 85.867425 
L 409.890636 85.867425 
L 411.416268 92.260673 
L 412.9419 89.064049 
L 414.467532 92.260673 
L 415.993165 92.260673 
L 417.518797 95.457297 
L 419.044429 92.260673 
L 422.095694 92.260673 
L 423.621326 89.064049 
L 425.146958 92.260673 
L 426.672591 92.260673 
L 429.723855 85.867425 
L 431.249487 85.867425 
L 432.77512 82.670802 
L 434.300752 89.064049 
L 435.826384 82.670802 
L 437.352016 82.670802 
L 438.877649 85.867425 
L 440.403281 82.670802 
L 441.928913 85.867425 
L 443.454545 85.867425 
L 444.980178 89.064049 
L 446.50581 85.867425 
L 448.031442 89.064049 
L 451.082707 89.064049 
L 454.133971 82.670802 
L 455.659604 85.867425 
L 457.185236 85.867425 
L 458.710868 92.260673 
L 460.2365 85.867425 
L 461.762133 82.670802 
L 463.287765 85.867425 
L 469.390294 85.867425 
L 470.915926 89.064049 
L 472.441558 85.867425 
L 475.492823 85.867425 
L 477.018455 89.064049 
L 478.544087 89.064049 
L 480.06972 85.867425 
L 481.595352 85.867425 
L 483.120984 79.474178 
L 484.646617 82.670802 
L 486.172249 79.474178 
L 487.697881 82.670802 
L 489.223513 82.670802 
L 490.749146 79.474178 
L 492.274778 85.867425 
L 493.80041 89.064049 
L 495.326042 89.064049 
L 496.851675 85.867425 
L 498.377307 89.064049 
L 502.954204 89.064049 
L 504.479836 85.867425 
L 506.005468 89.064049 
L 507.5311 95.457297 
L 509.056733 89.064049 
L 510.582365 89.064049 
L 512.107997 92.260673 
L 513.63363 98.65392 
L 515.159262 95.457297 
L 516.684894 95.457297 
L 518.210526 98.65392 
L 519.736159 98.65392 
L 521.261791 95.457297 
L 522.787423 85.867425 
L 525.838688 85.867425 
L 527.36432 82.670802 
L 528.889952 82.670802 
L 530.415584 76.277554 
L 531.941217 79.474178 
L 533.466849 79.474178 
L 534.992481 85.867425 
L 536.518113 82.670802 
L 538.043746 82.670802 
L 539.569378 79.474178 
L 541.09501 79.474178 
L 542.620643 76.277554 
L 544.146275 79.474178 
L 547.197539 79.474178 
L 550.248804 73.080931 
L 551.774436 73.080931 
L 553.300068 69.884307 
L 554.825701 73.080931 
L 557.876965 73.080931 
L 559.402597 76.277554 
L 562.453862 76.277554 
L 563.979494 85.867425 
L 565.505126 82.670802 
L 567.030759 85.867425 
L 568.556391 85.867425 
L 570.082023 79.474178 
L 571.607656 82.670802 
L 573.133288 79.474178 
L 574.65892 79.474178 
L 576.184552 82.670802 
L 577.710185 82.670802 
L 579.235817 85.867425 
L 582.287081 85.867425 
L 583.812714 92.260673 
L 585.338346 89.064049 
L 586.863978 92.260673 
L 588.38961 89.064049 
L 589.915243 89.064049 
L 591.440875 85.867425 
L 592.966507 89.064049 
L 596.017772 82.670802 
L 597.543404 85.867425 
L 599.069036 82.670802 
L 600.594668 82.670802 
L 602.120301 79.474178 
L 603.645933 85.867425 
L 605.171565 85.867425 
L 606.697198 89.064049 
L 608.22283 82.670802 
L 609.748462 85.867425 
L 614.325359 85.867425 
L 617.376623 79.474178 
L 620.427888 79.474178 
L 621.95352 82.670802 
L 623.479152 79.474178 
L 625.004785 79.474178 
L 626.530417 82.670802 
L 628.056049 76.277554 
L 629.581681 82.670802 
L 631.107314 82.670802 
L 632.632946 85.867425 
L 637.209843 85.867425 
L 638.735475 82.670802 
L 640.261107 82.670802 
L 641.78674 85.867425 
L 643.312372 82.670802 
L 644.838004 82.670802 
L 646.363636 79.474178 
L 646.363636 79.474178 
" style="fill:none;stroke:#222222;stroke-linecap:round;stroke-opacity:0.9;stroke-width:1.5;"/>
   </g>
   <g id="line2d_15">
    <path clip-path="url(#pa44235215a)" d="M 37.636364 55.096935 
L 39.161996 52.187694 
L 40.687628 55.096935 
L 42.21326 55.096935 
L 43.738893 58.006178 
L 46.790157 58.006178 
L 48.315789 52.187694 
L 49.841422 60.915419 
L 51.367054 55.096935 
L 52.892686 46.36921 
L 54.418319 49.278452 
L 55.943951 37.641484 
L 57.469583 37.641484 
L 58.995215 34.732243 
L 62.04648 34.732243 
L 63.572112 31.823 
L 65.097744 34.732243 
L 66.623377 40.550726 
L 68.149009 37.641484 
L 69.674641 43.459968 
L 71.200273 52.187694 
L 72.725906 52.187694 
L 75.77717 58.006178 
L 77.302802 58.006178 
L 78.828435 55.096935 
L 80.354067 60.915419 
L 81.879699 60.915419 
L 83.405332 55.096935 
L 84.930964 46.36921 
L 86.456596 55.096935 
L 87.982228 52.187694 
L 89.507861 55.096935 
L 91.033493 49.278452 
L 92.559125 46.36921 
L 94.084757 49.278452 
L 95.61039 46.36921 
L 97.136022 40.550726 
L 98.661654 40.550726 
L 100.187286 34.732243 
L 101.712919 34.732243 
L 103.238551 31.823 
L 104.764183 37.641484 
L 106.289815 31.823 
L 107.815448 31.823 
L 109.34108 23.095275 
L 110.866712 28.913759 
L 112.392344 26.004517 
L 113.917977 28.913759 
L 115.443609 20.186034 
L 116.969241 26.004517 
L 121.546138 26.004517 
L 123.07177 34.732243 
L 124.597403 31.823 
L 127.648667 31.823 
L 129.174299 34.732243 
L 132.225564 28.913759 
L 133.751196 28.913759 
L 135.276828 31.823 
L 136.802461 28.913759 
L 138.328093 31.823 
L 139.853725 28.913759 
L 142.90499 28.913759 
L 144.430622 37.641484 
L 145.956254 37.641484 
L 147.481887 40.550726 
L 149.007519 40.550726 
L 150.533151 52.187694 
L 152.058783 52.187694 
L 153.584416 58.006178 
L 158.161312 58.006178 
L 159.686945 55.096935 
L 161.212577 55.096935 
L 162.738209 49.278452 
L 164.263841 49.278452 
L 165.789474 43.459968 
L 167.315106 43.459968 
L 168.840738 34.732243 
L 170.36637 28.913759 
L 171.892003 31.823 
L 173.417635 31.823 
L 174.943267 37.641484 
L 176.4689 37.641484 
L 177.994532 34.732243 
L 179.520164 40.550726 
L 181.045796 37.641484 
L 182.571429 46.36921 
L 184.097061 49.278452 
L 185.622693 49.278452 
L 187.148325 58.006178 
L 191.725222 58.006178 
L 193.250854 55.096935 
L 194.776487 55.096935 
L 196.302119 46.36921 
L 197.827751 46.36921 
L 199.353383 37.641484 
L 200.879016 37.641484 
L 202.404648 31.823 
L 203.93028 31.823 
L 205.455913 34.732243 
L 206.981545 34.732243 
L 208.507177 28.913759 
L 211.558442 23.095275 
L 214.609706 34.732243 
L 216.135338 31.823 
L 217.660971 40.550726 
L 219.186603 37.641484 
L 220.712235 40.550726 
L 222.237867 46.36921 
L 223.7635 46.36921 
L 225.289132 43.459968 
L 226.814764 55.096935 
L 228.340396 55.096935 
L 229.866029 58.006178 
L 231.391661 55.096935 
L 232.917293 58.006178 
L 234.442925 55.096935 
L 235.968558 58.006178 
L 237.49419 55.096935 
L 239.019822 55.096935 
L 242.071087 60.915419 
L 243.596719 58.006178 
L 245.122351 60.915419 
L 248.173616 60.915419 
L 249.699248 69.643145 
L 251.22488 66.733903 
L 252.750513 72.552387 
L 254.276145 63.824661 
L 255.801777 66.733903 
L 258.853042 49.278452 
L 260.378674 55.096935 
L 261.904306 49.278452 
L 263.429938 52.187694 
L 264.955571 49.278452 
L 266.481203 40.550726 
L 268.006835 46.36921 
L 271.0581 40.550726 
L 272.583732 46.36921 
L 274.109364 43.459968 
L 275.634997 43.459968 
L 278.686261 49.278452 
L 280.211893 49.278452 
L 281.737526 52.187694 
L 283.263158 58.006178 
L 284.78879 52.187694 
L 286.314422 60.915419 
L 287.840055 66.733903 
L 289.365687 66.733903 
L 290.891319 69.643145 
L 292.416951 69.643145 
L 293.942584 81.280113 
L 295.468216 75.461628 
L 298.519481 75.461628 
L 300.045113 72.552387 
L 301.570745 66.733903 
L 303.096377 58.006178 
L 304.62201 46.36921 
L 306.147642 46.36921 
L 307.673274 43.459968 
L 309.198906 37.641484 
L 312.250171 31.823 
L 313.775803 34.732243 
L 315.301435 34.732243 
L 316.827068 40.550726 
L 318.3527 43.459968 
L 319.878332 40.550726 
L 321.403964 46.36921 
L 322.929597 58.006178 
L 324.455229 55.096935 
L 327.506494 60.915419 
L 329.032126 66.733903 
L 330.557758 69.643145 
L 332.08339 69.643145 
L 333.609023 66.733903 
L 335.134655 75.461628 
L 336.660287 60.915419 
L 338.185919 63.824661 
L 341.237184 52.187694 
L 342.762816 43.459968 
L 344.288448 46.36921 
L 345.814081 43.459968 
L 347.339713 43.459968 
L 348.865345 37.641484 
L 350.390977 37.641484 
L 351.91661 40.550726 
L 353.442242 40.550726 
L 354.967874 43.459968 
L 356.493506 49.278452 
L 359.544771 49.278452 
L 361.070403 52.187694 
L 362.596036 58.006178 
L 364.121668 55.096935 
L 365.6473 66.733903 
L 368.698565 66.733903 
L 371.749829 72.552387 
L 373.275461 72.552387 
L 376.326726 78.370869 
L 377.852358 78.370869 
L 379.37799 72.552387 
L 380.903623 69.643145 
L 382.429255 69.643145 
L 388.531784 58.006178 
L 390.057416 60.915419 
L 393.108681 60.915419 
L 394.634313 58.006178 
L 396.159945 58.006178 
L 397.685578 63.824661 
L 399.21121 60.915419 
L 400.736842 60.915419 
L 403.788107 55.096935 
L 405.313739 58.006178 
L 406.839371 52.187694 
L 408.365003 52.187694 
L 409.890636 55.096935 
L 411.416268 49.278452 
L 412.9419 49.278452 
L 415.993165 55.096935 
L 417.518797 52.187694 
L 419.044429 55.096935 
L 420.570062 52.187694 
L 422.095694 58.006178 
L 428.198223 58.006178 
L 429.723855 60.915419 
L 432.77512 60.915419 
L 434.300752 58.006178 
L 435.826384 63.824661 
L 437.352016 63.824661 
L 438.877649 60.915419 
L 440.403281 63.824661 
L 443.454545 52.187694 
L 444.980178 63.824661 
L 446.50581 60.915419 
L 448.031442 55.096935 
L 452.608339 55.096935 
L 455.659604 49.278452 
L 457.185236 49.278452 
L 458.710868 52.187694 
L 460.2365 46.36921 
L 461.762133 52.187694 
L 463.287765 52.187694 
L 464.813397 49.278452 
L 466.339029 49.278452 
L 467.864662 40.550726 
L 469.390294 43.459968 
L 472.441558 43.459968 
L 473.967191 49.278452 
L 475.492823 43.459968 
L 477.018455 46.36921 
L 478.544087 46.36921 
L 483.120984 55.096935 
L 484.646617 55.096935 
L 486.172249 66.733903 
L 487.697881 60.915419 
L 493.80041 60.915419 
L 495.326042 63.824661 
L 496.851675 58.006178 
L 498.377307 72.552387 
L 504.479836 60.915419 
L 506.005468 60.915419 
L 507.5311 58.006178 
L 509.056733 60.915419 
L 510.582365 52.187694 
L 512.107997 49.278452 
L 513.63363 49.278452 
L 515.159262 40.550726 
L 516.684894 37.641484 
L 518.210526 31.823 
L 519.736159 40.550726 
L 521.261791 40.550726 
L 522.787423 43.459968 
L 524.313055 43.459968 
L 525.838688 40.550726 
L 527.36432 52.187694 
L 528.889952 52.187694 
L 530.415584 63.824661 
L 531.941217 69.643145 
L 533.466849 63.824661 
L 534.992481 78.370869 
L 536.518113 72.552387 
L 538.043746 81.280113 
L 541.09501 81.280113 
L 542.620643 78.370869 
L 544.146275 81.280113 
L 545.671907 81.280113 
L 548.723172 63.824661 
L 550.248804 66.733903 
L 551.774436 58.006178 
L 553.300068 52.187694 
L 554.825701 49.278452 
L 556.351333 52.187694 
L 557.876965 37.641484 
L 559.402597 37.641484 
L 560.92823 34.732243 
L 562.453862 34.732243 
L 565.505126 28.913759 
L 567.030759 31.823 
L 568.556391 37.641484 
L 570.082023 40.550726 
L 571.607656 40.550726 
L 573.133288 52.187694 
L 574.65892 46.36921 
L 576.184552 55.096935 
L 577.710185 58.006178 
L 579.235817 69.643145 
L 580.761449 66.733903 
L 582.287081 66.733903 
L 583.812714 55.096935 
L 585.338346 55.096935 
L 586.863978 43.459968 
L 588.38961 43.459968 
L 591.440875 37.641484 
L 592.966507 26.004517 
L 594.492139 28.913759 
L 596.017772 26.004517 
L 597.543404 26.004517 
L 599.069036 28.913759 
L 600.594668 28.913759 
L 603.645933 23.095275 
L 605.171565 28.913759 
L 606.697198 23.095275 
L 608.22283 20.186034 
L 609.748462 28.913759 
L 612.799727 34.732243 
L 614.325359 34.732243 
L 615.850991 40.550726 
L 617.376623 37.641484 
L 618.902256 43.459968 
L 621.95352 49.278452 
L 623.479152 46.36921 
L 625.004785 49.278452 
L 626.530417 49.278452 
L 628.056049 43.459968 
L 629.581681 43.459968 
L 631.107314 34.732243 
L 634.158578 28.913759 
L 635.684211 31.823 
L 637.209843 20.186034 
L 641.78674 28.913759 
L 643.312372 28.913759 
L 644.838004 23.095275 
L 646.363636 28.913759 
L 646.363636 28.913759 
" style="fill:none;stroke:#351b35;stroke-linecap:round;stroke-opacity:0.9;stroke-width:1.5;"/>
   </g>
   <g id="line2d_16">
    <path clip-path="url(#pa44235215a)" d="M 37.636364 58.814546 
L 39.161996 78.032727 
L 40.687628 75.287273 
L 42.21326 86.269092 
L 43.738893 89.014545 
L 45.264525 99.996364 
L 46.790157 99.996364 
L 49.841422 110.978182 
L 52.892686 110.978182 
L 54.418319 102.741818 
L 55.943951 99.996364 
L 57.469583 102.741818 
L 58.995215 102.741818 
L 60.520848 108.232728 
L 62.04648 94.505453 
L 63.572112 99.996364 
L 65.097744 97.25091 
L 66.623377 89.014545 
L 68.149009 91.759999 
L 69.674641 83.523635 
L 71.200273 94.505453 
L 72.725906 83.523635 
L 74.251538 86.269092 
L 75.77717 86.269092 
L 77.302802 89.014545 
L 78.828435 89.014545 
L 80.354067 80.778181 
L 81.879699 91.759999 
L 83.405332 78.032727 
L 84.930964 80.778181 
L 86.456596 78.032727 
L 87.982228 78.032727 
L 89.507861 69.796363 
L 91.033493 64.305454 
L 92.559125 69.796363 
L 94.084757 58.814546 
L 95.61039 61.56 
L 97.136022 56.069091 
L 98.661654 47.832727 
L 100.187286 53.323636 
L 103.238551 42.341818 
L 104.764183 39.596364 
L 106.289815 50.578182 
L 107.815448 45.087273 
L 112.392344 45.087273 
L 113.917977 53.323636 
L 115.443609 50.578182 
L 116.969241 61.56 
L 118.494874 56.069091 
L 120.020506 64.305454 
L 121.546138 69.796363 
L 123.07177 64.305454 
L 124.597403 72.541817 
L 126.123035 75.287273 
L 127.648667 75.287273 
L 129.174299 61.56 
L 130.699932 56.069091 
L 135.276828 56.069091 
L 136.802461 45.087273 
L 138.328093 47.832727 
L 139.853725 45.087273 
L 141.379357 39.596364 
L 142.90499 39.596364 
L 144.430622 45.087273 
L 145.956254 45.087273 
L 149.007519 34.105455 
L 150.533151 39.596364 
L 152.058783 39.596364 
L 153.584416 36.850909 
L 161.212577 36.850909 
L 162.738209 47.832727 
L 164.263841 47.832727 
L 165.789474 39.596364 
L 168.840738 45.087273 
L 170.36637 39.596364 
L 171.892003 36.850909 
L 173.417635 36.850909 
L 174.943267 39.596364 
L 176.4689 39.596364 
L 177.994532 53.323636 
L 179.520164 47.832727 
L 181.045796 50.578182 
L 182.571429 50.578182 
L 184.097061 61.56 
L 185.622693 61.56 
L 187.148325 56.069091 
L 190.19959 56.069091 
L 191.725222 64.305454 
L 193.250854 56.069091 
L 197.827751 56.069091 
L 199.353383 50.578182 
L 200.879016 58.814546 
L 202.404648 47.832727 
L 205.455913 53.323636 
L 206.981545 42.341818 
L 208.507177 53.323636 
L 210.032809 45.087273 
L 211.558442 50.578182 
L 213.084074 47.832727 
L 214.609706 58.814546 
L 216.135338 58.814546 
L 217.660971 50.578182 
L 219.186603 56.069091 
L 220.712235 50.578182 
L 223.7635 56.069091 
L 225.289132 47.832727 
L 226.814764 50.578182 
L 229.866029 39.596364 
L 231.391661 45.087273 
L 232.917293 47.832727 
L 234.442925 42.341818 
L 237.49419 36.850909 
L 240.545455 36.850909 
L 242.071087 28.614546 
L 243.596719 28.614546 
L 246.647984 23.123636 
L 248.173616 25.869092 
L 249.699248 25.869092 
L 251.22488 23.123636 
L 252.750513 14.887273 
L 254.276145 25.869092 
L 255.801777 12.141818 
L 258.853042 28.614546 
L 260.378674 17.632729 
L 261.904306 28.614546 
L 263.429938 25.869092 
L 264.955571 28.614546 
L 266.481203 25.869092 
L 268.006835 31.360001 
L 269.532468 25.869092 
L 271.0581 25.869092 
L 272.583732 31.360001 
L 274.109364 31.360001 
L 277.160629 25.869092 
L 278.686261 42.341818 
L 280.211893 42.341818 
L 281.737526 31.360001 
L 283.263158 45.087273 
L 284.78879 45.087273 
L 286.314422 53.323636 
L 287.840055 50.578182 
L 289.365687 56.069091 
L 290.891319 69.796363 
L 292.416951 64.305454 
L 295.468216 75.287273 
L 296.993848 75.287273 
L 298.519481 67.050909 
L 300.045113 69.796363 
L 301.570745 64.305454 
L 303.096377 69.796363 
L 304.62201 67.050909 
L 306.147642 67.050909 
L 307.673274 69.796363 
L 309.198906 58.814546 
L 310.724539 72.541817 
L 312.250171 67.050909 
L 313.775803 58.814546 
L 315.301435 67.050909 
L 316.827068 58.814546 
L 319.878332 53.323636 
L 321.403964 58.814546 
L 322.929597 56.069091 
L 324.455229 47.832727 
L 325.980861 50.578182 
L 327.506494 42.341818 
L 329.032126 50.578182 
L 332.08339 50.578182 
L 333.609023 45.087273 
L 335.134655 45.087273 
L 336.660287 56.069091 
L 338.185919 47.832727 
L 339.711552 53.323636 
L 341.237184 42.341818 
L 342.762816 50.578182 
L 345.814081 50.578182 
L 347.339713 53.323636 
L 348.865345 34.105455 
L 350.390977 42.341818 
L 351.91661 39.596364 
L 353.442242 39.596364 
L 354.967874 47.832727 
L 356.493506 39.596364 
L 358.019139 50.578182 
L 359.544771 36.850909 
L 361.070403 45.087273 
L 362.596036 45.087273 
L 364.121668 50.578182 
L 365.6473 42.341818 
L 367.172932 47.832727 
L 368.698565 45.087273 
L 370.224197 45.087273 
L 371.749829 39.596364 
L 373.275461 36.850909 
L 374.801094 50.578182 
L 376.326726 36.850909 
L 377.852358 50.578182 
L 379.37799 42.341818 
L 383.954887 50.578182 
L 385.480519 50.578182 
L 387.006152 47.832727 
L 388.531784 56.069091 
L 390.057416 50.578182 
L 391.583049 61.56 
L 393.108681 56.069091 
L 394.634313 56.069091 
L 396.159945 50.578182 
L 397.685578 50.578182 
L 399.21121 56.069091 
L 400.736842 42.341818 
L 402.262474 50.578182 
L 403.788107 39.596364 
L 405.313739 45.087273 
L 406.839371 45.087273 
L 408.365003 42.341818 
L 409.890636 45.087273 
L 411.416268 39.596364 
L 412.9419 31.360001 
L 414.467532 47.832727 
L 417.518797 42.341818 
L 419.044429 47.832727 
L 420.570062 36.850909 
L 422.095694 36.850909 
L 423.621326 45.087273 
L 425.146958 42.341818 
L 426.672591 47.832727 
L 428.198223 50.578182 
L 429.723855 45.087273 
L 431.249487 47.832727 
L 432.77512 47.832727 
L 434.300752 61.56 
L 435.826384 56.069091 
L 437.352016 58.814546 
L 438.877649 56.069091 
L 441.928913 61.56 
L 443.454545 61.56 
L 444.980178 56.069091 
L 446.50581 56.069091 
L 448.031442 64.305454 
L 449.557075 61.56 
L 451.082707 56.069091 
L 452.608339 58.814546 
L 454.133971 56.069091 
L 455.659604 61.56 
L 457.185236 53.323636 
L 458.710868 64.305454 
L 460.2365 58.814546 
L 461.762133 58.814546 
L 463.287765 64.305454 
L 464.813397 53.323636 
L 466.339029 58.814546 
L 469.390294 58.814546 
L 470.915926 53.323636 
L 472.441558 56.069091 
L 473.967191 50.578182 
L 475.492823 50.578182 
L 477.018455 39.596364 
L 480.06972 39.596364 
L 481.595352 42.341818 
L 483.120984 42.341818 
L 484.646617 36.850909 
L 486.172249 34.105455 
L 487.697881 39.596364 
L 489.223513 28.614546 
L 490.749146 28.614546 
L 492.274778 31.360001 
L 493.80041 25.869092 
L 495.326042 31.360001 
L 496.851675 28.614546 
L 498.377307 31.360001 
L 499.902939 28.614546 
L 501.428571 36.850909 
L 502.954204 31.360001 
L 506.005468 42.341818 
L 507.5311 39.596364 
L 509.056733 47.832727 
L 510.582365 45.087273 
L 512.107997 50.578182 
L 515.159262 50.578182 
L 516.684894 45.087273 
L 518.210526 42.341818 
L 519.736159 53.323636 
L 521.261791 36.850909 
L 522.787423 42.341818 
L 524.313055 42.341818 
L 525.838688 45.087273 
L 527.36432 39.596364 
L 528.889952 39.596364 
L 530.415584 47.832727 
L 531.941217 58.814546 
L 533.466849 61.56 
L 534.992481 75.287273 
L 536.518113 67.050909 
L 538.043746 69.796363 
L 539.569378 78.032727 
L 541.09501 75.287273 
L 544.146275 75.287273 
L 545.671907 67.050909 
L 547.197539 67.050909 
L 548.723172 58.814546 
L 550.248804 64.305454 
L 551.774436 56.069091 
L 553.300068 61.56 
L 554.825701 56.069091 
L 556.351333 53.323636 
L 557.876965 56.069091 
L 559.402597 50.578182 
L 560.92823 58.814546 
L 562.453862 53.323636 
L 563.979494 53.323636 
L 567.030759 58.814546 
L 570.082023 47.832727 
L 571.607656 50.578182 
L 573.133288 42.341818 
L 576.184552 36.850909 
L 577.710185 39.596364 
L 579.235817 36.850909 
L 580.761449 42.341818 
L 582.287081 45.087273 
L 583.812714 45.087273 
L 585.338346 42.341818 
L 586.863978 45.087273 
L 588.38961 50.578182 
L 589.915243 47.832727 
L 591.440875 42.341818 
L 592.966507 47.832727 
L 594.492139 42.341818 
L 596.017772 45.087273 
L 597.543404 36.850909 
L 599.069036 42.341818 
L 600.594668 45.087273 
L 602.120301 42.341818 
L 603.645933 42.341818 
L 605.171565 36.850909 
L 606.697198 45.087273 
L 608.22283 50.578182 
L 609.748462 45.087273 
L 611.274094 53.323636 
L 612.799727 45.087273 
L 614.325359 53.323636 
L 615.850991 47.832727 
L 617.376623 50.578182 
L 618.902256 42.341818 
L 623.479152 42.341818 
L 625.004785 34.105455 
L 626.530417 39.596364 
L 628.056049 47.832727 
L 629.581681 47.832727 
L 631.107314 45.087273 
L 632.632946 45.087273 
L 634.158578 56.069091 
L 635.684211 61.56 
L 637.209843 47.832727 
L 638.735475 58.814546 
L 640.261107 50.578182 
L 641.78674 47.832727 
L 643.312372 50.578182 
L 644.838004 47.832727 
L 646.363636 50.578182 
L 646.363636 50.578182 
" style="fill:none;stroke:#481448;stroke-linecap:round;stroke-opacity:0.9;stroke-width:1.5;"/>
   </g>
   <g id="patch_3">
    <path d="M 7.2 115.92 
L 7.2 7.2 
" style="fill:none;stroke:#cccccc;stroke-linecap:square;stroke-linejoin:miter;stroke-width:0.8;"/>
   </g>
   <g id="patch_4">
    <path d="M 676.8 115.92 
L 676.8 7.2 
" style="fill:none;stroke:#cccccc;stroke-linecap:square;stroke-linejoin:miter;stroke-width:0.8;"/>
   </g>
   <g id="patch_5">
    <path d="M 7.2 115.92 
L 676.8 115.92 
" style="fill:none;stroke:#cccccc;stroke-linecap:square;stroke-linejoin:miter;stroke-width:0.8;"/>
   </g>
   <g id="patch_6">
    <path d="M 7.2 7.2 
L 676.8 7.2 
" style="fill:none;stroke:#cccccc;stroke-linecap:square;stroke-linejoin:miter;stroke-width:0.8;"/>
   </g>
  </g>
 </g>
 <defs>
  <clipPath id="pa44235215a">
   <rect height="108.72" width="669.6" x="7.2" y="7.2"/>
  </clipPath>
 </defs>
</svg>
